<svg width="181" height="181" viewBox="0 0 181 181" fill="none" xmlns="http://www.w3.org/2000/svg">
<path d="M117.081 120.97L107.07 90.1567L133.275 71.1184H100.883L90.8715 40.3058L90.8683 40.2975H123.266L133.279 71.1149L133.28 71.1142L133.289 71.1097C139.104 88.9877 133.114 109.322 117.081 120.97V120.97ZM64.6593 120.97L64.6513 120.976L90.8631 140.019L117.081 120.971L90.8715 101.927L64.6596 120.97H64.6593ZM48.4589 71.1104C42.337 89.9563 49.4433 109.926 64.6544 120.974L64.6569 120.964L74.669 90.1525L48.4697 71.1177H80.8544L90.8662 40.3055L90.8683 40.2971H58.4694L48.4586 71.1104H48.4589Z" fill="#EB5424"/>
</svg>
