<svg width="181" height="181" viewBox="0 0 181 181" fill="none" xmlns="http://www.w3.org/2000/svg">
<path d="M68.5616 82.0064C68.5616 83.237 68.6947 84.2348 68.9275 84.9665C69.1935 85.6982 69.5261 86.4964 69.9918 87.3611C70.158 87.6272 70.2246 87.8933 70.2246 88.1261C70.2246 88.4587 70.025 88.7913 69.5926 89.1239L67.4973 90.5207C67.198 90.7203 66.8987 90.8201 66.6326 90.8201C66.3 90.8201 65.9674 90.6538 65.6348 90.3545C65.1692 89.8556 64.7701 89.3234 64.4375 88.7913C64.1049 88.2259 63.7723 87.594 63.4065 86.829C60.8123 89.8888 57.5529 91.4187 53.6283 91.4187C50.8346 91.4187 48.6062 90.6205 46.9765 89.0241C45.3469 87.4277 44.5154 85.2991 44.5154 82.6384C44.5154 79.8114 45.5132 77.5165 47.5419 75.787C49.5707 74.0576 52.2647 73.1928 55.6904 73.1928C56.8212 73.1928 57.9853 73.2926 59.2158 73.4589C60.4464 73.6252 61.7103 73.8913 63.0406 74.1906V71.7627C63.0406 69.235 62.5085 67.4723 61.4775 66.4412C60.4132 65.4102 58.6172 64.9113 56.0562 64.9113C54.8922 64.9113 53.6949 65.0444 52.4643 65.3437C51.2337 65.643 50.0364 66.0089 48.8723 66.4745C48.3402 66.7073 47.9411 66.8403 47.7082 66.9069C47.4754 66.9734 47.3091 67.0066 47.1761 67.0066C46.7105 67.0066 46.4777 66.6741 46.4777 65.9756V64.3459C46.4777 63.8138 46.5442 63.4147 46.7105 63.1819C46.8768 62.949 47.1761 62.7162 47.6417 62.4834C48.8058 61.8848 50.2027 61.3859 51.8324 60.9868C53.462 60.5544 55.1915 60.3548 57.0208 60.3548C60.9786 60.3548 63.8721 61.2528 65.7346 63.0488C67.5639 64.8448 68.4951 67.572 68.4951 71.2305V82.0064H68.5616ZM55.0585 87.0618C56.156 87.0618 57.2868 86.8623 58.4842 86.4632C59.6815 86.064 60.7458 85.3323 61.6438 84.3346C62.1759 83.7027 62.575 83.0042 62.7746 82.206C62.9741 81.4078 63.1071 80.4433 63.1071 79.3125V77.9156C62.1426 77.6828 61.1116 77.4832 60.0473 77.3502C58.983 77.2172 57.952 77.1506 56.921 77.1506C54.6926 77.1506 53.0629 77.583 51.9654 78.481C50.8678 79.379 50.3357 80.6428 50.3357 82.3058C50.3357 83.869 50.7348 85.033 51.5663 85.8312C52.3645 86.6627 53.5286 87.0618 55.0585 87.0618V87.0618ZM81.7654 90.6538C81.1668 90.6538 80.7677 90.554 80.5016 90.3212C80.2355 90.1216 80.0027 89.656 79.8032 89.0241L71.9873 63.3149C71.7877 62.6497 71.688 62.2174 71.688 61.9845C71.688 61.4524 71.954 61.1531 72.4862 61.1531H75.7456C76.3775 61.1531 76.8098 61.2528 77.0427 61.4857C77.3087 61.6852 77.5083 62.1508 77.7078 62.7828L83.2953 84.8002L88.4837 62.7828C88.65 62.1176 88.8496 61.6852 89.1157 61.4857C89.3817 61.2861 89.8474 61.1531 90.446 61.1531H93.1067C93.7387 61.1531 94.171 61.2528 94.4371 61.4857C94.7032 61.6852 94.936 62.1508 95.069 62.7828L100.324 85.0663L106.078 62.7828C106.277 62.1176 106.51 61.6852 106.743 61.4857C107.009 61.2861 107.441 61.1531 108.04 61.1531H111.133C111.665 61.1531 111.965 61.4191 111.965 61.9845C111.965 62.1508 111.931 62.3171 111.898 62.5167C111.865 62.7162 111.798 62.9823 111.665 63.3482L103.65 89.0574C103.45 89.7225 103.217 90.1549 102.951 90.3545C102.685 90.554 102.253 90.687 101.688 90.687H98.8273C98.1954 90.687 97.763 90.5873 97.4969 90.3545C97.2309 90.1216 96.998 89.6893 96.865 89.0241L91.7099 67.572L86.588 88.9908C86.4217 89.656 86.2221 90.0884 85.9561 90.3212C85.69 90.554 85.2244 90.6538 84.6257 90.6538H81.7654ZM124.503 91.5518C122.774 91.5518 121.044 91.3522 119.381 90.9531C117.718 90.554 116.421 90.1216 115.557 89.6228C115.024 89.3234 114.659 88.9908 114.526 88.6915C114.392 88.3922 114.326 88.0596 114.326 87.7602V86.064C114.326 85.3656 114.592 85.033 115.091 85.033C115.29 85.033 115.49 85.0663 115.69 85.1328C115.889 85.1993 116.188 85.3323 116.521 85.4654C117.652 85.9643 118.882 86.3634 120.18 86.6294C121.51 86.8955 122.807 87.0286 124.137 87.0286C126.233 87.0286 127.862 86.6627 128.993 85.931C130.124 85.1993 130.723 84.135 130.723 82.7714C130.723 81.8402 130.423 81.0752 129.825 80.4433C129.226 79.8114 128.095 79.246 126.465 78.7138L121.643 77.2172C119.215 76.4522 117.419 75.3214 116.322 73.8247C115.224 72.3613 114.659 70.7317 114.659 69.0022C114.659 67.6053 114.958 66.3747 115.557 65.3104C116.155 64.2461 116.953 63.3149 117.951 62.5832C118.949 61.8182 120.08 61.2528 121.41 60.8537C122.74 60.4546 124.137 60.2883 125.601 60.2883C126.332 60.2883 127.097 60.3216 127.829 60.4214C128.594 60.5211 129.293 60.6542 129.991 60.7872C130.656 60.9535 131.288 61.1198 131.887 61.3194C132.485 61.5189 132.951 61.7185 133.284 61.918C133.749 62.1841 134.082 62.4502 134.281 62.7495C134.481 63.0156 134.581 63.3814 134.581 63.847V65.4102C134.581 66.1087 134.315 66.4745 133.816 66.4745C133.55 66.4745 133.117 66.3415 132.552 66.0754C130.656 65.2107 128.528 64.7783 126.166 64.7783C124.27 64.7783 122.774 65.0776 121.743 65.7095C120.712 66.3415 120.18 67.306 120.18 68.6696C120.18 69.6008 120.512 70.3991 121.177 71.031C121.842 71.6629 123.073 72.2948 124.836 72.8602L129.559 74.3569C131.953 75.1218 133.683 76.1861 134.714 77.5497C135.745 78.9134 136.244 80.4765 136.244 82.206C136.244 83.6361 135.944 84.9332 135.379 86.064C134.78 87.1948 133.982 88.1926 132.951 88.9908C131.92 89.8223 130.689 90.421 129.259 90.8533C127.763 91.319 126.199 91.5518 124.503 91.5518V91.5518Z" fill="white"/>
<path fill-rule="evenodd" clip-rule="evenodd" d="M130.789 107.716C119.847 115.798 103.949 120.088 90.2797 120.088C71.1225 120.088 53.8611 113.004 40.8236 101.23C39.7926 100.299 40.7239 99.035 41.9544 99.7667C56.0562 107.948 73.4507 112.904 91.4437 112.904C103.583 112.904 116.92 110.376 129.193 105.188C131.022 104.356 132.585 106.385 130.789 107.716V107.716Z" fill="#FF9900"/>
<path fill-rule="evenodd" clip-rule="evenodd" d="M135.346 102.527C133.949 100.731 126.1 101.663 122.541 102.095C121.477 102.228 121.31 101.297 122.275 100.598C128.528 96.2081 138.805 97.4719 140.002 98.9353C141.199 100.432 139.669 110.709 133.816 115.631C132.918 116.396 132.053 115.997 132.452 114.999C133.782 111.707 136.742 104.29 135.346 102.527V102.527Z" fill="#FF9900"/>
</svg>
