<svg width="180" height="180" viewBox="0 0 180 180" fill="none" xmlns="http://www.w3.org/2000/svg">
<path d="M60.007 5.27548H113.271L57.9777 169.102C56.8125 172.554 53.5756 174.879 49.9323 174.879H8.4801C5.74897 174.879 3.1849 173.564 1.59187 171.346C-0.00116408 169.127 -0.428095 166.277 0.444944 163.69L51.9595 11.0523C53.1243 7.59894 56.3625 5.27344 60.007 5.27344V5.27548Z" fill="url(#paint0_linear_406_1972)"/>
<path d="M137.407 115.159H52.9434C51.3364 115.157 49.8921 116.139 49.3025 117.634C48.713 119.129 49.0983 120.833 50.2739 121.928L104.548 172.586C106.128 174.06 108.209 174.879 110.37 174.879H158.196L137.407 115.159Z" fill="#0078D4"/>
<path d="M60.0069 5.27545C56.319 5.26136 53.0506 7.64776 51.941 11.1648L0.508262 163.551C-0.423824 166.149 -0.0312835 169.038 1.56017 171.293C3.15163 173.548 5.74229 174.887 8.50251 174.879H51.0246C54.2488 174.303 56.9137 172.037 58.0001 168.947L68.2568 138.719L104.894 172.891C106.429 174.161 108.355 174.863 110.347 174.879H157.996L137.098 115.16L76.1774 115.174L113.463 5.27545H60.0069Z" fill="url(#paint1_linear_406_1972)"/>
<path d="M128.038 11.044C126.875 7.59622 123.641 5.27539 120.003 5.27539H60.6411C64.2796 5.27539 67.5126 7.59662 68.6763 11.044L120.193 163.687C121.067 166.276 120.64 169.126 119.047 171.346C117.454 173.565 114.89 174.881 112.158 174.881H171.521C174.253 174.881 176.817 173.564 178.409 171.345C180.002 169.126 180.428 166.275 179.554 163.687L128.038 11.044Z" fill="url(#paint2_linear_406_1972)"/>
<defs>
<linearGradient id="paint0_linear_406_1972" x1="66.7976" y1="17.8437" x2="14.6324" y2="171.953" gradientUnits="userSpaceOnUse">
<stop stop-color="#114A8B"/>
<stop offset="1" stop-color="#0669BC"/>
</linearGradient>
<linearGradient id="paint1_linear_406_1972" x1="94.3575" y1="93.9997" x2="83.0816" y2="97.8125" gradientUnits="userSpaceOnUse">
<stop stop-opacity="0.3"/>
<stop offset="0.071" stop-opacity="0.2"/>
<stop offset="0.321" stop-opacity="0.1"/>
<stop offset="0.623" stop-opacity="0.05"/>
<stop offset="1" stop-opacity="0"/>
</linearGradient>
<linearGradient id="paint2_linear_406_1972" x1="105.137" y1="13.0773" x2="162.072" y2="164.763" gradientUnits="userSpaceOnUse">
<stop stop-color="#3CCBF4"/>
<stop offset="1" stop-color="#2892DF"/>
</linearGradient>
</defs>
</svg>
