<svg width="180" height="180" viewBox="0 0 180 180" fill="none" xmlns="http://www.w3.org/2000/svg">
<path fill-rule="evenodd" clip-rule="evenodd" d="M167.94 53.8183C167.939 50.8703 167.308 48.2654 166.033 46.0296C164.781 43.8312 162.905 41.9885 160.389 40.5316C139.622 28.5571 118.835 16.6192 98.0743 4.63255C92.4774 1.40135 87.0508 1.51915 81.4954 4.79674C73.2294 9.67162 31.8445 33.3819 19.5123 40.5249C14.4336 43.465 11.9623 47.9645 11.9611 53.8129C11.9531 77.8943 11.9611 101.975 11.9531 126.057C11.9543 128.94 12.558 131.495 13.7769 133.697C15.0299 135.962 16.9318 137.855 19.5056 139.345C31.8384 146.488 73.2288 170.197 81.4929 175.073C87.0508 178.352 92.4774 178.469 98.0762 175.237C118.837 163.249 139.626 151.312 160.396 139.338C162.97 137.849 164.872 135.954 166.125 133.691C167.342 131.489 167.947 128.934 167.948 126.05C167.948 126.05 167.948 77.9004 167.94 53.8183" fill="#5C8DBC"/>
<path fill-rule="evenodd" clip-rule="evenodd" d="M90.1892 89.7002L13.7769 133.697C15.0299 135.962 16.9318 137.855 19.5056 139.345C31.8384 146.488 73.2288 170.196 81.4929 175.073C87.0508 178.352 92.4774 178.469 98.0762 175.237C118.837 163.249 139.626 151.312 160.396 139.338C162.97 137.848 164.872 135.954 166.125 133.691L90.1892 89.7002" fill="#1A4674"/>
<path fill-rule="evenodd" clip-rule="evenodd" d="M67.5568 102.732C72.0032 110.495 80.3619 115.73 89.9506 115.73C99.5984 115.73 108.005 110.428 112.429 102.583L90.1892 89.7002L67.5568 102.732" fill="#1A4674"/>
<path fill-rule="evenodd" clip-rule="evenodd" d="M167.94 53.8185C167.939 50.8705 167.308 48.2655 166.033 46.0298L90.1892 89.7004L166.125 133.691C167.342 131.489 167.947 128.934 167.948 126.051C167.948 126.051 167.948 77.9005 167.94 53.8185" fill="#1B598E"/>
<path fill-rule="evenodd" clip-rule="evenodd" d="M163.765 92.8448H157.831V98.7799H151.896V92.8448H145.963V86.9116H151.896V80.9778H157.831V86.9116H163.765V92.8448" fill="white"/>
<path fill-rule="evenodd" clip-rule="evenodd" d="M142.112 92.8448H136.179V98.7799H130.245V92.8448H124.312V86.9116H130.245V80.9778H136.179V86.9116H142.112V92.8448" fill="white"/>
<path fill-rule="evenodd" clip-rule="evenodd" d="M112.429 102.583C108.005 110.428 99.5984 115.73 89.9506 115.73C80.3619 115.73 72.0032 110.495 67.5568 102.732C65.3967 98.9605 64.1547 94.5934 64.1547 89.9346C64.1547 75.6884 75.7043 64.1393 89.9506 64.1393C99.4775 64.1393 107.792 69.3096 112.261 76.9927L134.808 64.0093C125.846 48.5393 109.114 38.1316 89.9506 38.1316C61.3397 38.1316 38.147 61.325 38.147 89.9346C38.147 99.3206 40.6439 108.122 45.0079 115.715C53.9471 131.266 70.7263 141.738 89.9506 141.738C109.21 141.738 126.016 131.224 134.942 115.627L112.429 102.583" fill="white"/>
</svg>
