<svg width="180" height="180" viewBox="0 0 180 180" fill="none" xmlns="http://www.w3.org/2000/svg">
<path d="M175.235 70.2979C173.796 70.2979 172.632 69.1317 172.632 67.695C172.632 66.2561 173.796 65.092 175.235 65.092C176.672 65.092 177.838 66.2561 177.838 67.695C177.838 69.1317 176.672 70.2979 175.235 70.2979ZM149.383 114.772C147.945 114.772 146.78 113.605 146.78 112.169C146.78 110.73 147.945 109.566 149.383 109.566C150.82 109.566 151.984 110.73 151.984 112.169C151.984 113.605 150.82 114.772 149.383 114.772ZM175.235 62.9297C172.603 62.9297 170.469 65.0633 170.469 67.695C170.469 68.2565 170.611 68.7792 170.789 69.2793L148.434 107.594C146.274 108.047 144.618 109.873 144.618 112.169C144.618 114.8 146.752 116.934 149.383 116.934C152.013 116.934 154.147 114.8 154.147 112.169C154.147 111.64 154.005 111.156 153.847 110.681L176.315 72.2409C178.41 71.7388 180 69.9433 180 67.695C180 65.0633 177.866 62.9297 175.235 62.9297Z" fill="#0C544C"/>
<path d="M155.737 70.2979C154.298 70.2979 153.134 69.1317 153.134 67.695C153.134 66.2561 154.298 65.092 155.737 65.092C157.174 65.092 158.338 66.2561 158.338 67.695C158.338 69.1317 157.174 70.2979 155.737 70.2979ZM129.884 114.772C128.447 114.772 127.281 113.605 127.281 112.169C127.281 110.73 128.447 109.566 129.884 109.566C131.323 109.566 132.487 110.73 132.487 112.169C132.487 113.605 131.323 114.772 129.884 114.772ZM155.737 62.9297C153.103 62.9297 150.972 65.0633 150.972 67.695C150.972 68.2565 151.113 68.7792 151.292 69.2793L128.937 107.594C126.775 108.047 125.118 109.873 125.118 112.169C125.118 114.8 127.252 116.934 129.884 116.934C132.515 116.934 134.649 114.8 134.649 112.169C134.649 111.64 134.508 111.156 134.35 110.681L156.817 72.2409C158.912 71.7388 160.502 69.9433 160.502 67.695C160.502 65.0633 158.367 62.9297 155.737 62.9297Z" fill="#073551"/>
<path d="M120.132 92.7533C122.237 92.7533 123.965 94.1388 124.596 96.0306C124.754 96.5061 124.897 96.9898 124.897 97.5186C124.897 100.148 122.763 102.284 120.132 102.284C117.5 102.284 115.367 100.148 115.367 97.5186C115.367 95.223 117.023 93.3969 119.183 92.9439C119.501 92.8783 119.796 92.7533 120.132 92.7533ZM120.132 94.9156C118.695 94.9156 117.529 96.0798 117.529 97.5186C117.529 98.9553 118.695 100.119 120.132 100.119C121.569 100.119 122.735 98.9553 122.735 97.5186C122.735 96.0798 121.569 94.9156 120.132 94.9156ZM120.132 76.1025C122.235 76.1025 123.965 77.4881 124.596 79.3798C124.754 79.8553 124.897 80.3411 124.897 80.8678C124.897 83.4995 122.763 85.6331 120.132 85.6331C117.5 85.6331 115.367 83.4995 115.367 80.8678C115.367 78.5723 117.023 76.7461 119.183 76.2952C119.501 76.2276 119.796 76.1025 120.132 76.1025ZM120.132 78.2648C118.693 78.2648 117.529 79.4311 117.529 80.8678C117.529 82.3046 118.693 83.4708 120.132 83.4708C121.569 83.4708 122.735 82.3046 122.735 80.8678C122.735 79.4311 121.569 78.2648 120.132 78.2648Z" fill="#073551"/>
<path d="M25.5776 82.9262C27.568 82.9393 29.6533 83.4065 29.6533 85.951C29.6533 88.5991 27.2594 88.9844 25.4885 88.9844H14.8307C13.6256 88.9844 12.4286 89.6157 11.3547 90.4929L7.69821 93.5837C6.74721 94.3461 6.05855 94.9774 6.05855 96.1743V103.684C6.05855 104.881 6.74721 105.512 7.69821 106.266L11.3547 109.357C12.4286 110.243 13.6256 110.874 14.8307 110.874H25.4885C27.2594 110.874 29.6533 111.251 29.6533 113.907C29.6533 116.49 27.5053 116.932 25.4885 116.932L15.561 116.932C12.268 116.926 10.8204 116.792 8.07533 114.539L3.59906 110.808C0.696856 108.414 0 106.586 0 102.864V96.9942C0 93.2721 0.696856 91.4439 3.59906 89.0418L8.07533 85.3198C10.8204 83.0666 12.268 82.9324 15.561 82.9261L25.5776 82.9262ZM59.4377 82.9259C62.0202 82.9259 62.4629 85.0082 62.4629 87.0906L62.463 112.506C62.4636 112.657 62.4665 112.826 62.4674 113.008L62.4674 113.194C62.467 113.279 62.4658 113.365 62.4636 113.454L62.4593 113.587C62.4028 115.069 61.9969 116.932 59.4951 116.932C56.9127 116.932 56.4699 114.784 56.4699 112.702V111.694L51.551 114.916C49.5916 116.178 47.9519 116.932 46.3122 116.932H41.836C40.1307 116.932 38.2369 116.424 36.2201 114.727C33.5065 112.391 33.5639 109.8 33.4409 106.521L32.8096 87.4677C32.744 85.2624 33.0638 82.9259 35.8348 82.9259C38.4255 82.9259 38.737 85.1312 38.8026 87.0906L39.4339 105.701C39.4994 107.086 39.5568 108.734 40.0651 109.611C40.5734 110.497 42.1475 110.874 43.5986 110.874H45.6154C46.3122 110.874 46.9435 110.685 47.5092 110.308L56.4044 104.692L56.4047 86.9987C56.4178 84.9474 56.8852 82.9259 59.4377 82.9259ZM86.6315 82.9259C88.968 82.9259 90.9192 83.6801 92.5589 85.3198C94.5757 87.3447 95.2725 89.4271 95.2725 92.1981C95.2725 94.2805 94.8954 96.4285 92.3047 96.4285C90.0994 96.4285 89.214 94.6576 89.214 92.7064C89.214 91.6981 89.214 90.9356 88.5827 90.0584C87.8672 89.0395 86.5244 88.9872 85.1494 88.9846L83.1554 88.9844C82.0241 88.9844 81.2042 89.5501 80.1303 90.4355L71.6778 97.4369V112.768C71.6778 114.85 71.2351 116.932 68.6444 116.932C66.062 116.932 65.6193 114.85 65.6193 112.768L65.6194 87.3127C65.6266 85.1358 65.9109 82.9259 68.6444 82.9259C71.0465 82.9259 71.6778 84.9426 71.6778 86.9594V89.4271L76.4082 85.5083C78.1135 84.1228 79.8761 82.9259 81.7699 82.9259H86.6315ZM102.015 70.4319C105.39 70.4462 106.376 71.1033 106.376 74.662V110.874H110.917C112.942 110.874 115.082 111.317 115.082 113.907C115.082 116.555 112.688 116.932 110.917 116.932L95.4519 116.932C93.6895 116.921 91.3645 116.517 91.3645 113.907C91.3645 111.317 93.5043 110.874 95.5292 110.874H100.325V76.4902H95.5292C93.7584 76.4902 91.3645 76.1131 91.3645 73.4568C91.3645 70.8743 93.5043 70.4316 95.5292 70.4316L102.015 70.4319Z" fill="#073551"/>
</svg>
