<svg width="180" height="180" viewBox="0 0 180 180" fill="none" xmlns="http://www.w3.org/2000/svg">
<path d="M90.0003 95.1699V112.567C119.487 112.567 142.447 84.0803 132.801 53.1811C128.585 39.6779 117.856 28.9484 104.353 24.7331C73.4534 15.0872 44.9662 38.0468 44.9662 67.534H62.4032C62.4057 67.534 62.4077 67.5294 62.4077 67.5294C62.4103 49.024 80.7241 34.7171 100.18 41.7769C107.388 44.3926 113.137 50.1409 115.754 57.3483C122.815 76.7926 108.53 95.0992 90.0401 95.1254V77.7845C90.0401 77.7845 90.0386 77.7835 90.037 77.7835H72.6537C72.6522 77.7835 72.6506 77.786 72.6506 77.786V95.1699H90.0003ZM72.6476 108.531H59.291L59.288 108.528V95.1699H72.6506V108.528C72.6506 108.528 72.6491 108.531 72.6476 108.531ZM59.2971 95.1699H48.1003C48.0957 95.1699 48.0921 95.1668 48.0921 95.1668V83.9751C48.0921 83.9751 48.0957 83.9669 48.1003 83.9669H59.289C59.2936 83.9669 59.2971 83.9705 59.2971 83.9705V95.1699Z" fill="#0080FF"/>
<path d="M15.5602 130.214C13.2932 128.641 10.4722 127.844 7.17569 127.844H0V150.61H7.17569C10.464 150.61 13.2861 149.768 15.5627 148.11C16.8017 147.231 17.775 146.002 18.4563 144.459C19.134 142.925 19.4777 141.114 19.4777 139.079C19.4777 137.068 19.134 135.281 18.4558 133.768C17.775 132.247 16.8006 131.052 15.5602 130.214ZM4.19122 131.692H6.44336C8.94931 131.692 11.012 132.185 12.5762 133.159C14.3126 134.206 15.1935 136.197 15.1935 139.079C15.1935 142.047 14.3105 144.129 12.5701 145.268H12.5686C11.0707 146.259 9.0203 146.762 6.47451 146.762H4.19122V131.692ZM22.4167 150.61H26.4516V134.575H22.4167V150.61ZM24.4727 127.564C23.7833 127.564 23.1889 127.808 22.7103 128.287C22.2262 128.749 21.9806 129.333 21.9806 130.025C21.9806 130.715 22.2247 131.309 22.7073 131.791C23.1889 132.273 23.7833 132.518 24.4727 132.518C25.1622 132.518 25.7561 132.273 26.2387 131.791C26.7218 131.308 26.9659 130.714 26.9659 130.025C26.9659 129.334 26.7203 128.75 26.2387 128.29C25.7561 127.808 25.1622 127.564 24.4727 127.564ZM41.1043 135.915C39.8879 134.833 38.5294 134.202 37.0602 134.202C34.8331 134.202 32.9818 134.972 31.5585 136.49C30.1174 137.996 29.3861 139.934 29.3861 142.25C29.3861 144.513 30.1056 146.445 31.5279 147.994C32.9614 149.492 34.8229 150.252 37.0602 150.252C38.6157 150.252 39.9527 149.819 41.0425 148.963V149.332C41.0425 150.663 40.6861 151.698 39.9839 152.409C39.2822 153.119 38.3088 153.478 37.0918 153.478C35.2294 153.478 34.0619 152.746 32.6407 150.826L29.8932 153.465L29.9672 153.57C30.5606 154.402 31.4697 155.218 32.6693 155.992C33.8694 156.763 35.378 157.156 37.1536 157.156C39.5493 157.156 41.4868 156.417 42.9137 154.961C44.3487 153.498 45.0765 151.537 45.0765 149.138V134.575H41.1043V135.915ZM40.0462 145.385C39.3409 146.186 38.4355 146.574 37.2783 146.574C36.1215 146.574 35.2212 146.186 34.5261 145.386C33.8347 144.59 33.4833 143.535 33.4833 142.25C33.4833 140.944 33.8347 139.876 34.5267 139.074C35.212 138.281 36.1379 137.879 37.2783 137.879C38.4345 137.879 39.3404 138.27 40.0457 139.076C40.7484 139.877 41.1043 140.945 41.1043 142.25C41.1043 143.534 40.7484 144.59 40.0462 145.385ZM48.5298 150.61H52.5647V134.575H48.5298V150.61ZM50.5863 127.564C49.8964 127.564 49.3019 127.808 48.8234 128.287C48.3393 128.749 48.0936 129.333 48.0936 130.025C48.0936 130.715 48.3377 131.309 48.8203 131.791C49.3019 132.273 49.8964 132.518 50.5863 132.518C51.2752 132.518 51.8691 132.273 52.3523 131.791C52.8349 131.308 53.079 130.714 53.079 130.025C53.079 129.334 52.8333 128.75 52.3523 128.29C51.8691 127.808 51.2752 127.564 50.5863 127.564ZM61.4083 130.243H57.4362V134.575H55.1294V138.253H57.4362V144.913C57.4362 146.997 57.8524 148.489 58.6741 149.345C59.4978 150.206 60.9604 150.642 63.0216 150.642C63.6773 150.642 64.3371 150.62 64.9821 150.578L65.1639 150.566V146.891L63.7805 146.964C62.8199 146.964 62.1784 146.795 61.8735 146.463C61.5646 146.125 61.4083 145.411 61.4083 144.341V138.253H65.1639V134.575H61.4083V130.243ZM79.0118 135.775H79.0112C77.7887 134.731 76.0983 134.202 73.9881 134.202C72.6455 134.202 71.3902 134.496 70.2545 135.072C69.204 135.605 68.1724 136.487 67.5167 137.642L67.5575 137.691L70.1411 140.164C71.2054 138.468 72.3886 137.879 73.9575 137.879C74.8006 137.879 75.5003 138.105 76.038 138.551C76.5727 138.993 76.8332 139.557 76.8332 140.271V141.049C75.8327 140.745 74.8348 140.591 73.864 140.591C71.856 140.591 70.2223 141.063 69.0084 141.995C67.7792 142.938 67.1561 144.287 67.1561 146.006C67.1561 147.512 67.6816 148.736 68.7214 149.646C69.7703 150.523 71.0808 150.969 72.6174 150.969C74.1536 150.969 75.5907 150.35 76.8955 149.29V150.61H80.8681V140.302C80.8681 138.35 80.2435 136.828 79.0118 135.775ZM71.8478 144.483C72.3054 144.164 72.9519 144.003 73.77 144.003C74.7414 144.003 75.7714 144.198 76.8332 144.583V146.156C75.9563 146.971 74.7848 147.385 73.3503 147.385C72.6516 147.385 72.1088 147.229 71.7355 146.922C71.3693 146.622 71.1911 146.24 71.1911 145.756C71.1911 145.206 71.4061 144.789 71.8478 144.483ZM84.0829 150.61H88.1178V127.844H84.0829V150.61ZM102.757 150.953C96.2858 150.953 91.0211 145.689 91.0211 139.217C91.0211 132.745 96.2858 127.48 102.757 127.48C109.229 127.48 114.493 132.745 114.493 139.217C114.493 145.689 109.229 150.953 102.757 150.953ZM102.757 131.617C98.5665 131.617 95.1572 135.026 95.1572 139.217C95.1572 143.408 98.5665 146.817 102.757 146.817C106.948 146.817 110.357 143.408 110.357 139.217C110.357 135.026 106.948 131.617 102.757 131.617ZM128.881 144.877C128.159 145.686 127.42 146.387 126.852 146.751V146.752C126.294 147.11 125.59 147.292 124.759 147.292C123.57 147.292 122.614 146.859 121.836 145.967C121.061 145.08 120.669 143.94 120.669 142.577C120.669 141.214 121.056 140.076 121.821 139.196C122.589 138.309 123.54 137.879 124.728 137.879C126.028 137.879 127.398 138.687 128.572 140.075L131.239 137.518C129.5 135.255 127.282 134.202 124.635 134.202C122.419 134.202 120.499 135.009 118.928 136.599C117.364 138.178 116.571 140.19 116.571 142.577C116.571 144.964 117.363 146.981 118.925 148.57C120.488 150.162 122.41 150.969 124.635 150.969C127.556 150.969 129.914 149.708 131.504 147.397L128.881 144.877ZM145.441 136.816C144.869 136.018 144.089 135.377 143.124 134.907C142.162 134.439 141.04 134.202 139.79 134.202C137.538 134.202 135.695 135.033 134.311 136.673C132.968 138.3 132.287 140.323 132.287 142.686C132.287 145.116 133.034 147.128 134.507 148.664C135.972 150.193 137.933 150.969 140.335 150.969C143.056 150.969 145.289 149.869 146.971 147.698L147.062 147.581L144.43 145.052C144.186 145.346 143.84 145.68 143.525 145.977C143.126 146.353 142.752 146.644 142.351 146.843C141.748 147.144 141.072 147.292 140.315 147.292C139.197 147.292 138.272 146.963 137.564 146.314C136.902 145.707 136.515 144.889 136.412 143.879H147.102L147.138 142.406C147.138 141.364 146.996 140.36 146.716 139.421C146.436 138.481 146.007 137.604 145.441 136.816ZM136.622 140.591C136.816 139.824 137.17 139.185 137.676 138.689C138.223 138.151 138.934 137.879 139.791 137.879C140.769 137.879 141.526 138.156 142.041 138.707C142.518 139.216 142.788 139.849 142.844 140.591H136.622ZM160.936 135.775H160.935C159.713 134.731 158.022 134.202 155.912 134.202C154.57 134.202 153.314 134.496 152.179 135.072C151.128 135.605 150.096 136.487 149.441 137.642L149.482 137.691L152.065 140.164C153.13 138.468 154.313 137.879 155.882 137.879C156.725 137.879 157.424 138.105 157.962 138.551C158.497 138.993 158.757 139.557 158.757 140.271V141.049C157.756 140.745 156.759 140.591 155.788 140.591C153.78 140.591 152.146 141.063 150.933 141.995C149.703 142.938 149.08 144.287 149.08 146.006C149.08 147.512 149.606 148.736 150.646 149.646C151.694 150.523 153.005 150.969 154.542 150.969C156.078 150.969 157.515 150.35 158.819 149.29V150.61H162.792V140.302C162.792 138.35 162.168 136.828 160.936 135.775ZM153.772 144.483C154.23 144.164 154.876 144.003 155.694 144.003C156.666 144.003 157.696 144.198 158.757 144.583V146.156C157.88 146.971 156.709 147.385 155.274 147.385C154.576 147.385 154.033 147.229 153.66 146.922C153.294 146.622 153.115 146.24 153.115 145.756C153.115 145.206 153.33 144.789 153.772 144.483ZM178.314 136.09C177.19 134.837 175.611 134.202 173.619 134.202C172.019 134.202 170.719 134.661 169.746 135.568V134.575H165.79V150.61H169.825V141.767C169.825 140.552 170.114 139.587 170.683 138.899C171.252 138.213 172.034 137.879 173.074 137.879C173.988 137.879 174.681 138.177 175.192 138.79C175.705 139.407 175.965 140.255 175.965 141.316V150.61H180V141.316C180 139.095 179.433 137.337 178.314 136.09Z" fill="#0080FF"/>
</svg>
