<svg width="180" height="180" viewBox="0 0 180 180" fill="none" xmlns="http://www.w3.org/2000/svg">
<path d="M140.312 50.624L144.196 53.4364C150.952 58.8854 154.836 65.0375 155.68 72.0684C162.943 70.6622 172.231 71.7169 176.285 74.5293L180 76.8143L179.324 78.2205C178.142 80.8571 177.804 81.5602 177.636 81.9118C171.049 95.0948 158.045 95.2706 151.965 95.0948C136.596 133.589 103.832 154.858 59.5843 154.858C39.1491 154.858 23.6116 148.354 13.1406 135.523C-0.708026 118.649 -0.708027 96.6768 0.474176 89.6458L0.811948 88.2396H122.917C129.334 88.2396 134.232 86.4819 136.596 85.0757C134.063 81.2087 133.219 76.8143 133.05 74.3535C132.543 67.3225 134.232 59.94 137.61 54.6668L140.312 50.624ZM32.5625 67.1467V84.7242H13.9851V67.1467H32.5625ZM54.5177 67.1467V84.7242H35.9402V67.1467H54.5177ZM76.4729 67.1467V84.7242H57.8954V67.1467H76.4729ZM98.4281 67.1467V84.7242H79.8506V67.1467H98.4281ZM120.383 67.1467V84.7242H101.806V67.1467H120.383ZM98.4281 46.0538V63.6313H79.8506V46.0538H98.4281ZM76.4729 46.0538V63.6313H57.8954V46.0538H76.4729ZM54.5177 46.0538V63.6313H35.9402V46.0538H54.5177ZM98.4281 24.9609V42.5384H79.8506V24.9609H98.4281Z" fill="#2396ED"/>
</svg>
