<svg width="180" height="180" viewBox="0 0 180 180" fill="none" xmlns="http://www.w3.org/2000/svg">
<g clip-path="url(#clip0_406_598)">
<path d="M180 90.0028C180 40.2961 139.705 0 89.9986 0C40.3144 0 0.0351563 40.2623 0 89.9395V159.587C0.0267187 170.866 9.17508 179.998 20.4616 179.998H90.0352C139.725 179.978 180 139.696 180 90.0028Z" fill="#294172"/>
<path d="M116.423 21.3096C93.1437 21.3096 74.2044 40.2483 74.2044 63.5287V85.9373H51.8886C28.6088 85.9373 9.66943 104.877 9.66943 128.157C9.66943 151.436 28.6088 170.376 51.8886 170.376C75.1683 170.376 94.1077 151.436 94.1077 128.157V105.748H116.423C139.703 105.748 158.643 86.8085 158.643 63.5287C158.643 40.2483 139.703 21.3096 116.423 21.3096ZM74.3605 128.157C74.3605 140.548 64.2797 150.628 51.8886 150.628C39.4974 150.628 29.4167 140.548 29.4167 128.157C29.4167 115.766 39.4974 105.685 51.8886 105.685H74.2044V105.748H74.3605V128.157ZM116.423 86.0006H94.1077V85.9373H93.9523V63.5287C93.9523 51.1376 104.033 41.0569 116.423 41.0569C128.814 41.0569 138.895 51.1376 138.895 63.5287C138.895 75.9199 128.814 86.0006 116.423 86.0006Z" fill="#3C6EB4"/>
<path d="M125.755 22.59C122.478 21.7336 119.962 21.3342 116.424 21.3342C93.096 21.3342 74.1833 40.2476 74.1833 63.5737V85.9627H56.4927C50.9767 85.9627 46.5188 90.2974 46.5224 95.8036C46.5224 101.275 50.9309 105.628 56.3886 105.628L71.0354 105.631C72.7742 105.631 74.1847 107.037 74.1847 108.773V128.147C74.1629 140.445 64.187 150.407 51.8886 150.407C47.7226 150.407 46.6911 149.861 43.847 149.861C37.8725 149.861 33.8752 153.866 33.8752 159.373C33.8767 163.929 37.7804 167.845 42.5574 169.095C45.834 169.952 48.3498 170.352 51.8886 170.352C75.2162 170.352 94.1288 151.438 94.1288 128.111V105.723H111.819C117.335 105.723 121.793 101.389 121.79 95.8823C121.79 90.4099 117.381 86.0576 111.924 86.0576L97.2767 86.0548C95.5379 86.0548 94.1274 84.6478 94.1274 82.9118V63.5386C94.1492 51.2402 104.125 41.2784 116.424 41.2784C120.59 41.2784 121.621 41.8247 124.465 41.8247C130.44 41.8247 134.437 37.819 134.437 32.3128C134.435 27.7566 130.532 23.8402 125.755 22.59Z" fill="white"/>
</g>
<defs>
<clipPath id="clip0_406_598">
<rect width="180" height="180" fill="white"/>
</clipPath>
</defs>
</svg>
