<svg width="180" height="180" viewBox="0 0 180 180" fill="none" xmlns="http://www.w3.org/2000/svg">
<path d="M60.2344 180C76.7944 180 90.2344 166.56 90.2344 150V120H60.2344C43.6744 120 30.2344 133.44 30.2344 150C30.2344 166.56 43.6744 180 60.2344 180Z" fill="#0ACF83"/>
<path d="M30.2344 90C30.2344 73.44 43.6744 60 60.2344 60H90.2344V120H60.2344C43.6744 120 30.2344 106.56 30.2344 90Z" fill="#A259FF"/>
<path d="M30.2344 30C30.2344 13.44 43.6744 0 60.2344 0H90.2344V60H60.2344C43.6744 60 30.2344 46.56 30.2344 30Z" fill="#F24E1E"/>
<path d="M90.2344 0H120.234C136.794 0 150.234 13.44 150.234 30C150.234 46.56 136.794 60 120.234 60H90.2344V0Z" fill="#FF7262"/>
<path d="M150.234 90C150.234 106.56 136.794 120 120.234 120C103.674 120 90.2344 106.56 90.2344 90C90.2344 73.44 103.674 60 120.234 60C136.794 60 150.234 73.44 150.234 90Z" fill="#1ABCFE"/>
</svg>
