<svg width="180" height="181" viewBox="0 0 180 181" fill="none" xmlns="http://www.w3.org/2000/svg">
<path d="M70.4311 104.574C66.8078 101.723 62.9413 98.9917 60.2997 95.1426C54.7398 88.3552 50.4601 80.4983 47.5343 72.2402C45.7649 66.87 45.1596 61.1128 42.8776 55.951C40.4937 52.2008 43.2883 48.1041 47.3955 46.9127C49.2227 46.5606 52.4379 44.8355 48.5571 46.0698C45.0769 48.6217 44.7415 43.7511 48.3095 43.4425C50.7445 43.1196 51.6409 41.1269 50.8073 39.3334C48.1925 37.6275 57.1455 35.7561 52.6401 33.2116C47.9499 28.1494 59.2035 27.1751 56.4264 32.9248C55.7625 37.3457 64.2925 32.1129 62.3117 37.2187C64.3243 39.6712 69.8457 37.778 69.7069 41.2165C72.6378 41.4181 73.6438 43.8824 76.3923 44.0721C79.2454 45.3599 84.4122 46.3734 85.3815 49.586C82.5533 51.8244 76.006 44.9617 75.6899 51.1588C76.5454 60.3153 76.327 69.7473 79.6759 78.4665C81.2599 83.7452 85.1021 87.9004 88.5699 92.0127C91.8895 96.0391 96.3857 98.8754 100.969 101.262C104.988 103.157 109.322 104.414 113.703 105.204C115.479 103.845 118.617 98.7926 121.387 100.922C121.521 103.318 115.888 105.928 121.123 105.663C124.199 104.735 126.331 108.039 128.863 105.057C131.196 107.821 138.559 103.293 136.899 108.941C134.654 110.39 131.38 109.514 129.133 111.508C125.427 109.656 122.476 113.163 118.372 112.72C113.815 113.536 109.178 113.865 104.559 113.872C96.9785 113.274 89.2386 113.021 82.0282 110.382C77.9651 109.201 74.0015 106.888 70.4311 104.574ZM76.8322 107.349C80.7982 109.063 84.6772 110.871 89.0246 111.417C95.9215 112.375 103.044 113.852 109.965 112.506C106.833 111.092 103.594 113.056 100.473 111.495C96.7309 112.3 92.7139 111.289 88.9077 110.79C84.582 108.864 79.9117 107.539 75.8604 105.036C70.7957 103.187 78.4777 107.408 79.8458 107.751C83.0099 109.546 76.3656 106.829 75.4274 106.083C72.7765 104.596 72.4387 104.907 75.1655 106.416C75.7142 106.737 76.2567 107.075 76.8322 107.349ZM69.2839 102.015C73.1286 103.439 69.2671 99.3127 67.5077 99.551C66.7276 98.1973 64.5258 97.3418 66.0787 96.6152C63.2866 97.5851 63.1528 92.9285 61.8407 93.5948C58.8856 92.6616 60.691 89.3562 57.1698 87.3249C56.8488 85.1861 53.6728 83.3321 52.6619 80.107C52.2146 78.4546 49.0722 73.7134 51.002 78.1262C52.6444 82.3741 55.5342 86.0147 57.94 89.648C59.8064 93.1083 62.0131 96.7272 65.413 98.8853C66.5602 99.9859 67.6657 101.67 69.2839 102.015ZM58.2125 89.857C58.3456 89.2759 58.9149 91.1131 58.2125 89.857V89.857ZM73.8895 103.721C74.7399 103.34 72.6645 103.24 73.8895 103.721V103.721ZM75.9743 104.482C75.7584 103.432 75.0218 105.07 75.9743 104.482V104.482ZM78.5872 105.571C79.829 104.387 76.6698 104.824 78.5872 105.571V105.571ZM83.0634 108.066C83.8193 106.951 80.6452 107.646 83.0634 108.066V108.066ZM74.4681 102.074C76.3973 100.825 71.9721 102.056 74.4681 102.074V102.074ZM76.4265 103.05C76.3705 102.392 75.7291 103.347 76.4265 103.05V103.05ZM86.2176 109.162C87.7922 110.156 95.4114 111.34 90.6409 109.57C89.8409 109.738 81.7949 107.293 86.2176 109.162ZM70.6743 97.055C70.5213 96.3943 68.2294 96.3234 70.6743 97.055V97.055ZM75.2308 99.714C76.4191 98.8853 72.769 99.0745 75.2308 99.714V99.714ZM79.0656 102.064C80.769 101.422 76.3052 101.42 79.0656 102.064V102.064ZM68.8173 95.0356C70.6644 96.4522 76.2685 95.2179 71.6461 94.1901C69.5439 93.0697 64.8052 92.302 68.0353 94.8658L68.8173 95.0356ZM81.6636 102.876C82.4338 101.565 78.436 102.127 81.6636 102.876V102.876ZM77.7604 99.7744C82.2758 101.05 73.9623 96.9163 76.6455 99.3028L77.2409 99.5728L77.7604 99.7744ZM85.5861 104.297C89.8633 104.338 81.7221 103.707 85.5861 104.297V104.297ZM67.1724 92.5614C67.0044 91.7645 66.1179 92.6273 67.1724 92.5614V92.5614ZM92.8209 108.355C92.9347 106.917 91.4254 109.427 92.8209 108.355V108.355ZM74.4724 97.0308C74.2124 96.2724 73.1361 96.999 74.4724 97.0308V97.0308ZM67.578 92.0612C70.0329 91.9131 64.2148 90.9799 67.578 92.0612V92.0612ZM59.4101 86.7825C59.104 85.6041 56.7393 84.666 59.4101 86.7825V86.7825ZM80.8517 100.39C80.4026 99.8764 80.6402 100.501 80.8517 100.39V100.39ZM94.1958 108.579C94.1547 107.794 93.4691 108.875 94.1958 108.579V108.579ZM79.6709 99.1696C79.9117 98.1587 77.5762 98.8629 79.6709 99.1696V99.1696ZM69.7287 92.8681C71.5565 92.6734 66.8003 91.6332 69.7287 92.8681V92.8681ZM86.5461 103.318C89.3942 102.19 83.7708 102.769 86.5461 103.318V103.318ZM77.7996 97.381C81.0801 97.8035 73.8945 95.1476 77.0779 97.1428L77.7996 97.381ZM89.2019 104.392C92.2665 102.562 91.2556 108.681 94.4004 104.909C97.5011 102.645 91.7222 107.709 95.5427 105.313C98.308 103.464 102.39 106.19 104.969 107.078C106.823 106.987 108.627 108.681 110.529 107.65C114.189 106.664 103.37 106.188 106.206 104.44C102.857 105.415 100.383 103.279 98.7354 101.133C94.9784 100.265 90.6359 98.3453 88.7596 95.0188C87.9944 93.7721 89.8633 95.1961 88.0989 93.1549C85.8362 91.1423 84.7064 88.8554 83.1872 86.4086C81.3718 85.4411 81.1578 82.5906 80.9755 86.314C80.9905 83.9636 78.7838 82.3815 78.2444 83.0379C78.2344 80.7752 80.6066 81.9099 78.9468 80.2358C78.5897 77.8904 77.4132 75.446 77.0605 72.797C76.5118 71.521 76.9827 68.7874 75.1848 71.6766C74.5309 74.7312 74.9683 67.9245 75.9867 70.1673C77.323 67.8785 75.5052 68.1478 75.4324 68.4639C76.3027 66.5322 75.9842 63.7905 75.2041 64.8356C75.6682 62.787 75.9382 57.2973 74.5116 58.2716C75.3764 56.1283 76.1522 48.4681 72.3945 51.3896C70.8734 51.4114 68.2368 51.9414 66.9926 52.561C70.8977 54.7142 66.5988 53.3387 65.0068 52.9959C64.8002 54.9886 63.2256 54.1282 61.2572 54.1475C64.402 54.5363 59.7261 57.3626 57.9257 56.2646C55.5828 57.3825 59.9451 60.1771 57.9717 61.0419C58.215 62.3421 54.3845 60.5709 54.6838 63.5796C52.4111 62.6215 54.3727 67.1468 55.51 65.6158C59.3765 66.6634 58.2318 69.0474 58.3288 71.3145C57.6992 72.634 55.2182 68.2113 57.777 68.4154C55.7576 65.1367 55.5442 67.2296 53.8669 68.7532C53.4781 68.8627 58.1441 70.9207 55.2157 71.9366C57.7919 72.3354 57.8672 74.5906 58.3923 76.0171C59.9401 77.6303 59.6216 74.2354 61.4762 76.1752C60.3022 74.4469 55.2642 71.307 59.3205 72.3136C59.2987 70.576 58.5864 69.1737 59.8306 69.2073C61.0631 66.9789 58.5404 74.7045 61.3157 71.8713C62.0834 71.536 62.2756 69.6403 63.6561 72.0511C65.6606 74.0245 64.3803 75.4529 61.5515 73.645C62.0566 75.3633 65.3352 75.9755 64.7181 78.6612C65.3713 81.0234 66.2852 80.1531 67.0822 80.0168C67.7068 82.3112 68.062 80.6246 68.0913 79.5309C70.9512 80.1437 70.2805 81.8347 71.177 83.0161C73.1479 83.9051 68.3557 76.9864 71.7388 80.9357C75.2986 84.1508 73.0751 85.4922 69.8799 84.977C71.9018 84.814 72.5525 87.7113 75.0827 87.6093C77.389 88.7073 78.9518 92.9216 74.9757 91.1666C73.5977 89.9223 68.7153 88.3888 72.7037 90.7535C76.383 92.4594 79.3089 93.4778 82.8593 95.6192C85.3989 97.432 86.4969 99.5093 87.4594 99.9206C85.3236 100.941 81.0247 99.1062 84.2175 98.545C82.2248 98.183 79.9845 97.1745 81.8919 99.6555C83.5151 101.012 87.6392 100.868 88.3807 101.021C87.7536 102.402 86.6773 102.511 88.405 102.618C86.4776 103.646 89.0246 103.806 89.2019 104.392ZM85.2601 93.2594C84.0862 92.032 83.7826 89.7357 85.0511 91.7327C85.7025 91.9953 87.134 95.4879 85.2601 93.2594ZM98.099 101.415C98.8306 101.366 98.1208 101.971 98.099 101.415V101.415ZM83.4087 90.2508C83.362 88.3963 83.8311 91.6817 83.4087 90.2508V90.2508ZM82.1327 88.535C80.6551 85.6844 83.9916 89.3419 82.1327 88.535V88.535ZM66.6666 77.8618C67.5345 77.6303 67.0946 79.3437 66.6666 77.8618V77.8618ZM78.976 84.5322C79.5079 82.5321 79.6006 86.2095 78.976 84.5322V84.5322ZM70.2805 78.4857C69.6684 77.3827 71.5615 79.5216 70.2805 78.4857V78.4857ZM77.7411 80.8772C76.3438 77.7473 78.7328 79.1664 78.0522 81.3898L77.7411 80.8772ZM64.8736 72.2962C64.249 71.2684 63.2163 68.2548 63.5491 67.3341C63.8477 68.8334 66.735 73.7837 64.9632 69.3853C63.0072 65.6985 67.3037 70.5804 67.746 71.5017C67.9525 72.4156 66.5378 71.2516 67.4953 73.3974C65.7483 70.9549 66.465 74.7461 64.8736 72.2962ZM60.8976 69.5551C61.0606 67.1661 61.8065 71.1932 60.8976 69.5551V69.5551ZM62.6862 70.1722C63.5392 68.3693 64.132 72.685 62.6862 70.1722V70.1722ZM58.3823 66.8432C56.9023 65.37 55.8304 64.0144 58.4526 65.9293C59.4611 65.9679 56.2074 62.8454 58.6959 64.9377C61.3107 65.4142 59.9862 69.2272 58.3823 66.8432ZM60.6425 66.7848C61.5029 65.9318 61.0992 67.6234 60.6425 66.7848V66.7848ZM62.0348 67.2296C60.7296 64.7871 63.6169 68.2549 62.0348 67.2296V67.2296ZM59.2695 64.588C54.9656 60.7551 64.6764 66.59 59.9719 65.2973L59.2695 64.588ZM71.6026 71.7518C69.7387 70.6364 71.1067 63.8906 71.7438 68.5031C73.5542 67.917 71.6436 70.8871 72.9924 70.8578C72.7815 72.7311 72.1762 73.4048 71.6026 71.7518ZM76.164 74.4494C76.3463 72.4156 76.5479 75.8398 76.164 74.4494V74.4494ZM75.372 73.6643C75.5761 72.797 75.3913 74.6877 75.372 73.6643V73.6643ZM60.1125 63.3288C57.3471 59.5133 68.1491 67.1879 61.8843 64.2962C61.2304 64.1239 60.441 64.063 60.1125 63.3288ZM68.8975 67.9855C68.6356 64.7728 69.4811 68.5174 68.8975 67.9855V67.9855ZM75.5661 72.2645C76.0813 70.4348 75.6053 73.4751 75.5661 72.2645V72.2645ZM60.538 61.8731C62.181 61.5209 67.3472 64.7579 62.6035 62.7969C62.0765 62.2134 60.9511 62.4784 60.538 61.8731ZM74.6497 68.9062C74.8252 65.6208 75.6321 66.9453 74.6572 69.3778L74.6497 68.9062ZM61.7605 60.729C62.4311 59.7466 59.9812 56.2888 62.1126 59.4891C63.034 60.2207 64.7784 60.714 63.238 61.0226C65.6606 63.159 62.6476 61.6012 61.7605 60.729ZM73.9523 67.881C74.4146 64.1382 74.3611 70.0727 73.9523 67.881V67.881ZM60.3607 57.273C60.8733 57.0541 60.6326 57.9555 60.3607 57.273V57.273ZM63.5416 59.1662C64.3604 57.4479 65.0509 61.0811 63.5416 59.1662V59.1662ZM72.5115 64.155C72.504 63.4968 72.6813 65.115 72.5115 64.155V64.155ZM71.9914 63.006C70.7471 59.9339 73.1504 64.6316 71.9914 63.006V63.006ZM71.228 60.9909C71.0196 59.7224 71.9379 62.5854 71.228 60.9909V60.9909ZM72.4723 58.969C71.6169 57.4647 73.5517 52.3346 73.7682 55.5162C72.8661 57.9947 73.5081 59.3802 74.1346 56.0555C75.2968 53.4407 73.8845 61.2198 72.4723 58.969ZM73.7508 51.3411C74.1228 50.8838 73.8335 51.8923 73.7508 51.3411V51.3411ZM71.615 93.415C71.1092 92.9726 71.6803 93.6943 71.615 93.415V93.415ZM76.0134 95.6384C78.4603 96.268 78.4485 95.259 76.2368 94.9578C75.0485 93.8523 71.294 92.6784 74.6547 94.8216C74.8762 95.3859 75.5786 95.3709 76.0134 95.6384ZM67.3279 89.8688C68.6742 90.8754 72.4045 92.7169 69.2478 90.2533C70.3123 89.0159 67.211 88.3577 68.2393 87.529C65.622 85.927 66.1732 86.0707 68.0085 86.1217C64.8637 84.7145 68.4627 84.8215 68.2928 84.0998C67.0803 83.8616 62.2681 81.961 65.0994 84.2554C62.2221 82.7896 64.4139 84.8022 63.5441 84.5907C60.6008 83.7888 66.1639 86.8316 63.0775 86.0757C64.7641 87.412 67.6197 89.5024 63.7892 87.4898C63.2866 88.2165 66.531 89.3176 67.3279 89.8688ZM71.9279 92.5129C77.5202 94.3139 69.1843 90.3087 71.9279 92.5129V92.5129ZM95.4767 106.778C95.5495 105.668 94.7134 107.726 95.4767 106.778V106.778ZM97.8974 107.797C99.1877 106.547 97.9509 109.789 100.036 107.491C100.057 105.845 99.9728 104.873 97.6399 106.873C96.9953 107.231 96.7092 108.744 97.8974 107.797ZM59.476 83.6675C59.0797 82.1096 56.6982 82.1165 59.476 83.6675V83.6675ZM62.0591 85.3609C61.0992 83.7695 58.6349 83.92 62.0591 85.3609V85.3609ZM76.7644 94.2287C78.2008 95.5047 83.3577 95.1644 78.5069 94.3867C77.7896 93.3248 73.948 93.5798 76.7644 94.2287ZM96.9761 106.713C99.1852 104.858 94.8353 107.539 96.9761 106.713V106.713ZM101.572 109.87C101.586 109.274 100.619 110.13 101.572 109.87V109.87ZM101.579 109.036C104.026 106.445 99.2095 109.189 101.579 109.036V109.036ZM53.1185 78.3452C51.0338 75.3708 51.8232 74.0338 49.8113 71.6038C49.4293 69.7448 46.3603 65.5305 48.2242 69.9949C49.9301 72.6073 50.4359 76.6511 53.1185 78.3452ZM100.811 108.212C105.314 105.303 98.9644 106.946 100.811 108.212V108.212ZM104.247 109.559C106.503 107.624 102.821 109.155 104.247 109.559V109.559ZM58.7102 80.3789C59.3547 79.4189 57.0435 80.2551 58.7102 80.3789V80.3789ZM103.53 108.64C105.713 107.233 103.028 107.449 103.135 108.768L103.53 108.64ZM73.9113 89.9709C73.836 89.0184 72.7572 90.0511 73.9113 89.9709V89.9709ZM75.741 91.0235C75.158 89.8471 74.847 91.2083 75.741 91.0235V91.0235ZM107.032 109.59C109.829 107.573 105.339 109.203 106.447 109.974L107.032 109.59ZM105.961 109.073C108.24 107.165 103.557 109.918 105.961 109.073V109.073ZM111.433 112.715C112.962 111.692 109.574 112.385 111.433 112.715V112.715ZM60.1125 79.6865C62.1611 80.1456 68.3047 84.7338 64.6814 80.005C62.8249 79.4556 63.9379 74.9185 62.0448 75.7204C63.3158 77.8443 63.0894 78.7458 60.421 77.4095C57.0703 75.7714 58.5379 78.2189 59.1942 78.8945C58.2996 79.0985 60.375 79.6697 60.1125 79.6865ZM50.7737 72.3111C51.1401 70.7919 47.3931 63.9609 49.0044 68.8869C49.5848 69.9197 49.5245 71.8756 50.7737 72.3111ZM67.9158 82.8798C66.8588 81.9977 67.8648 82.7535 67.9158 82.8798V82.8798ZM70.5138 83.4852C70.5138 81.8763 67.6415 82.8313 70.5138 83.4852V83.4852ZM93.0417 97.6846C92.6118 96.5859 91.3433 97.6604 93.0417 97.6846V97.6846ZM94.123 98.4741C93.9625 97.8594 93.4984 98.5936 94.123 98.4741V98.4741ZM103.052 104.1C103.91 103.466 101.98 104.018 103.052 104.1V104.1ZM55.4372 73.5019C57.894 72.5513 52.805 72.8238 55.4372 73.5019V73.5019ZM91.0584 95.942C91.0298 94.3525 89.4912 96.3383 91.0584 95.942V95.942ZM54.4673 71.2392C56.0444 70.7073 53.0065 70.8896 54.4673 71.2392V71.2392ZM59.0455 73.4577C59.0188 72.9357 58.5621 73.6574 59.0455 73.4577V73.4577ZM114.904 107.711C116.933 107.301 121.558 108.744 122.304 107.175C119.839 107.114 113.781 105.434 113.494 107.573L114.034 107.658L114.904 107.711ZM60.5013 73.8248C60.538 72.2135 59.2452 73.7644 60.5013 73.8248V73.8248ZM48.4625 65.4727C47.9156 62.4031 46.3821 65.008 48.4625 65.4727V65.4727ZM51.3324 66.1944C51.3691 65.2077 48.7051 65.3072 51.3324 66.1944V66.1944ZM52.9729 67.0013C52.4989 66.6168 52.6034 67.4847 52.9729 67.0013V67.0013ZM63.2984 73.6232C63.7849 73.1759 62.1468 73.2928 63.2984 73.6232V73.6232ZM51.8817 65.1834C51.6024 62.8647 48.5546 64.8356 51.8817 65.1834V65.1834ZM45.9933 61.3629C45.9105 60.2935 45.4197 61.7661 45.9933 61.3629V61.3629ZM46.8705 60.7022C46.7274 59.4331 46.1171 60.8621 46.8705 60.7022V60.7022ZM51.7069 63.5889C53.7531 62.787 47.981 61.9266 51.2888 63.4383L51.7069 63.5889ZM116.457 103.585C117.766 102.385 114.794 103.213 116.457 103.585V103.585ZM124.279 107.639C124.804 106.088 122.957 107.843 124.279 107.639V107.639ZM52.2021 61.0543C52.4186 59.5525 50.579 61.353 52.2021 61.0543V61.0543ZM45.3176 56.4419C44.9481 54.3229 44.9991 50.602 48.5353 51.8587C43.8158 52.7968 51.8039 57.7272 50.7955 53.8339C52.7807 53.9316 54.6788 52.6606 53.6361 54.5873C57.5487 54.1574 60.2587 50.765 64.0375 51.2415C66.9801 50.8502 70.1978 50.5559 73.3694 49.3701C75.9767 49.1829 78.487 46.3758 77.0586 44.711C73.5032 44.4099 69.7797 44.8547 65.8504 45.6374C61.4955 46.5413 57.5393 48.2615 53.1453 49.0006C48.8607 49.5767 54.0057 50.5852 52.7782 50.811C50.5448 51.5862 55.444 52.1088 52.4889 52.9275C50.6642 52.5803 48.7636 51.9532 49.5438 50.0284C45.4414 50.5634 41.835 52.2643 45.0769 56.4394L45.3176 56.4419ZM55.2064 51.4064C56.1663 47.8634 60.3582 54.3229 56.781 51.8779C56.3554 51.5569 55.6506 51.2969 55.2064 51.4064ZM55.393 49.6881C56.781 48.6553 56.1296 50.2691 55.393 49.6881V49.6881ZM57.1549 49.7173C57.2818 48.0867 61.1919 50.5802 57.7994 50.3033L57.1549 49.7173ZM59.5656 48.748C60.4478 47.7172 59.8213 49.6613 59.5656 48.748V48.748ZM60.1834 48.3349C61.651 46.5731 68.4869 47.2095 63.4832 48.162C62.1419 47.151 61.1141 48.7574 60.1834 48.3349ZM69.1066 46.9594C68.8857 42.1448 73.5417 48.6678 69.1066 46.9594V46.9594ZM71.6393 46.9445C72.565 44.5194 75.2333 45.9702 72.0692 46.4561C72.137 46.7161 71.9746 47.7103 71.6393 46.9445ZM51.2036 59.8101C53.969 58.116 48.2678 58.34 51.2036 59.8101V59.8101ZM53.2498 60.3762C54.2197 59.346 51.1401 59.9581 53.2498 60.3762V60.3762ZM47.2232 56.1016C48.8028 54.8866 45.3519 55.64 47.2232 56.1016V56.1016ZM128.897 107.196C128.943 105.787 127.689 107.83 128.897 107.196V107.196ZM120.598 101.531C120.833 99.9106 119.531 101.672 120.598 101.531V101.531ZM131.179 107.743C133.388 107.751 137.874 107.055 133.067 107.058C132.311 107.175 128.671 107.15 131.179 107.743ZM55.0483 59.3821C56.837 59.2607 57.8454 57.4112 54.7006 57.5157C49.8281 57.013 58.9995 59.1855 54.076 58.5633C53.4153 59.0007 55.0092 59.504 55.0483 59.3821ZM56.623 60.1796C56.4357 59.0324 56.0686 60.7893 56.623 60.1796V60.1796ZM58.4918 55.1976C59.267 54.2352 57.4174 54.9401 58.4918 55.1976V55.1976ZM52.5424 45.2554C55.7358 44.1716 60.1006 42.9517 61.6074 45.7904C60.0739 43.9458 60.9878 42.128 62.4361 44.828C64.4848 47.5573 65.5101 43.5862 64.1781 42.6698C65.6973 44.5555 67.4225 45.4476 65.194 42.7893C67.6172 39.8752 60.3458 43.1706 58.6934 43.1364C57.8989 43.4935 50.4844 45.0271 52.5424 45.2554ZM54.4138 41.6738C56.2341 40.3008 60.7103 42.4925 57.838 40.3076C57.5561 40.06 51.5489 41.965 54.4138 41.6738ZM61.0506 41.9482C63.1796 42.0017 60.1324 39.0851 62.6694 40.4071C62.2538 39.0466 59.7143 38.7915 58.4725 38.2471C57.7702 39.4914 59.9009 41.965 61.0506 41.9482ZM55.5778 35.9235C56.3144 34.925 54.285 36.4317 55.5778 35.9235V35.9235ZM58.2903 36.5723C61.7238 36.1182 57.4149 35.0948 57.5972 36.5363L58.2903 36.5723ZM53.2255 32.6113C50.8073 29.4546 57.7726 33.1413 55.3152 29.8359C53.2473 28.191 51.2621 31.6905 53.2255 32.6113ZM84.2467 49.3191C85.3553 47.3551 79.6709 46.6701 83.5008 48.6236C83.8529 48.7406 83.7733 49.4548 84.2467 49.3191Z" fill="white"/>
<path d="M61.7371 122.466C61.4921 123.435 61.3399 125.06 61.2829 127.341C61.2829 127.789 61.0811 128.014 60.6767 128.014C60.2718 128.014 59.9903 127.818 59.8308 127.428C59.3975 126.374 58.9868 125.638 58.5955 125.218C58.1337 124.728 57.5197 124.431 56.7539 124.33C55.9308 124.2 53.8801 124.135 50.6014 124.135C49.8507 124.135 49.3588 124.215 49.1284 124.374C48.984 124.475 48.912 124.691 48.912 125.024V134.839C48.912 135.171 49.1211 135.329 49.539 135.316C50.8256 135.301 52.6883 135.213 55.1288 135.055C55.6057 134.997 55.9277 134.842 56.0933 134.589C56.2605 134.336 56.4231 133.683 56.581 132.628C56.6815 132.05 57.0216 131.826 57.5994 131.957C58.0901 132.058 58.3008 132.282 58.2284 132.628C57.8236 134.593 57.6926 137.15 57.8371 140.299C57.8525 140.673 57.6144 140.876 57.1226 140.905C56.7177 140.949 56.465 140.732 56.3641 140.255C55.9897 138.45 55.2914 137.485 54.2741 137.362C53.2557 137.24 51.5975 137.178 49.3014 137.178C49.0414 137.178 48.912 137.272 48.912 137.46V147.21C48.912 147.932 49.1781 148.424 49.7124 148.683C50.1322 148.899 51.0347 149.095 52.4206 149.268C53.1293 149.34 53.439 149.652 53.3535 150.199C53.2661 150.676 52.6313 150.864 51.4457 150.763C48.0226 150.488 45.1984 150.503 42.9747 150.807C42.353 150.893 42.0434 150.64 42.0434 150.049C42.0434 149.673 42.353 149.456 42.9747 149.399C44.3903 149.239 45.0975 147.997 45.0975 145.672V127.124C45.0975 126.172 44.9276 125.439 44.589 124.926C44.2489 124.413 43.6168 123.946 42.6932 123.528C42.1154 123.268 41.8989 122.915 42.0434 122.466C42.1154 122.192 42.2313 122.04 42.3892 122.012C42.5337 121.968 42.9173 121.997 43.5371 122.099C44.4477 122.243 46.5932 122.316 49.9724 122.316C53.9598 122.316 57.4037 122.228 60.308 122.055C61.2752 121.997 61.7598 122.076 61.7598 122.293C61.7598 122.352 61.7525 122.409 61.7371 122.466Z" fill="white"/>
<path d="M75.788 149.971C75.788 150.548 75.4629 150.801 74.8131 150.729C72.8209 150.541 70.3503 150.569 67.4041 150.815C66.8113 150.873 66.4473 150.858 66.309 150.773C66.1719 150.685 66.1041 150.447 66.1041 150.056C66.1041 149.71 66.497 149.418 67.2839 149.179C68.0724 148.941 68.4649 148.23 68.4649 147.046V127.437C68.4649 126.267 68.295 125.407 67.9564 124.858C67.6163 124.309 67.0204 123.883 66.1688 123.581C65.7204 123.421 65.4962 123.197 65.4962 122.908C65.4962 122.475 65.8213 122.15 66.4711 121.933C67.4538 121.616 68.4726 121.125 69.5272 120.46C70.3939 119.94 70.9431 119.681 71.1731 119.681C71.7073 119.681 71.9754 120.048 71.9754 120.785C71.9754 120.728 71.9465 121.45 71.888 122.952C71.846 124.381 71.831 125.789 71.846 127.177L71.9315 146.525C71.9315 147.406 72.1484 148.046 72.5817 148.443C73.015 148.84 73.7596 149.104 74.8131 149.233C75.4629 149.305 75.788 149.551 75.788 149.971Z" fill="white"/>
<path d="M95.3843 148.693C95.3843 148.997 94.8319 149.454 93.7276 150.068C92.6217 150.682 91.7369 150.989 91.0733 150.989C90.509 150.989 90.0113 150.715 89.578 150.166C89.1447 149.617 88.8404 149.343 88.6674 149.343C88.538 149.343 87.852 149.639 86.609 150.231C85.3679 150.823 84.1176 151.12 82.8611 151.12C81.6771 151.12 80.6868 150.773 79.8925 150.08C79.0259 149.314 78.5925 148.275 78.5925 146.96C78.5925 144.461 81.4529 142.67 87.1733 141.587C88.1543 141.399 88.6539 141.001 88.6674 140.395L88.7113 139.008C88.7984 136.639 87.7511 135.455 85.5694 135.455C84.9481 135.455 84.3599 136.01 83.8029 137.122C83.2479 138.236 82.449 138.835 81.409 138.922C80.2249 139.036 79.6321 138.538 79.6321 137.426C79.6321 136.733 80.5138 135.925 82.2757 134.999C84.1249 134.032 85.9022 133.547 87.6066 133.547C90.5379 133.547 91.9896 134.942 91.9611 137.73L91.8737 146.656C91.8602 147.595 92.2577 148.064 93.0655 148.064C93.2249 148.064 93.5288 148.028 93.9756 147.956C94.4244 147.884 94.6844 147.847 94.7568 147.847C95.1751 147.847 95.3843 148.13 95.3843 148.693ZM88.7113 143.753C88.7263 143.392 88.642 143.153 88.4613 143.038C88.2807 142.923 87.9964 142.9 87.6066 142.973C84.1249 143.594 82.3843 144.728 82.3843 146.375C82.3843 148.035 83.2868 148.866 85.0925 148.866C85.8147 148.866 86.5597 148.729 87.3239 148.455C88.2206 148.136 88.6674 147.754 88.6674 147.306L88.7113 143.753Z" fill="white"/>
<path d="M111.493 146.2C111.493 147.732 110.903 148.949 109.726 149.852C108.549 150.754 106.942 151.206 104.905 151.206C103.548 151.206 102.189 151.061 100.832 150.773C99.6617 150.512 98.983 150.275 98.7951 150.058C98.6791 149.855 98.6221 148.866 98.6221 147.089C98.6221 146.323 98.7951 145.926 99.1425 145.898C99.4888 145.854 99.785 146.042 100.03 146.46C101.114 148.353 102.862 149.3 105.274 149.3C107.31 149.3 108.328 148.591 108.328 147.175C108.328 146.555 108.098 146.034 107.635 145.616C107.129 145.139 106.148 144.583 104.689 143.947C102.579 143.009 101.171 142.186 100.464 141.477C99.6976 140.726 99.3155 139.715 99.3155 138.444C99.3155 136.883 99.9144 135.671 101.114 134.804C102.226 133.966 103.714 133.547 105.576 133.547C106.747 133.547 107.815 133.641 108.784 133.829C109.824 134.017 110.366 134.247 110.409 134.522C110.524 135.331 110.763 136.501 111.124 138.033C111.168 138.219 110.964 138.372 110.517 138.487C110.041 138.588 109.723 138.508 109.564 138.249C108.423 136.385 106.979 135.454 105.23 135.454C103.252 135.454 102.262 136.089 102.262 137.36C102.262 138.069 102.529 138.632 103.064 139.05C103.541 139.411 104.66 139.975 106.422 140.741C108.271 141.535 109.527 142.25 110.193 142.885C111.059 143.708 111.493 144.814 111.493 146.2Z" fill="white"/>
<path d="M136.983 149.992C136.983 150.497 136.643 150.765 135.964 150.794C134.953 150.809 133.63 150.881 131.999 151.01C131.19 151.17 130.612 151.069 130.266 150.708C127.983 148.252 126.047 145.681 124.458 142.994C124.329 142.763 124.163 142.647 123.96 142.647C123.715 142.647 123.289 142.864 122.683 143.298C122.002 143.672 121.664 144.208 121.664 144.9C121.664 145.392 121.677 146.099 121.707 147.025C121.736 147.948 121.966 148.555 122.4 148.844C122.703 149.047 123.405 149.205 124.502 149.321C125.18 149.408 125.52 149.661 125.52 150.079C125.52 150.412 125.466 150.618 125.358 150.696C125.25 150.776 124.963 150.794 124.502 150.75C123.057 150.621 120.617 150.693 117.179 150.967C116.312 151.039 115.843 150.93 115.77 150.642C115.742 150.541 115.727 150.397 115.727 150.208C115.727 149.761 116.168 149.421 117.049 149.191C117.844 148.988 118.241 148.057 118.241 146.396V127.458C118.241 126.274 118.125 125.451 117.893 124.989C117.576 124.397 116.911 123.934 115.9 123.602C115.424 123.444 115.185 123.22 115.185 122.931C115.185 122.511 115.525 122.186 116.203 121.956C117.287 121.595 118.319 121.097 119.302 120.46C120.096 119.941 120.588 119.681 120.774 119.681C121.368 119.681 121.664 120.056 121.664 120.808C121.664 120.706 121.657 121.422 121.641 122.952C121.628 124.007 121.62 125.423 121.62 127.2L121.664 140.762C121.664 141.138 121.765 141.325 121.966 141.325C122.183 141.325 122.516 141.138 122.964 140.762C124.163 139.823 125.636 138.596 127.383 137.079C127.731 136.718 127.903 136.429 127.903 136.212C127.903 135.823 127.318 135.547 126.149 135.389C125.644 135.331 125.404 135.049 125.433 134.544C125.476 134.038 125.729 133.821 126.191 133.894C127.232 134.038 128.749 134.118 130.741 134.133C132.129 134.146 133.508 134.154 134.881 134.154C135.328 134.169 135.552 134.435 135.552 134.956C135.552 135.446 135.198 135.714 134.491 135.758C133.377 135.8 132.33 136.053 131.349 136.516C129.977 137.136 128.51 138.227 126.95 139.787C126.835 139.875 126.776 139.983 126.776 140.112C126.776 140.314 127.022 140.799 127.514 141.564C129.319 144.309 131.024 146.381 132.627 147.783C133.653 148.663 134.613 149.104 135.508 149.104C136.173 149.104 136.585 149.151 136.743 149.245C136.903 149.339 136.983 149.588 136.983 149.992Z" fill="white"/>
</svg>
