<svg width="180" height="180" viewBox="0 0 180 180" fill="none" xmlns="http://www.w3.org/2000/svg">
<path fill-rule="evenodd" clip-rule="evenodd" d="M105.322 20.6277L142.334 41.9972C143.376 40.8933 144.594 39.9186 145.975 39.1164C153.651 34.7038 163.441 37.3238 167.9 45C172.313 52.6762 169.693 62.4668 162.016 66.9254C160.646 67.7132 159.207 68.2769 157.742 68.6276V111.383C159.191 111.735 160.614 112.295 161.97 113.075C169.693 117.533 172.313 127.324 167.854 135C163.441 142.676 153.605 145.296 145.929 140.884C144.4 140.005 143.072 138.912 141.961 137.663L105.174 158.902C105.7 160.491 105.985 162.191 105.985 163.958C105.985 172.783 98.8142 180 89.9429 180C81.0716 180 73.901 172.829 73.901 163.958C73.901 162.381 74.1275 160.858 74.5499 159.419L37.5477 138.055C36.5166 139.138 35.3161 140.094 33.9572 140.884C26.235 145.296 16.4444 142.676 12.0317 135C7.61906 127.324 10.2391 117.533 17.9153 113.075C19.2725 112.294 20.6958 111.734 22.1441 111.383V68.6276C20.6791 68.2769 19.2398 67.7132 17.8693 66.9254C10.1931 62.5128 7.5731 52.6762 11.9858 45C16.3984 37.3238 26.235 34.7038 33.9112 39.1164C35.2847 39.9142 36.4963 40.8827 37.5347 41.9792L74.5568 20.6039C74.13 19.1584 73.901 17.6273 73.901 16.0419C73.901 7.17058 81.0716 0 89.9429 0C98.8142 0 105.985 7.17058 105.985 16.0419C105.985 17.636 105.753 19.1751 105.322 20.6277ZM101.466 27.2117L138.566 48.6322C137.419 52.66 137.84 57.126 140.091 61.0419C142.349 64.9705 146.028 67.5747 150.111 68.5897V111.399C149.903 111.45 149.696 111.505 149.49 111.565L101.035 27.6396C101.181 27.4997 101.325 27.357 101.466 27.2117ZM78.861 27.6493L30.4063 111.573C30.1968 111.512 29.9861 111.455 29.7743 111.403V68.5897C33.8573 67.5747 37.5364 64.9705 39.7947 61.0419C42.0502 57.1183 42.4683 52.6423 41.313 48.6083L78.4028 27.1939C78.5525 27.3487 78.7052 27.5006 78.861 27.6493ZM94.4251 31.4513L142.869 115.356C141.785 116.39 140.829 117.594 140.045 118.958C139.265 120.314 138.705 121.738 138.354 123.187H41.5327C41.1813 121.739 40.6209 120.315 39.8407 118.958C39.0534 117.603 38.0999 116.405 37.0211 115.376L85.4741 31.4552C86.8922 31.8645 88.3915 32.0838 89.9429 32.0838C91.4991 32.0838 93.0031 31.8631 94.4251 31.4513ZM101.806 153.151L138.666 131.869C138.555 131.522 138.456 131.171 138.369 130.817H41.5122C41.4608 131.025 41.4053 131.232 41.3457 131.438L78.3859 152.824C81.3024 149.797 85.3996 147.916 89.9429 147.916C94.6477 147.916 98.8741 149.933 101.806 153.151Z" fill="#E535AB"/>
</svg>
