<svg width="180" height="180" viewBox="0 0 180 180" fill="none" xmlns="http://www.w3.org/2000/svg">
<path d="M154.941 0C163.797 0 170.995 7.10744 171.138 15.9321L171.141 16.2V163.8C171.141 172.657 164.031 179.855 155.208 179.998L154.941 180H25.3406C16.4841 180 9.28587 172.89 9.1428 164.068L9.14062 163.8V16.2C9.14062 7.34123 16.2503 0.145205 25.0728 0.00216997L25.3406 0H154.941ZM154.941 9H25.3406C21.4336 9 18.2418 12.1308 18.143 16.0145L18.1406 16.2V163.8C18.1406 167.707 21.2714 170.899 25.1551 170.998L25.3406 171H154.941C158.85 171 162.04 167.869 162.138 163.985L162.141 163.8V16.2C162.141 12.231 158.912 9 154.941 9ZM49.6406 117L69.8906 135L49.6406 153V117ZM67.6406 27V78.0997C76.6271 75.1747 89.1889 72 101.391 72C112.517 72 119.177 76.374 122.804 80.0437C130.466 87.7954 130.649 97.6487 130.639 98.9628L130.638 99L130.641 153H112.641V99.2475C112.553 95.0467 110.528 90 101.391 90C83.2721 90 62.9705 99.0216 62.3676 99.2915L62.3554 99.297L49.6406 105.057V27H67.6406ZM130.641 27C129.426 37.224 125.281 47.025 117.141 56.25H99.1406C106.215 46.9687 110.656 37.2015 112.641 27H130.641Z" fill="#430098"/>
</svg>
