<svg width="180" height="180" viewBox="0 0 180 180" fill="none" xmlns="http://www.w3.org/2000/svg">
<g clip-path="url(#clip0_406_1525)">
<path d="M0 65.1429C0 42.3407 0 30.9396 4.43759 22.2304C8.34101 14.5695 14.5695 8.34101 22.2304 4.43759C30.9396 0 42.3407 0 65.1429 0H114.857C137.659 0 149.06 0 157.77 4.43759C165.43 8.34101 171.659 14.5695 175.562 22.2304C180 30.9396 180 42.3407 180 65.1429V114.857C180 137.659 180 149.06 175.562 157.77C171.659 165.43 165.43 171.659 157.77 175.562C149.06 180 137.659 180 114.857 180H65.1429C42.3407 180 30.9396 180 22.2304 175.562C14.5695 171.659 8.34101 165.43 4.43759 157.77C0 149.06 0 137.659 0 114.857V65.1429Z" fill="#330000"/>
<path d="M87.2255 113.119H59.3323L53.6571 131.2C53.4995 131.872 52.8809 132.348 52.208 132.315H38.0803C37.2747 132.315 36.9929 131.861 37.2351 130.953L61.3849 59.6173C61.6266 58.8744 61.8682 58.0281 62.1096 57.0784C62.4255 55.4261 62.5872 53.7466 62.5926 52.0628C62.5234 51.5654 62.9606 51.126 63.4379 51.1958H82.6369C83.1994 51.1958 83.5214 51.4022 83.6029 51.8151L111.013 131.076C111.255 131.903 111.013 132.316 110.289 132.315H94.5911C94.0405 132.378 93.5148 132 93.3837 131.448L87.2255 113.119ZM63.6792 97.5143H82.7577C79.6232 86.8032 76.0857 76.2327 73.2187 65.4382C70.1253 76.251 66.7503 87.0202 63.6792 97.5143Z" fill="#FF9A00"/>
<path d="M127.313 64.3231C126.082 64.3739 124.853 64.1574 123.709 63.6879C122.565 63.2184 121.53 62.5064 120.672 61.5985C119.817 60.6513 119.152 59.54 118.717 58.3285C118.282 57.1171 118.084 55.8293 118.136 54.5393C118.092 53.2621 118.311 51.9897 118.779 50.8053C119.248 49.6209 119.954 48.5511 120.853 47.6658C121.743 46.7897 122.793 46.1032 123.944 45.6462C125.094 45.1891 126.321 44.9706 127.554 45.0032C130.453 45.0032 132.727 45.8907 134.377 47.6658C135.21 48.5883 135.857 49.6703 136.282 50.8497C136.707 52.0292 136.9 53.283 136.852 54.5393C136.903 55.8343 136.699 57.1266 136.253 58.3392C135.807 59.5519 135.128 60.6603 134.256 61.5985C133.345 62.5197 132.258 63.2374 131.063 63.7063C129.868 64.1753 128.591 64.3853 127.313 64.3231ZM118.981 131.076V71.8776C118.981 71.1347 119.302 70.763 119.947 70.763H134.8C135.443 70.763 135.765 71.1345 135.766 71.8776V131.076C135.766 131.902 135.444 132.315 134.8 132.315H120.068C119.344 132.315 118.981 131.902 118.981 131.076Z" fill="#FF9A00"/>
</g>
<defs>
<clipPath id="clip0_406_1525">
<rect width="180" height="180" fill="white"/>
</clipPath>
</defs>
</svg>
