<svg width="182" height="181" viewBox="0 0 182 181" fill="none" xmlns="http://www.w3.org/2000/svg">
<path d="M91.0369 137.646C117.247 137.646 138.495 116.399 138.495 90.1882C138.495 63.9782 117.247 42.7307 91.0369 42.7307C64.8269 42.7307 43.5793 63.9782 43.5793 90.1882C43.5793 116.399 64.8269 137.646 91.0369 137.646Z" fill="white"/>
<path d="M91.0372 40.1882C63.423 40.1882 41.0372 62.574 41.0372 90.1882C41.0372 117.803 63.423 140.188 91.0372 140.188C118.652 140.188 141.037 117.803 141.037 90.1882C141.037 62.574 118.652 40.1882 91.0372 40.1882ZM91.0372 45.273C115.843 45.273 135.953 65.3822 135.953 90.1882C135.953 114.994 115.843 135.104 91.0372 135.104C66.2312 135.104 46.122 114.994 46.122 90.1882C46.122 65.3822 66.2312 45.273 91.0372 45.273Z" fill="#4000BF"/>
<path fill-rule="evenodd" clip-rule="evenodd" d="M91.6022 54.5952C111.26 54.5952 127.196 70.5307 127.196 90.1886C127.196 109.846 111.26 125.782 91.6022 125.782C71.9448 125.782 56.0092 109.846 56.0092 90.1886C56.0092 85.3842 56.9609 80.8023 58.6863 76.6211C61.2055 80.0517 65.2682 82.2789 69.8509 82.2789C77.4957 82.2789 83.6928 76.0817 83.6928 68.437C83.6928 63.8542 81.4657 59.7916 78.0347 57.2724C82.2163 55.547 86.7982 54.5952 91.6022 54.5952Z" fill="url(#paint0_linear_31_41)"/>
<defs>
<linearGradient id="paint0_linear_31_41" x1="91.6022" y1="125.782" x2="91.6022" y2="54.5952" gradientUnits="userSpaceOnUse">
<stop stop-color="#7400E1"/>
<stop offset="1" stop-color="#4000BF"/>
</linearGradient>
</defs>
</svg>
