<svg width="512" height="512" viewBox="0 0 512 512" fill="none" xmlns="http://www.w3.org/2000/svg">
<path fill-rule="evenodd" clip-rule="evenodd" d="M344.986 282.463C325.578 282.463 308.179 291.061 296.264 304.599L265.733 282.985C268.974 274.062 270.835 264.48 270.835 254.451C270.835 244.596 269.038 235.175 265.904 226.384L296.367 204.999C308.281 218.468 325.634 227.02 344.986 227.02C380.807 227.02 409.954 197.877 409.954 162.051C409.954 126.225 380.807 97.0819 344.986 97.0819C309.164 97.0819 280.017 126.225 280.017 162.051C280.017 168.463 280.986 174.647 282.724 180.503L252.241 201.898C239.507 186.101 221.173 175.071 200.283 171.704V134.966C229.712 128.785 251.886 102.637 251.886 71.3936C251.886 35.5675 222.739 6.4248 186.917 6.4248C151.096 6.4248 121.948 35.5675 121.948 71.3936C121.948 102.219 143.548 128.044 172.388 134.666V171.882C133.029 178.791 103 213.141 103 254.451C103 295.963 133.326 330.439 172.97 337.113V376.41C143.835 382.815 121.948 408.798 121.948 439.832C121.948 475.659 151.096 504.801 186.917 504.801C222.739 504.801 251.886 475.659 251.886 439.832C251.886 408.798 230 382.815 200.865 376.41V337.112C221.343 333.663 239.341 322.852 251.944 307.404L282.679 329.159C280.972 334.962 280.017 341.084 280.017 347.432C280.017 383.258 309.164 412.401 344.986 412.401C380.807 412.401 409.954 383.258 409.954 347.432C409.954 311.606 380.807 282.463 344.986 282.463ZM344.986 130.551C362.356 130.551 376.484 144.685 376.484 162.051C376.484 179.416 362.356 193.549 344.986 193.549C327.615 193.549 313.487 179.416 313.487 162.051C313.487 144.685 327.615 130.551 344.986 130.551ZM155.417 71.3936C155.417 54.0279 169.547 39.8948 186.917 39.8948C204.288 39.8948 218.416 54.0279 218.416 71.3936C218.416 88.7593 204.288 102.892 186.917 102.892C169.547 102.892 155.417 88.7593 155.417 71.3936ZM218.416 439.832C218.416 457.198 204.288 471.331 186.917 471.331C169.547 471.331 155.417 457.198 155.417 439.832C155.417 422.467 169.547 408.334 186.917 408.334C204.288 408.334 218.416 422.467 218.416 439.832ZM186.915 298.382C162.688 298.382 142.98 278.677 142.98 254.451C142.98 230.225 162.688 210.516 186.915 210.516C211.14 210.516 230.849 230.225 230.849 254.451C230.849 278.677 211.14 298.382 186.915 298.382ZM344.986 378.932C327.615 378.932 313.487 364.798 313.487 347.432C313.487 330.066 327.615 315.933 344.986 315.933C362.356 315.933 376.484 330.066 376.484 347.432C376.484 364.798 362.356 378.932 344.986 378.932Z" fill="black"/>
</svg>
