<svg width="180" height="180" viewBox="0 0 180 180" fill="none" xmlns="http://www.w3.org/2000/svg">
<path d="M57.4698 174.947C53.2798 174.947 49.3227 173.084 46.6458 169.709L5.91031 119.081C3.23341 115.706 2.18593 111.399 3.23341 107.209L17.7818 44.0111C18.7129 39.8212 21.5062 36.446 25.3469 34.5838L84.2388 6.41813C86.101 5.48703 88.196 5.02148 90.2909 5.02148C92.3859 5.02148 94.4809 5.48703 96.343 6.41813L155.235 34.4674C159.076 36.3296 161.869 39.7048 162.8 43.8948L177.348 107.093C178.28 111.283 177.348 115.589 174.672 118.964L133.936 169.593C131.259 172.852 127.302 174.83 123.112 174.83L57.4698 174.947Z" fill="#326DE6"/>
<path d="M90.1746 7.93113C91.804 7.93113 93.4334 8.28029 94.9464 8.97861L153.838 37.0279C156.864 38.5409 159.192 41.3342 159.89 44.5931L174.439 107.791C175.254 111.166 174.439 114.658 172.227 117.335L131.492 167.963C129.397 170.64 126.138 172.153 122.763 172.153H57.4698C54.0946 172.153 50.8358 170.64 48.7408 167.963L8.00532 117.335C5.91035 114.658 5.09564 111.166 5.79396 107.791L20.3423 44.5931C21.1571 41.2178 23.3684 38.4245 26.3945 37.0279L85.2863 8.86223C86.7993 8.28029 88.5452 7.93113 90.1746 7.93113ZM90.1746 2.46094C87.7304 2.46094 85.2863 3.04287 82.9586 4.09036L24.0667 32.256C19.4112 34.4674 16.1524 38.5409 14.9885 43.5456L0.440158 106.744C-0.723712 111.748 0.440159 116.869 3.699 120.943L44.4345 171.571C47.5769 175.528 52.3488 177.74 57.3534 177.74H122.647C127.651 177.74 132.423 175.528 135.566 171.571L176.301 120.943C179.56 116.986 180.724 111.748 179.56 106.744L165.011 43.5456C163.848 38.5409 160.589 34.4674 155.933 32.256L97.2742 4.09036C95.0628 3.04287 92.6187 2.46094 90.1746 2.46094Z" fill="white"/>
<path d="M149.183 102.787C149.066 102.787 149.066 102.787 149.183 102.787H149.066C148.95 102.787 148.834 102.787 148.834 102.671C148.601 102.671 148.368 102.554 148.135 102.554C147.321 102.438 146.622 102.321 145.924 102.321C145.575 102.321 145.226 102.321 144.76 102.205H144.644C142.199 101.972 140.221 101.739 138.359 101.157C137.544 100.808 137.311 100.343 137.078 99.8772C137.078 99.7608 136.962 99.7608 136.962 99.6445L135.449 99.1789C136.147 93.8251 135.915 88.2385 134.634 82.7683C133.354 77.2981 131.143 72.1771 128.117 67.5216L129.281 66.4741V66.2414C129.281 65.6594 129.397 65.0775 129.862 64.4956C131.259 63.2153 133.005 62.1678 135.1 60.8876C135.449 60.6548 135.798 60.5384 136.147 60.3056C136.846 59.9565 137.428 59.6073 138.126 59.1418C138.242 59.0254 138.475 58.909 138.708 58.6762C138.824 58.5598 138.941 58.5598 138.941 58.4434C140.57 57.0468 140.919 54.7191 139.755 53.206C139.173 52.3913 138.126 51.9258 137.078 51.9258C136.147 51.9258 135.333 52.2749 134.518 52.8569C134.402 52.9733 134.402 52.9733 134.285 53.0896C134.052 53.206 133.936 53.4388 133.703 53.5552C133.121 54.1371 132.656 54.6027 132.19 55.1846C131.957 55.4174 131.725 55.7665 131.376 55.9993C129.746 57.7451 128.233 59.1418 126.72 60.1892C126.371 60.422 126.022 60.5384 125.673 60.5384C125.44 60.5384 125.207 60.5384 124.974 60.422H124.741L123.345 61.3531C121.832 59.7237 120.202 58.3271 118.573 56.9304C111.59 51.4602 103.093 48.085 94.248 47.2703L94.1316 45.7573C94.0153 45.6409 94.0153 45.6409 93.8989 45.5245C93.5497 45.1753 93.0842 44.8262 92.9678 44.0114C92.8514 42.1493 93.0842 40.0543 93.3169 37.7265V37.6102C93.3169 37.261 93.4333 36.7954 93.5497 36.4463C93.6661 35.748 93.7825 35.0496 93.8989 34.2349V33.5366V33.1875C93.8989 31.0925 92.2695 29.3467 90.2909 29.3467C89.3598 29.3467 88.4287 29.8122 87.7304 30.5105C87.032 31.2089 86.6829 32.14 86.6829 33.1875V33.4202V34.1185C86.6829 34.9333 86.7993 35.6316 87.032 36.3299C87.1484 36.6791 87.1484 37.0282 87.2648 37.4938V37.6102C87.4976 39.9379 87.8468 42.0329 87.614 43.8951C87.4976 44.7098 87.032 45.0589 86.6829 45.4081C86.5665 45.5245 86.5665 45.5245 86.4501 45.6409L86.3337 47.1539C84.2388 47.3867 82.1438 47.6194 80.0488 48.085C71.087 50.0636 63.1727 54.6027 57.0042 61.1203L55.8403 60.3056H55.6075C55.3748 60.3056 55.142 60.422 54.9092 60.422C54.5601 60.422 54.2109 60.3056 53.8617 60.0729C52.3487 59.0254 50.8357 57.5123 49.2063 55.7665C48.9735 55.5338 48.7407 55.1846 48.3915 54.9518C47.926 54.3699 47.4604 53.9043 46.8785 53.3224C46.7621 53.206 46.5293 53.0896 46.2966 52.8569C46.1802 52.7405 46.0638 52.7405 46.0638 52.6241C45.3655 52.0422 44.4344 51.693 43.5033 51.693C42.4558 51.693 41.4083 52.1585 40.8264 52.9733C39.6625 54.4863 40.0117 56.814 41.6411 58.2107C41.7575 58.2107 41.7575 58.3271 41.8739 58.3271C42.1066 58.4434 42.223 58.6762 42.4558 58.7926C43.1541 59.2582 43.7361 59.6073 44.4344 59.9565C44.7835 60.0729 45.1327 60.3056 45.4819 60.5384C47.5768 61.8187 49.3226 62.8662 50.7193 64.1464C51.3012 64.7283 51.3012 65.3103 51.3012 65.8922V66.125L52.4651 67.1725C52.2323 67.5216 51.9995 67.7544 51.8832 68.1036C46.0638 77.2981 43.8524 88.1221 45.3655 98.8298L43.8524 99.2953C43.8524 99.4117 43.7361 99.4117 43.7361 99.5281C43.5033 99.9936 43.1541 100.459 42.4558 100.808C40.71 101.39 38.615 101.623 36.1709 101.856H36.0545C35.7054 101.856 35.2398 101.856 34.8906 101.972C34.1923 101.972 33.494 102.089 32.6793 102.205C32.4465 102.205 32.2137 102.321 31.981 102.321C31.8646 102.321 31.7482 102.321 31.6318 102.438C29.5368 102.903 28.2566 104.882 28.6057 106.744C28.9549 108.373 30.4679 109.421 32.3301 109.421C32.6793 109.421 32.9121 109.421 33.2612 109.305C33.3776 109.305 33.494 109.305 33.494 109.188C33.7268 109.188 33.9595 109.072 34.1923 109.072C35.007 108.839 35.589 108.606 36.2873 108.257C36.6365 108.141 36.9856 107.908 37.3348 107.792H37.4512C39.6625 106.977 41.6411 106.279 43.5033 106.046H43.7361C44.4344 106.046 44.8999 106.395 45.2491 106.628C45.3655 106.628 45.3655 106.744 45.4819 106.744L47.1113 106.511C49.9046 115.124 55.2584 122.805 62.358 128.392C63.9874 129.672 65.6168 130.72 67.3626 131.767L66.6643 133.28C66.6643 133.397 66.7807 133.397 66.7807 133.513C67.0135 133.979 67.2462 134.561 67.0135 135.375C66.3151 137.121 65.2677 138.867 63.9874 140.845V140.962C63.7546 141.311 63.5219 141.544 63.2891 141.893C62.8235 142.475 62.4744 143.057 62.0088 143.755C61.8924 143.872 61.7761 144.104 61.6597 144.337C61.6597 144.453 61.5433 144.57 61.5433 144.57C60.6122 146.548 61.3105 148.76 63.0563 149.574C63.5219 149.807 63.9874 149.924 64.453 149.924C65.8496 149.924 67.2462 148.993 67.9446 147.712C67.9446 147.596 68.061 147.48 68.061 147.48C68.1773 147.247 68.2937 147.014 68.4101 146.898C68.7593 146.083 68.8757 145.501 69.1084 144.803C69.2248 144.453 69.3412 144.104 69.4576 143.755C70.2723 141.427 70.8542 139.565 71.9017 137.936C72.3673 137.237 72.9492 137.121 73.4148 136.888C73.5311 136.888 73.5311 136.888 73.6475 136.772L74.4622 135.259C79.5833 137.237 85.1698 138.285 90.7564 138.285C94.1317 138.285 97.6233 137.936 100.882 137.121C102.977 136.656 104.956 136.074 106.934 135.375L107.633 136.656C107.749 136.656 107.749 136.656 107.865 136.772C108.447 136.888 108.913 137.121 109.378 137.819C110.309 139.449 111.008 141.427 111.822 143.639V143.755C111.939 144.104 112.055 144.453 112.172 144.803C112.404 145.501 112.521 146.199 112.87 146.898C112.986 147.13 113.103 147.247 113.219 147.48C113.219 147.596 113.336 147.712 113.336 147.712C114.034 149.109 115.43 149.924 116.827 149.924C117.293 149.924 117.758 149.807 118.224 149.574C119.038 149.109 119.737 148.411 119.97 147.48C120.202 146.548 120.202 145.501 119.737 144.57C119.737 144.453 119.62 144.453 119.62 144.337C119.504 144.104 119.388 143.872 119.271 143.755C118.922 143.057 118.457 142.475 117.991 141.893C117.758 141.544 117.525 141.311 117.293 140.962V140.845C116.012 138.867 114.849 137.121 114.267 135.375C114.034 134.561 114.267 134.095 114.383 133.513C114.383 133.397 114.499 133.397 114.499 133.28L113.917 131.884C120.086 128.276 125.323 123.155 129.281 116.87C131.375 113.611 133.005 110.003 134.169 106.395L135.565 106.628C135.682 106.628 135.682 106.511 135.798 106.511C136.264 106.279 136.613 105.929 137.311 105.929H137.544C139.406 106.162 141.385 106.86 143.596 107.675H143.713C144.062 107.792 144.411 108.024 144.76 108.141C145.458 108.49 146.04 108.723 146.855 108.955C147.088 108.955 147.321 109.072 147.553 109.072C147.67 109.072 147.786 109.072 147.902 109.188C148.252 109.305 148.484 109.305 148.834 109.305C150.579 109.305 152.092 108.141 152.558 106.628C152.558 105.231 151.278 103.369 149.183 102.787ZM95.2955 97.0839L90.1745 99.5281L85.0535 97.0839L83.7732 91.6138L87.2648 87.191H92.9678L96.4594 91.6138L95.2955 97.0839ZM125.673 84.9797C126.604 88.9369 126.836 92.894 126.487 96.7348L108.68 91.6138C107.051 91.1482 106.12 89.5188 106.469 87.8894C106.585 87.4238 106.818 86.9583 107.167 86.6091L121.25 73.9229C123.228 77.1818 124.741 80.9061 125.673 84.9797ZM115.663 66.9397L100.417 77.7637C99.1363 78.5784 97.3905 78.3456 96.343 77.0654C95.9938 76.7162 95.8775 76.2507 95.7611 75.7851L94.7136 56.814C102.744 57.7451 110.077 61.3531 115.663 66.9397ZM81.911 57.396C83.1913 57.1632 84.3551 56.9304 85.6354 56.6976L84.5879 75.3196C84.4715 76.949 83.1913 78.3456 81.4455 78.3456C80.9799 78.3456 80.398 78.2292 80.0488 77.9965L64.5693 66.9397C69.3412 62.1678 75.277 58.909 81.911 57.396ZM58.9828 73.9229L72.8328 86.2599C74.1131 87.3074 74.2295 89.286 73.182 90.5663C72.8328 91.0318 72.3673 91.381 71.7853 91.4974L53.7453 96.7348C53.047 88.8205 54.7928 80.7898 58.9828 73.9229ZM55.8403 105.464L74.3459 102.321C75.8589 102.205 77.2555 103.252 77.6047 104.765C77.7211 105.464 77.7211 106.046 77.4883 106.628L70.3887 123.737C63.871 119.547 58.6336 113.145 55.8403 105.464ZM98.3216 128.625C95.6447 129.207 92.9678 129.556 90.1745 129.556C86.1009 129.556 82.1438 128.858 78.4194 127.694L87.614 111.05C88.5451 110.003 90.0581 109.537 91.3384 110.236C91.9203 110.585 92.3858 111.05 92.735 111.516L101.697 127.694C100.649 128.043 99.4855 128.276 98.3216 128.625ZM121.017 112.447C118.107 117.103 114.267 120.827 109.844 123.737L102.512 106.162C102.162 104.765 102.744 103.252 104.141 102.554C104.606 102.321 105.188 102.205 105.77 102.205L124.392 105.347C123.694 107.908 122.53 110.236 121.017 112.447Z" fill="white"/>
</svg>
