<svg width="180" height="180" viewBox="0 0 180 180" fill="none" xmlns="http://www.w3.org/2000/svg">
<path fill-rule="evenodd" clip-rule="evenodd" d="M0 8.4375H16.7288V119.456H82.8837V133.143H8.3819e-07V8.4375L0 8.4375Z" fill="black"/>
<path fill-rule="evenodd" clip-rule="evenodd" d="M128.507 41.1347C139.913 39.6139 152.079 41.8951 161.204 49.4991C171.089 56.3427 176.412 68.5091 177.173 79.9151C178.694 93.6024 177.173 107.29 169.569 118.696C162.725 127.82 152.079 133.904 139.913 134.664C128.507 136.185 115.58 133.904 105.695 126.3C96.5702 118.696 92.0078 107.29 90.487 95.8836C88.9662 83.7171 90.487 70.0299 98.091 59.3843C104.174 48.7387 116.341 41.8951 128.507 41.1347ZM130.788 54.0615C138.392 53.3011 146.757 55.5823 152.84 60.9051C158.163 66.9883 161.204 74.5923 161.965 82.1964C162.725 90.5608 161.965 99.6856 158.163 107.29C154.361 114.894 147.517 120.216 139.153 121.737C131.549 123.258 123.184 120.977 117.861 116.414C111.778 111.852 107.976 105.008 106.455 98.1648C104.935 88.2796 105.695 78.3943 109.497 69.2695C113.299 60.9051 121.663 54.8219 130.788 54.0615V54.0615Z" fill="black"/>
<path fill-rule="evenodd" clip-rule="evenodd" d="M0 152.914H179.455V171.924H0V152.914Z" fill="#3492FF"/>
</svg>
