<svg width="180" height="180" viewBox="0 0 180 180" fill="none" xmlns="http://www.w3.org/2000/svg">
<path d="M167.605 145.471H12.9341C5.92814 145.471 0 139.543 0 132.537V47.3873C0 40.3813 5.92814 34.4531 12.9341 34.4531H167.066C174.072 34.4531 180 40.3813 180 47.3873V132.537C180 139.543 174.611 145.471 167.605 145.471ZM12.9341 43.0759C10.7784 43.0759 8.62275 45.2316 8.62275 47.3873V132.537C8.62275 135.232 10.7784 136.848 12.9341 136.848H167.066C169.76 136.848 171.377 134.693 171.377 132.537V47.3873C171.377 44.6926 169.222 43.0759 167.066 43.0759C167.605 43.0759 12.9341 43.0759 12.9341 43.0759ZM25.8683 119.603V60.3214H43.1138L60.3593 81.8783L77.6048 60.3214H94.8503V119.603H77.6048V85.6507L60.3593 107.208L43.1138 85.6507V119.603H25.8683ZM134.192 119.603L108.323 91.04H125.569V60.3214H142.814V90.501H160.06L134.192 119.603Z" fill="black"/>
</svg>
