<svg width="180" height="180" viewBox="0 0 180 180" fill="none" xmlns="http://www.w3.org/2000/svg">
<path fill-rule="evenodd" clip-rule="evenodd" d="M88.0378 40.5734L54.9492 21.4126L88.0378 2.30176V40.5734ZM92.337 40.5734V2.30176L125.402 21.4126L92.337 40.5734Z" fill="white"/>
<path fill-rule="evenodd" clip-rule="evenodd" d="M127.536 70.8535V109.13L94.5289 90.0234L127.536 70.8535ZM92.3357 93.7058L125.401 112.808L92.3357 131.984V93.7058ZM88.0383 131.985V93.7046L54.9497 112.809L88.0383 131.985ZM52.8425 116.503L85.8998 135.664L52.8425 154.831V116.503ZM85.8998 90.0228L52.8425 70.8553V109.129L85.8998 90.0228ZM92.3357 139.408L125.401 158.506L92.3357 177.674V139.408ZM88.0383 177.675V139.407L54.9497 158.507L88.0383 177.675ZM127.536 116.504V154.832L94.5289 135.665L127.536 116.504Z" fill="white"/>
<path fill-rule="evenodd" clip-rule="evenodd" d="M48.5367 63.4366V25.0957L15.2315 44.3257L48.5367 63.4366ZM85.8998 44.3257L52.8425 25.0957V63.4366L85.8998 44.3257ZM88.0383 47.9991V86.2835L54.9497 67.1184L88.0383 47.9991ZM92.3357 48.0004L125.401 67.1196L92.3357 86.2847V48.0004ZM131.834 70.8563L164.947 90.0237L131.834 109.13V70.8563ZM48.5367 116.505V154.833L15.2315 135.666L48.5367 116.505ZM127.536 63.4366V25.0957L94.5289 44.3257L127.536 63.4366ZM167.09 93.7055V131.986L134.062 112.81L167.09 93.7055ZM48.5367 109.131V70.7943L15.2315 90.0243L48.5367 109.131ZM13.0527 93.7067L46.4061 112.809L13.0527 131.985V93.7067ZM167.09 86.2835V47.9991L134.062 67.1184L167.09 86.2835ZM131.834 25.0957L164.947 44.3257L131.834 63.4366V25.0957ZM164.947 135.665L131.834 116.504V154.832L164.947 135.665ZM13.0527 48.0004L46.4061 67.1196L13.0527 86.2847V48.0004Z" fill="#00AEDE"/>
</svg>
