<svg width="181" height="181" viewBox="0 0 181 181" fill="none" xmlns="http://www.w3.org/2000/svg">
<path d="M63.8719 75.9366H82.7329V77.4285H65.6009V88.657H81.7112V90.1488H65.6009V102.477H82.9293V103.968H63.8719V75.9366ZM84.4225 75.9366H86.4265L95.3068 88.2644L104.384 75.9366L116.73 60.2776L96.4463 89.5599L106.898 103.968H104.816L95.3068 90.8555L85.7585 103.968H83.7152L94.2459 89.5599L84.4225 75.9366ZM107.645 77.4285V75.9366H129.139V77.4285H119.237V103.968H117.508V77.4285H107.645Z" fill="white"/>
<path d="M40.2761 75.9365H42.4373L72.2382 120.317L59.9229 103.968L42.0836 78.0566L42.005 103.968H40.2761V75.9365Z" fill="white"/>
<path d="M128.964 102.026C129.322 102.026 129.583 101.754 129.583 101.402C129.583 101.05 129.322 100.778 128.964 100.778C128.611 100.778 128.346 101.05 128.346 101.402C128.346 101.754 128.611 102.026 128.964 102.026ZM130.663 100.384C130.663 101.423 131.416 102.102 132.513 102.102C133.682 102.102 134.389 101.402 134.389 100.187V95.9084H133.447V100.183C133.447 100.857 133.106 101.218 132.505 101.218C131.967 101.218 131.601 100.882 131.588 100.384H130.663ZM135.621 100.329C135.688 101.41 136.592 102.102 137.938 102.102C139.376 102.102 140.276 101.377 140.276 100.22C140.276 99.311 139.763 98.8081 138.518 98.519L137.85 98.3556C137.059 98.1712 136.74 97.924 136.74 97.4923C136.74 96.9476 137.236 96.5914 137.98 96.5914C138.687 96.5914 139.174 96.9392 139.263 97.4965H140.179C140.125 96.4783 139.225 95.7617 137.993 95.7617C136.668 95.7617 135.785 96.4783 135.785 97.5552C135.785 98.4436 136.285 98.9715 137.383 99.2272L138.165 99.4157C138.968 99.6043 139.322 99.8809 139.322 100.342C139.322 100.878 138.766 101.268 138.01 101.268C137.198 101.268 136.634 100.903 136.555 100.329H135.621Z" fill="white"/>
</svg>
