<svg width="180" height="180" viewBox="0 0 180 180" fill="none" xmlns="http://www.w3.org/2000/svg">
<path d="M11.818 135.034C12.6351 136.487 13.8155 137.576 15.2682 138.393L85.1799 178.706C88.0853 180.431 91.6263 180.431 94.4409 178.706L164.353 138.393C167.258 136.759 168.983 133.672 168.983 130.313V49.6873C168.983 46.3279 167.258 43.2409 164.353 41.6066L94.4409 1.29382C91.5355 -0.431274 87.9945 -0.431274 85.1799 1.29382L15.2682 41.6066C12.272 43.2409 10.5469 46.3279 10.5469 49.6873V130.404C10.5469 132.038 10.9101 133.581 11.818 135.034Z" fill="#009639"/>
<path d="M67.3838 120.779C67.3838 125.773 63.3888 129.768 58.3951 129.768C53.4015 129.768 49.4065 125.773 49.4065 120.779V59.1298C49.4065 54.3177 53.6738 50.4135 59.5755 50.4135C63.8428 50.4135 68.8365 52.1386 71.8327 55.8612L74.5566 59.1298L112.145 104.073V59.3114C112.145 54.3177 116.14 50.3228 121.134 50.3228C126.128 50.3228 130.123 54.3177 130.123 59.3114V120.961C130.123 125.773 125.855 129.677 119.954 129.677C115.686 129.677 110.693 127.952 107.697 124.229L67.3838 76.1084V120.779Z" fill="white"/>
</svg>
