<svg width="180" height="180" viewBox="0 0 180 180" fill="none" xmlns="http://www.w3.org/2000/svg">
<g clip-path="url(#clip0_406_1526)">
<path d="M0 65.1429C0 42.3407 0 30.9396 4.43759 22.2304C8.34101 14.5695 14.5695 8.34101 22.2304 4.43759C30.9396 0 42.3407 0 65.1429 0H114.857C137.659 0 149.06 0 157.77 4.43759C165.43 8.34101 171.659 14.5695 175.562 22.2304C180 30.9396 180 42.3407 180 65.1429V114.857C180 137.659 180 149.06 175.562 157.77C171.659 165.43 165.43 171.659 157.77 175.562C149.06 180 137.659 180 114.857 180H65.1429C42.3407 180 30.9396 180 22.2304 175.562C14.5695 171.659 8.34101 165.43 4.43759 157.77C0 149.06 0 137.659 0 114.857V65.1429Z" fill="#001E36"/>
<path d="M38.5713 131.89V52.7362C38.5713 52.1977 38.7963 51.89 39.3213 51.89C47.0718 51.89 54.8187 51.4285 62.5713 51.4285C75.1509 51.4285 88.7719 55.7298 93.5463 68.89C94.6713 72.1208 95.2713 75.4285 95.2713 78.89C95.2713 85.5054 93.7713 90.9669 90.7713 95.2746C82.3911 107.308 67.8663 107.121 54.8463 107.121V131.813C54.9481 132.544 54.3251 132.89 53.7213 132.89H39.4713C38.8713 132.89 38.5713 132.582 38.5713 131.89ZM54.9213 66.7362V92.5823C60.0838 92.9605 65.486 93.0016 70.4463 91.3516C75.9223 89.7719 78.9213 85.0316 78.9213 79.3516C79.0735 74.5115 76.4361 69.8675 71.9463 68.1208C67.0458 66.0831 60.2112 65.9611 54.9213 66.7362Z" fill="#31A8FF"/>
<path d="M142.05 87.4759C139.78 86.28 137.364 85.4051 134.865 84.875C131.654 84.1195 118.991 81.4737 118.987 88.0951C119.099 91.7917 124.967 93.6028 127.56 94.6589C136.661 97.7838 146.961 103.369 146.759 114.598C147.037 128.577 133.494 134.165 121.884 134.166C115.841 134.228 109.545 133.292 104.013 130.698C103.485 130.419 103.145 129.821 103.168 129.212V115.837C103.109 115.3 103.684 114.832 104.134 115.217C109.554 118.495 115.977 120.086 122.247 120.171C125.014 120.171 130.499 119.903 130.458 115.837C130.458 111.934 123.896 110.14 121.281 109.149C117.489 107.795 113.894 105.921 110.594 103.576C105.982 100.286 103.089 95.0121 103.168 89.2097C103.141 76.0479 115.608 70.1401 126.835 70.1374C132.084 70.0941 137.72 70.4828 142.606 72.6143C143.309 72.8211 143.454 73.5611 143.451 74.2243V86.7327C143.496 87.5092 142.634 87.7736 142.05 87.4759Z" fill="#31A8FF"/>
</g>
<defs>
<clipPath id="clip0_406_1526">
<rect width="180" height="180" fill="white"/>
</clipPath>
</defs>
</svg>
