<svg width="180" height="180" viewBox="0 0 180 180" fill="none" xmlns="http://www.w3.org/2000/svg">
<ellipse cx="90" cy="89.805" rx="87.8906" ry="46.2112" fill="url(#paint0_radial_406_1543)"/>
<ellipse cx="89.9999" cy="89.8049" rx="84.4574" ry="42.778" fill="#6181B6"/>
<path fill-rule="evenodd" clip-rule="evenodd" d="M107.097 103.675L111.286 82.1146C112.247 77.2394 111.423 73.6002 108.951 71.3342C106.548 69.137 102.428 68.0383 96.3858 68.0383H89.1073L91.1673 57.3267C91.2359 56.9147 91.1673 56.5027 90.8926 56.1594C90.618 55.816 90.2746 55.6787 89.8627 55.6787H79.8376C79.151 55.6787 78.6017 56.1594 78.4643 56.7773L74.0011 79.6426C73.5892 77.0334 72.6279 74.8361 70.9799 73.0508C68.0273 69.6863 63.4268 67.9697 57.1783 67.9697H37.8836C37.1969 67.9697 36.6476 68.4503 36.5103 69.0683L27.5152 115.486C27.4466 115.898 27.5152 116.31 27.7899 116.653C28.0646 116.996 28.4079 117.133 28.8199 117.133H38.9136C39.6002 117.133 40.1495 116.653 40.2869 116.035L42.4841 104.843H49.9686C53.8824 104.843 57.247 104.431 59.7876 103.607C62.4655 102.714 64.8688 101.272 66.9974 99.2807C68.714 97.7014 70.1559 95.9161 71.2546 93.9935L69.4693 103.263C69.4006 103.675 69.4693 104.087 69.7439 104.431C70.0186 104.774 70.3619 104.911 70.7739 104.911H80.7989C81.4856 104.911 82.0349 104.431 82.1722 103.813L87.1161 78.4067H93.9825C96.9351 78.4067 97.7591 78.956 98.0337 79.2307C98.2397 79.4366 98.6517 80.2606 98.1711 82.8012L94.1885 103.332C94.1199 103.744 94.1885 104.156 94.4632 104.499C94.7378 104.843 95.0812 104.98 95.4932 104.98H105.793C106.411 104.774 106.96 104.293 107.097 103.675V103.675ZM60.6802 85.8224C60.0622 89.0497 58.8949 91.3843 57.1783 92.6889C55.4617 93.9935 52.6465 94.6802 48.9386 94.6802H44.4754L47.7026 78.0634H53.4704C57.7276 78.0634 59.4443 78.956 60.1309 79.7113C61.0235 80.8099 61.2295 82.9385 60.6802 85.8224V85.8224Z" fill="white"/>
<path fill-rule="evenodd" clip-rule="evenodd" d="M149.944 73.0509C146.992 69.6863 142.391 67.9697 136.143 67.9697H116.71C116.024 67.9697 115.475 68.4504 115.337 69.0684L106.342 115.417C106.273 115.829 106.342 116.241 106.617 116.584C106.891 116.928 107.235 117.065 107.647 117.065H117.74C118.427 117.065 118.976 116.584 119.114 115.966L121.311 104.774H128.795C132.709 104.774 136.074 104.362 138.614 103.538C141.292 102.645 143.696 101.203 145.824 99.2121C147.61 97.5641 149.12 95.7102 150.219 93.7189C151.317 91.7277 152.141 89.5304 152.622 87.1271C153.789 81.1533 152.897 76.4841 149.944 73.0509V73.0509ZM139.438 85.8225C138.82 89.0497 137.653 91.3843 135.937 92.689C134.22 93.9936 131.405 94.6802 127.697 94.6802H123.234L126.461 78.0634H132.229C136.486 78.0634 138.202 78.9561 138.889 79.7114C139.85 80.81 140.056 82.9386 139.438 85.8225V85.8225Z" fill="white"/>
<path fill-rule="evenodd" clip-rule="evenodd" d="M53.4706 76.6901C57.3158 76.6901 59.8564 77.3768 61.161 78.8187C62.4656 80.2607 62.7403 82.6639 62.0536 86.0972C61.367 89.6677 59.9937 92.277 58.0024 93.7876C56.0112 95.2982 52.9899 96.0535 48.9387 96.0535H42.8276L46.6041 76.6901H53.4706V76.6901ZM28.8887 115.692H38.9824L41.3856 103.401H50.0374C53.8826 103.401 56.9725 102.989 59.4444 102.165C61.9163 101.341 64.1136 100.036 66.1735 98.1135C67.8901 96.5342 69.2634 94.8176 70.2934 92.9636C71.3234 91.1097 72.0787 89.0497 72.4907 86.7838C73.5893 81.2906 72.7653 77.0334 70.0874 73.9435C67.4095 70.8536 63.1523 69.343 57.3158 69.343H37.8837L28.8887 115.692V115.692Z" fill="#000004"/>
<path fill-rule="evenodd" clip-rule="evenodd" d="M79.9064 57.052H89.9315L87.5282 69.343H96.4546C102.085 69.343 105.93 70.3043 108.059 72.2955C110.188 74.2868 110.805 77.4454 109.982 81.8399L105.793 103.401H95.6306L99.6132 82.8699C100.094 80.5353 99.8878 78.956 99.1325 78.132C98.3772 77.308 96.6606 76.8274 94.12 76.8274H86.0862L80.9364 103.401H70.9114L79.9064 57.052V57.052Z" fill="#000004"/>
<path fill-rule="evenodd" clip-rule="evenodd" d="M132.229 76.6901C136.074 76.6901 138.615 77.3768 139.919 78.8187C141.224 80.2607 141.499 82.6639 140.812 86.0972C140.125 89.6677 138.752 92.277 136.761 93.7876C134.769 95.2982 131.748 96.0535 127.697 96.0535H121.586L125.362 76.6901H132.229V76.6901ZM107.647 115.692H117.741L120.144 103.401H128.796C132.641 103.401 135.731 102.989 138.203 102.165C140.675 101.341 142.872 100.036 144.932 98.1135C146.648 96.5342 148.022 94.8176 149.052 92.9636C150.082 91.1097 150.837 89.0497 151.249 86.7838C152.348 81.2906 151.524 77.0334 148.846 73.9435C146.168 70.8536 141.911 69.343 136.074 69.343H116.642L107.647 115.692V115.692Z" fill="#000004"/>
<defs>
<radialGradient id="paint0_radial_406_1543" cx="0" cy="0" r="1" gradientUnits="userSpaceOnUse" gradientTransform="translate(54.8793 59.8451) scale(249.291 131.073)">
<stop stop-color="white"/>
<stop offset="0.5" stop-color="#4C6B97"/>
<stop offset="1" stop-color="#231F20"/>
</radialGradient>
</defs>
</svg>
