<svg width="180" height="180" viewBox="0 0 180 180" fill="none" xmlns="http://www.w3.org/2000/svg">
<path d="M180 69.7056V110.063H139.643V69.7056H180ZM180 25.3125V65.6699H139.643V25.3125H180ZM135.607 25.3125V65.6699H95.2495V25.3125H135.607ZM91.2137 25.3125V65.6699H50.8563V25.3125H91.2137Z" fill="#F9AD00"/>
<path d="M135.607 114.099V154.457H95.2494V114.099H135.607ZM180 114.099V154.457H139.643V114.099H180ZM91.2137 114.099V154.457H50.8563V114.099H91.2137ZM135.607 69.7061V110.063H95.2494V69.7061H135.607ZM7.55975 81.4823C8.91576 81.4823 10.1757 81.6575 11.3396 82.0078C12.5035 82.3581 13.5036 82.8949 14.3398 83.6181C15.176 84.3413 15.8314 85.2509 16.306 86.347C16.7806 87.4431 17.0179 88.7483 17.0179 90.2625C17.0179 91.7089 16.8145 92.9745 16.4077 94.0593C16.0009 95.1441 15.4246 96.0538 14.6788 96.7883C13.933 97.5228 13.0346 98.0709 11.9837 98.4325C10.9328 98.7941 9.76326 98.9749 8.47505 98.9749C7.50325 98.9749 6.59924 98.828 5.76304 98.5342V104.162L5.70848 104.177C5.4806 104.241 5.13719 104.309 4.67823 104.382C4.18103 104.461 3.67252 104.501 3.15272 104.501C2.65552 104.501 2.20916 104.467 1.81366 104.399C1.41816 104.331 1.08481 104.195 0.813605 103.992C0.542404 103.789 0.339002 103.512 0.203401 103.162C0.0678004 102.811 0 102.354 0 101.789V85.5165L0.00173268 85.3959C0.0179043 84.8405 0.147278 84.3835 0.389853 84.0249C0.649754 83.6407 1.00571 83.2904 1.45771 82.974C2.15831 82.522 3.02842 82.1603 4.06803 81.8891C5.10763 81.6179 6.27154 81.4823 7.55975 81.4823ZM47.1552 81.4823C48.5112 81.4823 49.7712 81.6575 50.9351 82.0078C52.099 82.3581 53.099 82.8949 53.9353 83.6181C54.7715 84.3413 55.4269 85.2509 55.9015 86.347C56.3761 87.4431 56.6134 88.7483 56.6134 90.2625C56.6134 91.7089 56.41 92.9745 56.0032 94.0593C55.5964 95.1441 55.0201 96.0538 54.2743 96.7883C53.5284 97.5228 52.6301 98.0709 51.5792 98.4325C50.5283 98.7941 49.3587 98.9749 48.0705 98.9749C47.0987 98.9749 46.1947 98.828 45.3585 98.5342V104.162L45.3039 104.177C45.0761 104.241 44.7326 104.309 44.2737 104.382C43.7765 104.461 43.268 104.501 42.7482 104.501C42.251 104.501 41.8046 104.467 41.4091 104.399C41.0136 104.331 40.6803 104.195 40.4091 103.992C40.1379 103.789 39.9345 103.512 39.7989 103.162C39.6633 102.811 39.5955 102.354 39.5955 101.789V85.5165L39.5972 85.3959C39.6134 84.8405 39.7427 84.3835 39.9853 84.0249C40.2452 83.6407 40.6012 83.2904 41.0532 82.974C41.7538 82.522 42.6239 82.1603 43.6635 81.8891C44.7031 81.6179 45.867 81.4823 47.1552 81.4823ZM28.0694 81.4823C30.6232 81.4823 32.5894 82.0417 33.968 83.1604C35.3466 84.2791 36.0359 85.8329 36.0359 87.8217V98.4325L35.9767 98.4494C35.7497 98.5116 35.4135 98.5737 34.9681 98.6359C34.4822 98.7037 33.9793 98.7376 33.4595 98.7376C32.9623 98.7376 32.516 98.7037 32.1205 98.6359C31.725 98.5681 31.3916 98.4325 31.1204 98.2291C30.8492 98.0257 30.6401 97.7488 30.4932 97.3985C30.3463 97.0482 30.2729 96.5905 30.2729 96.0255V88.0251L30.2713 87.916C30.2515 87.2709 30.0543 86.7931 29.6796 86.4826C29.2841 86.1549 28.7474 85.9911 28.0694 85.9911C27.6174 85.9911 27.171 86.0476 26.7303 86.1606C26.2896 86.2736 25.9111 86.4431 25.5947 86.6691V98.4325L25.5355 98.4494C25.3084 98.5116 24.9722 98.5737 24.5268 98.6359C24.0409 98.7037 23.5381 98.7376 23.0183 98.7376C22.521 98.7376 22.0747 98.7037 21.6792 98.6359C21.2837 98.5681 20.9503 98.4325 20.6791 98.2291C20.4079 98.0257 20.1989 97.7488 20.052 97.3985C19.9051 97.0482 19.8316 96.5905 19.8316 96.0255V85.8555L19.8334 85.7349C19.8495 85.1795 19.9789 84.7225 20.2215 84.3639C20.4814 83.9797 20.8373 83.6294 21.2893 83.313C22.0577 82.7706 23.0239 82.3299 24.1878 81.9909C25.3517 81.6518 26.6456 81.4823 28.0694 81.4823ZM77.7332 81.4823C78.592 81.4823 79.4339 81.5953 80.2588 81.8214C81.0837 82.0474 81.8182 82.4033 82.4623 82.8892C83.1064 83.3751 83.6205 84.0192 84.0047 84.8215C84.389 85.6238 84.5811 86.6013 84.5811 87.7539V98.4325L84.5218 98.4494C84.2948 98.5116 83.9586 98.5737 83.5132 98.6359C83.0273 98.7037 82.5244 98.7376 82.0046 98.7376C81.5074 98.7376 81.0611 98.7037 80.6656 98.6359C80.2701 98.5681 79.9367 98.4325 79.6655 98.2291C79.3943 98.0257 79.1853 97.7488 79.0384 97.3985C78.8915 97.0482 78.818 96.5905 78.818 96.0255V87.9234L78.8162 87.8121C78.7961 87.1913 78.6046 86.7369 78.2417 86.4487C77.8575 86.1436 77.3377 85.9911 76.6823 85.9911C76.3659 85.9911 76.0269 86.0645 75.6653 86.2114C75.3037 86.3583 75.0325 86.5109 74.8517 86.6691C74.8743 86.7595 74.8856 86.8442 74.8856 86.9233V98.4325L74.821 98.4494C74.575 98.5116 74.2292 98.5737 73.7838 98.6359C73.2979 98.7037 72.8064 98.7376 72.3092 98.7376C71.812 98.7376 71.3656 98.7037 70.9701 98.6359C70.5746 98.5681 70.2413 98.4325 69.9701 98.2291C69.6989 98.0257 69.4898 97.7488 69.3429 97.3985C69.196 97.0482 69.1225 96.5905 69.1225 96.0255V87.9234L69.1208 87.8179C69.1 87.1942 68.8915 86.7378 68.4954 86.4487C68.0773 86.1436 67.5744 85.9911 66.9868 85.9911C66.58 85.9911 66.2297 86.0532 65.9359 86.1775C65.6421 86.3018 65.3935 86.4205 65.1901 86.5335V98.4325L65.1309 98.4494C64.9039 98.5116 64.5677 98.5737 64.1223 98.6359C63.6364 98.7037 63.1335 98.7376 62.6137 98.7376C62.1165 98.7376 61.6701 98.7037 61.2746 98.6359C60.8791 98.5681 60.5458 98.4325 60.2746 98.2291C60.0034 98.0257 59.7943 97.7488 59.6474 97.3985C59.5005 97.0482 59.4271 96.5905 59.4271 96.0255V85.7877L59.4288 85.6673C59.445 85.1132 59.5744 84.6675 59.8169 84.33C60.0768 83.9684 60.4328 83.6294 60.8848 83.313C61.6532 82.7706 62.6081 82.3299 63.7494 81.9909C64.8907 81.6518 66.0828 81.4823 67.3258 81.4823C68.2524 81.4823 69.1621 81.6123 70.0548 81.8722C70.9475 82.1321 71.7216 82.522 72.377 83.0418C73.055 82.5898 73.8177 82.2169 74.6652 81.9231C75.5127 81.6292 76.5354 81.4823 77.7332 81.4823ZM7.76315 85.9911C7.33375 85.9911 6.94955 86.0419 6.61054 86.1436C6.27154 86.2453 5.97774 86.364 5.72914 86.4996V93.9576L5.86662 94.0235C6.0989 94.1303 6.34687 94.2213 6.61054 94.2966C6.92694 94.387 7.26595 94.4322 7.62755 94.4322C9.95536 94.4322 11.1193 93.0423 11.1193 90.2625C11.1193 88.8161 10.8311 87.7426 10.2548 87.042C9.67851 86.3414 8.84796 85.9911 7.76315 85.9911ZM47.3586 85.9911C46.9292 85.9911 46.545 86.0419 46.206 86.1436C45.867 86.2453 45.5732 86.364 45.3246 86.4996V93.9576L45.4621 94.0235C45.6944 94.1303 45.9423 94.2213 46.206 94.2966C46.5224 94.387 46.8614 94.4322 47.223 94.4322C49.5508 94.4322 50.7147 93.0423 50.7147 90.2625C50.7147 88.8161 50.4266 87.7426 49.8503 87.042C49.274 86.3414 48.4434 85.9911 47.3586 85.9911Z" fill="#4E4E4E"/>
</svg>
