<svg width="506" height="506" viewBox="0 0 506 506" fill="none" xmlns="http://www.w3.org/2000/svg">
<g clip-path="url(#clip0_406_1587)">
<path fill-rule="evenodd" clip-rule="evenodd" d="M505.808 242.518C505.64 236.104 505.302 229.522 504.964 223.108C504.626 216.524 504.458 209.942 503.782 203.36C502.601 194.413 501.419 185.299 499.394 176.522C497.874 169.264 495.343 162.344 492.812 155.424C489.605 147.321 486.398 139.051 482.347 131.288C475.763 118.798 467.155 107.657 459.222 96.0104C453.989 88.5827 447.239 82.5065 442.175 74.9128C439.306 70.5241 435.085 66.8093 430.866 63.4343C424.114 58.0339 417.025 53.1374 409.937 48.4128C404.534 44.6979 399.134 41.155 393.396 37.9479C388.837 35.4147 383.943 33.3893 379.216 31.196C373.816 28.6628 368.583 25.6257 362.507 24.444C360.987 24.1061 359.638 23.6003 358.118 23.0944C354.236 21.7429 350.523 20.2253 346.64 19.0436C340.734 17.1862 334.995 14.9909 328.917 13.4733C323.011 11.9538 316.935 10.9401 310.859 10.0964C304.107 9.08466 297.187 8.74676 290.435 8.07098C286.046 7.56512 281.657 7.05926 277.437 6.88934C271.025 6.55341 264.441 6.55341 258.027 6.38348C254.82 6.21551 251.445 5.87762 248.237 6.04559C243.343 6.21551 238.448 6.72137 233.552 7.39716C228.827 7.90301 224.101 8.74676 219.542 9.42255C213.974 10.0964 208.403 10.4343 202.833 11.11C197.601 11.7858 192.2 12.7975 186.968 13.6413C185.111 13.9792 183.253 14.655 181.398 14.9909C177.347 15.8366 173.126 16.1745 169.075 17.5241C161.818 19.7175 154.56 22.2507 147.47 24.9499C140.888 27.6511 134.474 30.5202 128.23 33.8972C121.816 37.4401 115.739 41.6608 109.661 45.7116C103.923 49.5925 98.1847 53.6452 92.6144 58.0339C87.214 62.2526 82.1496 66.9792 77.2551 71.7057C74.5539 74.405 72.3605 77.612 69.8273 80.6511C65.6086 85.5456 61.3879 90.2722 57.3371 95.3347C53.9621 99.5554 50.923 103.944 47.7179 108.333C41.9777 116.096 37.0832 124.366 32.5265 132.637C30.6691 136.012 28.9816 139.389 27.2941 142.764C24.7609 147.829 22.0617 152.723 19.6984 157.956C18.0109 161.501 16.6593 165.382 15.6476 169.264C13.2843 177.534 10.9211 185.973 8.72771 194.245C6.70232 201.671 6.1945 209.436 6.02654 217.032C5.85661 223.782 6.53239 230.366 7.20818 237.118C7.37614 238.805 6.36443 240.831 8.38982 242.18C8.55779 242.18 8.38982 242.856 8.21989 243.024C7.71404 244.038 8.21989 245.049 9.23357 245.387C9.23357 245.387 9.40154 245.557 9.40154 245.725H8.55779C8.05193 247.245 9.73943 248.426 9.06364 250.114C8.89568 250.452 9.57146 251.126 9.90739 251.633C9.90739 252.139 9.73943 252.815 9.90739 253.321C10.0773 254.841 10.7531 256.358 10.7531 258.048C10.7531 259.229 11.7648 260.579 12.1027 261.76C12.2707 262.266 12.1027 263.11 11.7648 263.448C10.7531 264.63 10.9211 265.643 12.4406 266.317C12.7785 266.487 13.2843 267.161 13.2843 267.499C13.2843 268.512 12.9465 269.524 12.7785 270.538C13.1144 270.876 13.2843 271.212 13.1144 271.549C13.1144 272.055 12.6086 272.563 12.7785 272.901C14.1281 275.6 14.634 278.639 14.8039 281.676C14.8039 282.352 15.1418 283.028 15.4777 283.872C15.6476 283.872 16.1535 283.872 16.4914 284.04L15.4777 287.079C16.3215 286.571 16.9972 286.403 17.841 286.065C18.3468 288.26 18.8547 290.286 19.5285 292.141C19.6984 292.479 20.0363 292.817 20.5422 293.155C20.3722 293.493 20.3722 294.167 20.0363 294.337C20.7101 297.374 21.048 300.245 22.2297 303.114C22.3996 303.114 22.5676 302.944 22.7355 302.944C22.2297 299.907 21.8918 296.7 21.3859 293.661V292.649C21.3859 292.649 21.7238 292.479 21.8918 292.479C22.0617 293.155 22.3996 293.999 22.3996 294.505C23.7492 294.505 25.7746 295.348 27.1242 295.348C27.2941 294.842 27.4621 294.167 27.632 293.831C26.6183 292.817 25.7746 291.298 24.7609 290.286C25.0988 291.635 24.7609 292.141 24.7609 292.649C24.0871 292.311 23.2433 291.973 22.3996 291.635C23.0734 290.792 23.7492 289.948 24.7609 288.934C24.7609 287.417 23.9172 286.065 21.5539 286.235C22.5676 285.897 23.5812 285.391 24.7609 285.053C24.9308 285.559 25.0988 286.065 25.2687 286.403C26.6183 284.04 24.5929 282.184 24.5929 279.821C24.7609 276.952 23.0734 274.083 22.5676 271.044C21.7238 266.317 21.8918 259.229 21.3859 254.503C21.3859 254.165 20.8801 253.827 20.5422 253.489C20.3722 253.659 19.5285 255.852 19.3605 256.022C19.8664 260.073 20.3722 264.124 20.7101 268.174C20.5422 268.174 20.3722 268.174 20.3722 268.342C19.6984 264.798 19.0226 261.085 18.1789 257.034C18.0109 258.216 17.841 258.721 17.841 259.397C17.3351 259.229 17.1672 259.059 16.3215 258.721C16.9972 260.241 17.673 261.255 18.1789 262.436C16.9972 261.928 15.6476 262.098 15.6476 262.098V266.823C13.9601 265.135 13.4523 263.786 12.6086 262.604C12.2707 261.255 12.1027 259.903 11.7648 258.553L12.2707 258.383C12.1027 257.71 11.7648 257.202 11.7648 256.696C11.5968 255.514 11.4269 254.165 11.259 252.645C11.4269 252.477 12.1027 252.307 12.4406 251.971L11.089 249.946C12.4406 250.114 13.2843 250.282 14.1281 250.282C14.1281 249.946 14.2961 249.776 14.1281 249.608C12.4406 248.089 13.6222 246.737 14.2961 245.387C14.634 244.712 15.8156 244.544 16.1535 243.868C17.5031 241.337 19.6984 239.311 19.6984 236.104C19.6984 234.585 20.2043 232.897 20.3722 231.378C20.7101 228.508 21.048 225.639 21.2179 222.77C21.5539 219.057 21.2179 215.342 22.0617 211.799C23.4113 205.891 25.0988 199.983 26.9562 194.077C28.3058 189.856 29.8254 185.805 31.5129 181.587C34.0461 175.003 36.4074 168.421 39.6144 162.174C44.173 153.061 49.4054 144.284 54.4679 135.339C57.675 129.768 61.0519 124.536 64.5949 119.133C67.9718 113.901 71.3468 108.501 75.2297 103.606C80.6301 96.6862 86.5383 90.2722 93.1203 84.5319C99.8722 78.4557 106.286 72.2116 113.544 66.6413C122.997 59.3835 132.954 52.9694 143.589 47.3991C152.196 42.8425 161.142 39.2975 170.089 35.9206C175.827 33.7272 182.071 32.7155 187.98 30.8581C194.732 28.6628 201.484 27.6511 208.571 27.4811C213.13 27.3132 217.519 26.8073 222.075 26.3015C226.126 25.9636 230.177 25.6257 234.566 25.1198C234.06 25.7936 233.89 26.1315 233.722 26.4694C231.864 29.1706 229.839 31.8698 227.984 34.571C226.464 36.7663 224.777 39.1276 223.257 41.3229C220.556 44.8679 217.687 48.4128 215.155 52.1257C211.273 57.696 207.728 63.4343 203.677 69.0046C199.626 74.405 195.237 79.4694 191.019 84.7018C185.448 91.9597 180.216 99.3854 174.646 106.643C169.581 113.565 164.181 120.147 159.286 127.067C154.898 133.143 151.015 139.557 146.796 145.803C140.55 155.087 134.306 164.2 128.06 173.483C123.165 180.573 118.271 187.493 113.206 194.583C112.868 195.089 112.362 195.258 111.857 195.594C111.519 195.932 110.843 196.27 110.843 196.608C110.507 197.79 110.507 198.971 109.999 199.983C108.65 202.516 107.3 205.048 105.78 207.411C104.937 208.76 103.755 209.942 102.741 211.292C102.403 211.124 102.236 210.956 101.898 210.956C102.573 209.266 105.443 208.255 104.093 205.723C103.249 207.073 102.403 208.255 101.56 209.604L99.5343 213.655C100.21 214.163 101.392 214.499 100.21 215.512C99.7043 216.356 99.1965 217.368 98.6906 218.214C98.8605 218.214 98.8605 218.382 99.0285 218.382C99.5343 217.706 100.042 217.2 100.548 216.524C100.716 216.524 100.886 216.694 101.054 216.694C100.548 218.382 99.5343 219.901 98.6906 221.421C98.0148 222.77 96.3273 223.782 95.1457 224.796C95.3156 224.964 96.4972 225.471 96.6652 225.639C97.1711 224.964 97.341 225.301 97.8468 224.628C98.1847 225.133 98.6906 224.29 98.8605 224.796C99.3664 224.12 99.8722 223.614 100.042 223.108C100.716 221.421 101.73 220.069 103.417 219.395C104.093 219.057 104.599 218.549 105.105 218.044C110.169 212.811 115.402 207.749 119.958 202.178C127.048 193.569 133.462 184.624 140.212 175.846C143.083 172.133 146.458 168.421 149.495 164.876C149.833 165.046 150.171 165.046 150.341 165.214C150.003 168.758 149.665 172.471 149.495 176.016C148.989 182.26 148.652 188.507 148.146 194.921C147.978 197.452 148.146 199.983 147.978 202.516C147.978 203.19 147.47 203.696 147.47 204.372C147.47 206.059 147.978 207.917 147.978 209.604C147.47 215.85 146.796 221.926 146.288 228.171C146.12 229.522 146.796 230.872 147.134 232.053C146.964 231.885 146.796 231.716 146.288 231.378C146.288 241.169 148.146 250.79 146.626 260.411C147.302 260.241 147.64 260.073 147.64 259.735C147.808 258.553 148.146 257.372 148.146 256.19C148.316 255.178 148.146 254.165 148.146 252.983V251.296C148.316 248.257 148.989 245.049 148.652 242.012C148.316 238.635 148.316 235.428 148.989 232.221C149.327 230.872 148.821 229.184 149.665 227.497V230.028C149.495 239.649 149.833 249.27 148.484 258.891C148.316 259.735 148.989 261.255 147.134 261.085C146.964 261.085 146.796 261.928 146.458 262.436C145.614 264.124 147.47 266.317 145.782 268.005C145.445 268.342 146.12 269.862 146.288 270.876C146.288 271.212 146.458 271.549 146.288 271.719C145.614 272.901 145.614 272.901 146.626 273.069C146.796 276.782 147.134 280.159 147.302 283.702H147.808C150.003 277.288 148.652 270.706 149.833 264.124C150.003 266.823 150.171 269.524 150.003 272.393C150.003 276.782 149.833 281.003 149.665 285.391C149.665 286.235 149.495 287.079 149.327 287.923C148.821 290.286 148.652 292.649 147.808 294.842C147.134 296.53 147.47 299.063 147.47 301.089V307.501C147.47 307.671 147.978 308.176 147.978 308.852C148.146 310.372 147.302 311.891 147.808 313.579C147.978 313.917 147.64 314.423 147.47 314.76C147.302 315.266 147.134 315.772 147.302 316.278L147.808 318.811C147.808 318.979 147.978 319.149 148.146 319.485C148.316 318.811 148.316 318.303 148.316 318.135C151.185 318.473 149.665 321.005 151.015 322.356C150.341 322.692 149.833 322.862 149.833 323.03C150.003 323.706 150.341 324.212 150.341 324.887C150.341 326.405 150.171 327.757 150.003 329.276C150.003 333.157 149.833 337.04 149.833 340.753C149.833 341.258 150.003 341.766 150.003 342.272C150.003 342.61 149.833 342.948 149.833 343.454V346.999H150.509C150.171 347.505 149.833 348.01 149.327 348.516C149.159 348.516 148.652 348.516 148.652 348.348V327.081H146.12C145.782 337.208 146.626 346.323 144.771 355.774C142.745 355.944 142.07 356.282 139.876 356.282C134.644 356.282 129.411 356.282 124.179 356.45C117.933 356.45 111.857 356.62 105.611 356.62C102.573 356.62 99.3664 356.956 96.3273 356.956C92.2765 356.956 88.0578 356.45 84.007 356.45C77.7609 356.45 71.6847 356.956 65.4406 357.126C60.882 357.294 56.3254 357.294 51.7687 357.464C48.7297 357.632 45.6906 357.801 42.6535 358.137C41.3039 358.307 40.1222 358.813 38.4328 359.319C37.9269 359.319 36.7453 359.151 35.7336 359.319C34.0461 359.657 32.5265 360.671 30.839 361.007C28.3058 361.514 27.632 362.188 27.9679 364.721V366.409C27.632 366.071 27.1242 365.733 26.7863 365.565C26.6183 365.565 26.4504 365.733 26.4504 365.733C26.6183 366.239 26.9562 366.577 27.1242 367.085C27.8 366.747 28.6437 365.903 29.3195 365.903H31.6828C31.3449 365.903 31.175 366.915 30.6691 367.758C32.0187 367.253 32.8644 366.915 33.7082 366.577C33.8761 367.085 33.8761 367.758 33.8761 367.928C36.2394 367.758 38.4328 367.085 40.4582 367.591C47.0422 369.278 53.7941 369.954 60.5441 370.628C64.9328 370.966 69.1535 371.135 73.5422 371.303C79.7863 371.641 86.0324 371.979 92.2765 371.979C97.509 371.979 102.573 371.473 107.806 371.473C115.064 371.473 122.321 371.809 129.579 371.979C131.099 371.979 132.786 371.809 134.474 371.809H146.796C157.767 371.473 168.737 371.303 179.71 370.966C185.954 370.798 192.368 370.46 198.614 370.292L217.855 369.784C225.282 369.616 232.708 369.616 239.966 369.446C245.536 369.446 250.939 369.278 256.507 369.11C262.753 368.94 269.167 368.434 275.411 368.096C278.788 367.928 282.163 367.591 285.54 367.253C289.591 366.915 293.81 366.409 297.861 366.239C303.937 365.903 310.183 365.733 316.259 365.395C323.855 364.889 331.45 364.214 339.214 364.046C346.304 363.708 353.562 363.878 360.65 363.708C366.896 363.54 373.14 363.202 379.554 363.034L390.189 362.526C390.189 362.526 397.277 362.358 400.821 362.02C406.898 361.682 412.974 361.007 419.05 360.839C422.933 360.671 426.816 360.839 430.696 360.671C436.943 360.501 443.357 360.163 449.601 360.163C451.964 360.163 454.497 360.501 457.534 360.671C456.185 361.852 455.341 362.526 454.327 363.37C455.003 363.54 455.677 363.878 456.353 364.214C456.353 364.383 456.185 364.551 456.185 364.889C455.341 364.889 454.497 365.059 453.652 365.059C453.316 365.903 452.978 366.239 452.64 367.928H455.677C454.497 367.928 453.484 369.446 452.302 370.46C452.472 370.628 452.64 370.628 452.808 370.798C450.952 370.122 449.771 370.46 449.095 372.317C449.601 372.485 449.939 372.485 450.445 372.485C450.277 372.991 450.109 373.499 449.939 374.173C449.771 374.51 449.601 374.848 449.601 375.354L449.095 374.848C449.095 374.51 449.095 374.173 448.927 373.835C447.913 374.848 446.394 375.524 447.237 377.717C446.564 378.055 445.72 378.393 444.876 378.899C445.044 379.237 445.382 379.575 445.55 380.081C444.032 380.249 442.513 380.587 442.851 382.444C443.525 382.612 444.2 382.95 444.706 383.118C443.862 383.456 443.019 383.962 442.175 384.299C442.005 384.637 441.837 385.481 441.499 385.651C439.136 386.157 440.487 387.001 441.161 387.844C440.655 388.182 440.15 388.52 439.644 388.688C440.15 388.858 440.487 389.026 440.825 389.364C440.318 389.702 439.98 389.87 439.644 390.04C439.98 390.208 440.487 390.546 440.655 390.546C439.98 391.051 439.136 391.727 438.124 392.571C438.124 392.909 438.124 393.077 438.292 393.415C437.618 394.091 436.943 394.764 436.267 395.778C435.593 396.79 435.255 398.141 434.411 399.153C430.866 403.036 428.333 407.592 423.777 410.632C422.089 411.813 420.57 413.331 419.05 414.85C416.013 417.719 413.312 420.926 410.105 423.628C405.886 427.173 401.497 430.38 396.939 433.587C391.37 437.467 385.8 441.35 380.23 445.063C377.191 447.089 373.816 448.608 370.609 450.466C367.402 452.321 364.364 454.01 361.155 455.866C359.13 457.217 357.275 459.073 355.079 460.087C349.509 462.45 343.603 464.475 337.864 466.669C337.357 466.837 337.021 467.007 336.513 467.174C332.294 469.032 328.243 471.057 324.023 472.577C320.14 473.926 316.091 474.94 312.038 475.784C310.689 476.122 309.169 475.784 307.652 475.952C304.78 476.458 301.911 477.133 299.042 477.471C291.616 478.485 284.189 479.159 276.763 480.173C272.374 480.678 268.154 481.522 263.765 482.028C260.728 482.198 257.521 481.86 254.482 481.86C252.288 481.86 249.925 482.366 247.73 482.028C244.187 481.522 240.642 480.678 237.097 480.003C236.253 479.835 235.071 479.497 234.396 479.835C233.046 480.508 231.864 479.497 230.515 479.835C229.671 480.003 228.827 479.329 227.982 479.329C227.308 479.159 226.464 479.497 225.62 479.329C223.763 478.821 222.075 478.147 220.05 478.315C218.025 478.485 215.999 477.471 213.804 476.966C210.767 476.29 207.898 475.614 204.859 474.94C203.677 474.602 202.665 474.096 201.484 473.421C201.146 473.589 200.638 473.926 199.964 473.926C197.095 473.421 194.226 473.253 191.525 472.239C189.161 471.395 186.968 470.214 184.435 470.551C183.761 470.719 183.253 470.382 182.579 470.382C182.071 469.708 181.566 468.356 181.06 468.356C177.683 468.526 175.657 465.657 172.788 464.813C171.269 464.305 170.089 462.618 168.57 462.112C164.857 460.592 161.818 457.385 157.599 456.88C156.247 456.71 154.898 456.036 153.378 455.528C153.884 456.204 154.222 456.71 154.728 457.217L154.39 457.553C149.833 454.854 145.277 452.153 140.72 449.622C140.044 449.452 139.538 448.778 139.03 448.44L134.474 445.401C133.968 445.063 132.954 444.557 132.954 444.725C131.943 445.909 130.929 444.895 130.255 444.557C125.696 441.35 120.464 439.325 116.075 435.78C114.22 434.262 112.025 433.249 110.675 431.391C108.312 428.522 105.443 426.497 102.236 424.809C99.7043 423.46 97.341 421.94 94.9777 420.421C93.7961 419.577 92.6144 418.565 92.6144 416.708C92.6144 415.526 92.1086 414.344 90.589 415.02C89.9133 414.007 89.2394 412.825 88.3957 412.487C86.3703 411.643 85.0187 410.126 83.4992 408.774C81.9816 407.424 80.8 405.567 78.9426 404.893C75.5676 403.542 73.5422 400.673 71.5168 398.309C66.7902 392.739 62.5695 386.663 58.1808 380.755C57.8449 380.249 57.1691 379.911 56.6633 379.405L56.4933 379.575C57.3371 381.262 58.1808 382.782 59.0265 384.469C58.8566 384.637 58.5187 384.807 58.3508 384.975C57.3371 383.794 56.1554 382.612 55.1437 381.43C54.9738 381.6 54.8058 381.768 54.6379 381.768L66.7902 401.01C67.8019 402.53 68.6457 404.048 69.6593 405.567C69.4914 405.737 69.3215 405.905 68.9836 406.073C67.1281 405.737 65.4406 404.385 64.5949 402.866C63.0773 400.167 61.3879 398.479 58.0129 398.815C57.675 397.633 57.3371 396.284 57.1691 395.102C56.4933 395.102 55.9875 395.102 54.8058 394.934C57.1691 398.647 59.1945 401.854 61.3879 405.567C60.5441 405.061 60.0383 404.723 59.7004 404.555C62.7394 407.762 64.9328 411.813 68.8156 413.839C69.6593 417.719 74.048 419.577 75.0597 423.29C74.216 423.122 73.5422 422.952 72.6984 422.784C71.3468 421.096 69.8273 419.409 68.3097 417.551C68.6457 418.733 69.1535 419.745 69.8273 420.591C71.8527 423.122 73.7101 425.653 76.0734 427.848C76.9172 428.692 78.0988 429.03 78.0988 430.548C78.4367 430.21 78.7746 430.042 79.4484 429.704C79.1105 430.38 78.9426 430.717 78.7746 431.223C79.4484 431.223 79.9562 431.391 80.4621 431.391C80.8 432.405 80.2922 433.924 82.3176 433.587C82.4875 433.587 82.6554 433.755 82.8254 433.924C83.6691 436.118 85.0187 436.118 86.8761 435.274C87.214 435.106 88.0578 435.274 88.2258 435.612C89.0695 437.467 90.2511 437.637 91.7707 436.288C91.7707 437.132 91.9386 437.975 91.9386 438.649H92.6144C92.6144 438.313 92.4465 437.805 92.4465 436.962C93.2902 437.637 93.7961 437.975 94.134 438.313C95.8215 440.674 97.341 442.87 99.7043 444.725C102.911 447.426 105.78 450.296 108.818 452.829C114.726 457.723 121.308 461.774 127.892 465.487C135.993 470.044 143.757 474.94 152.028 479.327C161.986 484.561 172.62 488.104 183.591 490.637C187.642 491.481 191.525 492.325 195.575 493.337C199.12 494.35 202.665 495.87 206.208 496.714C211.611 497.895 217.181 498.907 222.581 499.921C223.763 500.089 224.945 500.258 226.294 500.426V500.764C227.814 500.764 229.671 500.089 230.009 500.594C230.853 501.946 231.527 501.27 232.54 501.102C233.722 500.764 235.071 500.764 236.421 500.764C241.148 500.932 245.704 501.946 250.431 501.608C251.445 501.608 252.964 500.764 253.808 502.452C254.146 502.282 254.314 502.114 254.652 501.946C255.325 501.776 256.171 501.776 256.845 501.608V501.946C256.507 502.114 256.171 502.114 255.495 502.284C256.339 502.452 256.845 502.62 257.353 502.79C257.015 503.128 256.845 503.128 256.507 503.296C256.171 503.464 255.663 503.633 254.989 504.139C261.066 505.321 266.804 505.491 271.868 504.139V503.128H272.542C272.542 503.464 272.712 503.801 272.88 504.139C280.644 504.815 288.239 503.801 295.497 501.27C296.173 502.114 296.679 503.296 297.693 501.608C298.03 501.102 298.874 500.932 299.548 500.764C301.068 500.426 302.925 499.751 304.275 500.258C305.794 500.764 306.3 499.413 307.482 499.413C309.507 499.413 311.364 499.245 313.22 498.907C314.234 498.739 315.245 498.231 316.427 497.895C316.427 497.725 316.427 497.557 316.259 497.387C315.077 497.219 313.728 497.051 312.714 497.051C314.739 496.038 316.597 495.194 318.452 494.35C318.452 494.518 318.622 494.518 318.622 494.688C318.114 494.856 317.779 495.532 317.103 495.532H319.466C318.96 495.532 318.284 497.051 317.441 498.063C323.517 496.544 329.087 495.194 334.487 493.844V493.507C333.814 493.674 333.306 493.674 332.8 493.844C332.632 490.299 336.513 491.481 337.864 489.456C336.175 489.962 334.487 490.467 332.8 490.805V490.467C338.538 487.936 344.446 485.405 350.185 482.872C350.185 483.042 350.355 483.042 350.355 483.21C349.341 483.885 348.329 484.391 346.81 485.235C347.821 485.405 348.497 485.405 349.003 485.573C349.003 486.079 349.003 486.417 348.835 486.587C351.704 486.417 351.029 483.885 351.872 482.366C352.38 482.534 353.054 482.872 353.562 482.704C355.079 482.366 356.431 481.86 357.948 481.354C359.638 480.846 361.325 480.341 363.013 479.665C365.714 478.483 368.245 476.966 370.946 475.614C371.452 475.446 372.296 475.614 372.972 475.614C373.478 475.614 373.816 475.276 374.154 474.94C374.827 474.432 375.503 473.421 376.009 473.589C378.372 473.926 380.06 473.083 380.736 470.889C380.905 470.889 380.905 470.719 381.073 470.719C381.917 470.046 382.761 469.37 383.605 468.862C387.32 466.837 390.862 464.813 394.577 462.786C394.745 462.618 395.083 462.786 395.421 462.786C395.927 462.786 396.603 462.786 396.939 462.618C399.134 461.604 401.159 460.424 403.185 459.243C402.679 459.073 403.185 458.905 401.497 458.735V458.397C403.185 458.061 403.691 457.891 404.704 457.553L404.366 457.217C408.755 452.829 414.325 449.622 418.544 445.909C419.388 446.077 419.726 446.245 420.232 446.245C420.402 445.739 420.402 445.233 420.402 444.895C421.075 444.051 421.751 443.038 422.595 442.364C426.308 438.987 430.361 436.118 433.736 432.573C438.63 427.678 443.357 422.616 447.745 417.383C451.796 412.657 455.847 407.93 459.222 402.698C463.948 395.44 467.999 388.014 472.218 380.419C475.257 375.016 477.958 369.616 480.995 364.214C481.333 363.708 482.009 363.034 482.515 363.034C487.071 362.526 491.63 362.188 496.019 361.682C497.03 361.514 498.212 360.839 499.226 360.333C498.718 359.489 498.38 358.475 497.874 357.632C497.2 356.618 496.187 355.774 495.511 354.762C494.837 353.919 494.331 352.905 493.823 351.893C493.318 351.049 492.812 350.374 492.304 349.53C491.292 347.673 490.279 345.817 489.435 343.792C489.267 343.284 488.929 342.44 489.097 341.934C492.136 335.352 493.318 328.262 496.187 321.68C499.056 314.928 499.9 307.333 501.251 300.075C502.433 293.155 503.107 286.235 503.95 279.313C504.458 274.419 505.132 269.692 505.302 264.798C506.314 257.034 505.976 249.776 505.808 242.518V242.518V242.518V242.518ZM81.4738 430.885C80.2941 429.536 79.2804 428.016 78.0988 426.667L78.6047 426.159C80.4621 428.186 82.3195 430.21 84.175 432.405C83.1633 431.899 81.9816 431.561 81.4738 430.885V430.885V430.885V430.885ZM84.175 432.405C84.6808 432.237 85.1886 432.237 85.6945 432.067C86.2004 432.911 86.5383 433.924 87.0441 434.936C84.6808 434.768 83.4992 433.755 84.175 432.405V432.405V432.405V432.405ZM259.714 502.114V501.608C262.921 501.27 265.96 500.932 269.167 500.596V501.102C265.96 501.608 262.921 501.946 259.714 502.114V502.114V502.114V502.114ZM302.249 497.725C299.886 498.233 297.355 498.569 294.991 498.907C294.148 499.077 293.136 499.921 292.798 498.401C292.46 498.569 292.122 498.569 291.784 498.739C292.628 501.27 294.654 499.245 296.341 500.258C292.628 500.764 289.083 501.102 285.54 501.608V501.27C286.552 501.102 287.734 500.932 288.747 500.764V500.258C287.058 500.089 285.37 499.921 283.683 499.921C283.177 499.921 282.501 500.596 281.995 500.764C281.32 500.932 280.644 501.102 279.8 501.102C276.931 501.27 274.062 501.27 271.361 501.44C271.193 501.44 270.855 501.27 270.687 501.27V500.764C281.995 499.245 293.136 497.725 304.445 496.208C304.612 496.544 304.612 496.882 304.78 497.219C303.769 497.219 303.093 497.557 302.249 497.725V497.725V497.725V497.725ZM304.78 496.038C308.663 495.532 312.208 495.194 315.921 494.688C308.157 496.882 305.626 497.219 304.78 496.038V496.038V496.038V496.038ZM157.767 155.255C163.169 147.829 168.737 140.401 174.14 132.805C175.827 130.612 177.177 128.249 178.866 126.055C179.372 125.38 180.046 125.042 180.892 124.366L180.722 124.03C181.398 123.184 182.071 122.51 182.409 121.835C183.253 120.485 183.761 118.966 184.435 117.446C184.605 117.108 185.111 116.772 185.111 116.772C187.474 117.952 187.474 115.421 188.318 114.577C189.837 112.889 191.357 111.032 192.706 109.344C193.718 107.995 194.732 106.813 195.575 105.294C195.743 104.788 195.237 103.944 195.07 103.268H194.564C195.07 102.93 195.575 102.424 196.081 102.087C196.251 102.087 196.251 102.087 196.419 101.919C197.433 100.399 198.445 98.8796 199.458 97.53C201.484 94.8288 203.677 92.1276 206.04 89.7643C205.702 90.6081 205.364 91.4538 205.028 92.1276C205.196 92.1276 205.196 92.2975 205.364 92.2975C207.39 89.5964 209.585 87.0651 211.611 84.364C211.441 84.196 211.273 84.0261 211.105 84.0261C210.261 84.8698 209.585 85.7136 208.741 86.5573C208.571 86.3893 208.403 86.2214 208.234 86.2214C209.923 84.0261 211.611 81.8327 213.298 79.2995C213.636 79.8073 213.974 80.4811 214.648 81.8327C215.323 80.1432 215.999 78.9616 216.505 77.7819C215.999 78.2878 215.323 78.7936 214.818 79.2995L214.31 78.7936L217.349 74.237C220.556 69.6784 223.763 64.9538 226.97 60.3952C228.152 58.7077 229.671 57.3581 230.683 55.6706C233.89 49.2565 238.954 44.1921 242.835 38.2839C243.681 37.1042 244.861 36.0905 245.874 35.0768C246.718 34.0651 247.394 34.403 248.07 35.2468C252.626 40.985 257.183 46.8932 261.739 52.6315C265.116 56.8522 268.491 60.903 271.698 65.2897C275.581 70.6921 279.294 76.0925 283.177 81.4948C287.566 87.739 291.954 93.985 296.173 100.399C302.587 109.85 308.663 119.303 315.077 128.755C319.804 135.676 324.53 142.426 329.087 149.348H320.478C312.546 149.178 304.445 148.503 296.511 148.841C285.708 149.348 274.737 150.528 263.935 151.372C250.263 152.553 236.421 152.723 222.751 152.723C217.855 152.723 212.96 153.397 208.066 153.735C202.157 154.073 196.419 154.411 190.511 154.581C183.591 154.917 176.839 155.087 169.919 155.255C166.038 155.424 161.986 155.255 157.767 155.255V155.255V155.255V155.255ZM351.366 232.897V234.417C351.198 234.417 351.029 234.585 350.691 234.585C350.017 232.221 349.341 229.69 348.497 227.327C346.81 222.432 344.952 217.538 341.915 213.149C338.538 208.423 335.501 203.528 332.124 198.633C331.28 197.452 330.099 196.438 329.087 195.426C325.542 191.544 321.997 187.493 317.441 184.624C310.689 180.405 303.769 176.86 296.341 173.821C294.316 172.977 292.46 171.966 290.435 170.784H294.486L323.349 170.278C329.593 170.108 335.669 170.108 341.915 169.77C343.435 169.77 344.279 170.278 345.122 171.628C346.642 174.159 348.159 176.69 349.847 179.223C350.017 179.559 350.355 180.067 350.355 180.573C350.355 184.286 350.355 188.169 350.523 191.882C350.693 195.764 351.029 199.477 351.198 203.36C351.198 207.241 350.861 211.292 351.029 215.342C351.198 221.083 351.366 226.989 351.366 232.897V232.897V232.897V232.897ZM169.751 176.354C177.685 176.016 185.278 175.508 193.044 175.173C199.12 174.835 205.364 174.665 211.441 174.329C213.974 174.159 216.337 173.991 218.868 174.329C216.167 175.678 213.468 177.028 211.105 178.717C208.066 180.741 205.196 183.442 202.157 185.637C199.12 187.831 196.419 190.532 193.888 193.401C190.681 197.284 187.136 200.659 183.761 204.372C181.398 207.073 178.696 209.604 176.671 212.473C173.802 216.188 171.271 220.239 168.57 224.458C169.413 208.423 170.427 192.557 169.751 176.354V176.354V176.354V176.354ZM279.97 338.727C274.568 340.077 268.999 341.596 263.429 342.272C258.702 342.948 253.808 342.778 248.913 342.778C244.525 342.778 240.304 342.61 235.915 342.272C231.021 341.766 226.126 341.258 221.4 339.065C217.349 337.208 213.13 335.52 209.079 333.495C205.028 331.469 200.976 329.106 197.939 325.393C195.743 322.692 192.706 320.499 190.005 318.135C190.511 320.161 191.693 321.848 193.55 323.03C192.706 324.044 191.525 323.536 189.837 320.837C189.331 321.173 188.823 321.342 188.486 321.51C188.993 320.329 189.499 319.149 190.005 318.135C189.331 316.786 188.486 315.266 187.812 313.917C186.46 311.721 185.111 309.358 183.929 307.165C183.591 306.657 183.591 306.151 183.253 305.645C182.409 304.632 181.566 303.62 180.892 302.606C179.54 300.581 178.359 298.387 176.671 296.362C176.671 296.868 176.839 297.374 176.839 298.049C176.671 298.049 176.503 298.217 176.503 298.217L172.958 289.61C172.788 289.61 172.788 289.61 172.62 289.78L175.659 300.919C175.489 300.919 175.321 301.089 175.152 301.089C174.646 300.413 174.14 299.737 173.802 298.893C173.464 297.544 172.452 297.544 171.607 298.049C171.101 298.387 170.763 299.569 170.933 300.075C172.114 302.944 173.464 305.813 174.814 308.684C175.152 309.696 175.489 310.54 175.995 311.553C176.165 311.891 176.671 312.227 176.671 312.735C177.347 314.085 177.853 315.434 178.696 316.616C180.216 318.641 181.903 320.667 183.423 322.692C184.943 324.717 186.292 326.913 187.642 328.938C187.812 329.276 188.318 329.276 188.486 329.444C189.331 331.975 192.2 333.833 194.226 332.821C194.732 336.702 198.95 338.053 200.64 341.766C198.614 340.923 197.095 340.247 195.743 339.571C195.575 339.741 195.575 339.909 195.407 340.247C197.433 341.258 199.458 342.272 201.314 343.454C203.001 344.466 204.691 345.479 206.208 346.661C208.236 348.516 210.597 349.53 213.468 350.206C213.298 349.698 213.13 349.53 213.13 349.53C217.855 351.725 222.751 354.087 226.464 355.944C208.909 356.282 190.175 356.62 170.763 356.956C170.763 353.749 170.595 350.712 170.595 347.505C170.595 346.155 170.933 344.973 170.763 343.622C170.257 335.858 170.257 328.094 169.245 320.499C168.232 312.397 168.232 304.464 168.402 296.362C168.57 291.973 168.232 287.417 168.064 283.028C168.064 277.12 168.064 271.382 168.232 265.473C168.232 264.63 168.57 263.954 168.907 263.11H169.413C169.581 263.448 169.413 263.954 169.751 264.124C170.257 264.63 171.101 265.473 171.439 265.305C172.452 264.63 173.97 263.954 174.308 262.942C175.152 260.917 175.489 258.721 175.489 256.696C175.489 255.178 176.165 254.165 176.839 253.151C177.177 252.645 177.347 252.139 177.685 251.464C177.009 250.958 176.333 250.62 175.489 249.946C176.165 248.089 175.995 245.893 178.528 244.882C178.866 244.712 178.866 243.868 179.034 243.362C179.202 242.012 179.372 240.493 179.54 239.143C179.878 239.649 180.046 239.817 180.384 240.155C180.554 239.817 180.722 239.649 180.722 239.649C180.722 238.973 180.554 237.624 180.722 237.624C182.747 237.286 181.903 235.092 182.917 234.079C183.085 233.911 182.747 233.403 182.747 233.067C182.747 232.729 182.747 232.221 182.917 232.221C185.278 231.716 184.943 229.184 186.46 228.003C186.968 227.665 187.136 227.159 187.812 226.315C189.161 228.678 186.798 229.86 186.63 231.548C189.499 229.86 190.343 225.809 188.655 224.628C189.331 224.12 190.005 223.446 190.511 222.77C192.368 220.745 194.394 218.887 196.081 216.862C197.263 215.342 197.939 213.487 199.12 211.967C199.796 211.124 201.146 210.448 202.157 209.942C205.196 208.255 208.066 206.397 209.923 203.528C210.261 203.19 210.767 202.852 211.273 202.516C211.778 202.178 212.792 202.178 212.96 201.671C213.13 201.335 212.622 200.491 212.284 199.983C212.96 199.645 213.636 198.971 214.986 198.296C214.48 199.309 214.312 199.983 213.974 200.659L214.818 201.503C216.337 200.321 218.7 198.971 220.218 197.958C220.218 197.79 219.374 197.114 219.374 197.114C218.362 197.622 216.843 198.466 215.323 199.139C215.661 198.633 215.661 198.296 215.829 198.128C218.193 196.608 220.556 195.089 223.087 193.907C228.995 191.206 234.903 188.507 240.81 185.973C241.823 185.467 243.173 185.805 244.355 185.805C244.861 185.805 245.198 185.805 245.706 185.637C248.405 184.794 251.107 183.95 253.808 183.274C254.989 182.936 256.339 182.768 257.521 182.768C262.585 182.936 267.648 182.936 272.712 183.274C274.905 183.442 276.931 183.95 278.956 184.624C281.489 185.467 284.189 186.649 286.552 187.831C289.421 189.35 292.122 191.038 294.823 192.895C299.718 196.102 304.275 199.645 309.169 202.516C313.896 205.385 317.609 209.266 320.648 213.655C324.361 218.887 328.581 223.614 330.269 230.028L332.8 241.169C333.306 243.194 334.487 245.219 333.982 247.583C333.138 251.801 332.462 256.19 331.788 260.411C331.45 262.098 331.112 263.786 331.28 265.473C331.618 270.706 329.593 275.262 327.568 279.989C326.892 281.508 325.88 283.028 325.036 284.716C325.204 284.883 326.218 285.391 326.386 285.391L327.905 282.352C328.073 282.352 328.073 282.352 328.243 282.522C327.4 284.883 326.724 287.417 325.88 289.78C323.855 295.012 321.829 300.413 319.298 305.477C317.946 308.346 315.583 310.71 313.896 313.409C312.208 315.772 310.859 318.303 309.169 320.499C307.652 322.356 306.132 324.212 304.107 325.563C299.548 328.938 294.823 332.313 289.929 335.014C286.89 336.872 283.345 337.883 279.97 338.727V338.727V338.727V338.727ZM190.005 329.782L189.837 329.95C189.499 329.782 188.993 329.612 188.655 329.276L184.605 323.2C184.267 322.692 184.099 322.186 184.267 321.51C186.122 324.38 187.98 327.081 190.005 329.782V329.782V329.782V329.782ZM294.991 352.905C302.587 349.698 308.833 345.141 314.571 339.909C315.415 339.065 316.259 338.221 317.273 337.546C324.361 333.157 329.593 327.081 334.32 320.329C339.72 312.565 343.265 303.788 347.654 295.518C347.991 294.842 348.329 294.167 348.667 293.661C348.329 312.903 350.523 331.807 353.054 350.88C333.982 351.555 314.571 352.231 294.991 352.905V352.905V352.905V352.905ZM466.144 347.842C465.974 348.18 465.636 348.516 465.468 348.854C465.298 348.516 465.298 348.01 465.13 347.337C464.116 350.036 461.923 348.686 460.404 348.686C451.29 348.854 442.007 348.854 432.892 348.854C424.114 348.854 415.169 348.854 406.392 349.024C403.523 349.024 400.484 349.698 397.614 349.868C390.695 350.206 383.775 350.374 376.855 350.542C376.347 350.542 375.841 349.698 374.997 349.024C374.829 349.362 374.491 349.868 373.984 350.542C373.816 350.206 373.478 349.868 373.14 349.362C372.972 349.868 372.802 350.374 372.634 350.712H372.128C371.79 348.348 371.114 346.155 371.114 343.792C371.114 338.727 371.62 333.665 371.79 328.6C371.958 326.237 371.79 324.044 371.79 321.848C372.466 322.356 372.972 322.692 373.648 323.2C373.984 322.524 374.321 322.018 374.659 321.51C374.659 321.51 374.321 321.342 373.984 321.005C374.321 320.837 374.659 320.499 374.659 320.331C374.829 319.823 375.165 319.317 375.165 318.979C375.165 317.798 374.829 316.786 374.659 315.772C374.829 315.772 374.997 315.772 375.165 315.604L376.179 320.667H376.685C376.011 319.485 378.204 318.473 376.347 317.122C376.179 316.954 376.517 315.94 376.517 315.434C376.011 314.423 375.673 313.409 375.165 312.059C375.335 311.891 375.841 311.721 376.347 311.553C375.673 311.216 375.165 310.878 374.659 310.708C376.347 309.19 376.347 308.346 374.829 306.657C375.165 306.489 375.503 306.489 375.503 306.321C375.503 304.801 375.503 303.282 375.165 301.762C374.829 300.075 375.673 298.049 373.14 297.038C373.31 297.544 373.478 297.882 373.816 298.387C373.816 298.387 373.31 298.555 372.802 298.893C370.609 296.868 371.958 294.167 371.452 291.13C372.634 291.467 373.478 291.805 374.321 292.141C373.984 290.962 373.14 289.61 372.634 288.091H371.958V276.952C371.958 277.12 373.14 277.12 373.816 277.288C373.816 277.12 373.984 276.952 373.984 276.782C373.478 276.106 372.802 275.432 372.128 274.589L372.466 274.251C371.114 272.563 371.79 270.2 371.79 269.694V257.878C373.478 259.565 370.946 261.76 373.478 262.772V261.085H373.31C373.14 258.553 373.14 256.022 372.972 253.489H372.634C372.466 253.827 372.466 253.997 372.296 254.333H371.958C372.296 240.999 372.634 227.665 372.972 213.993C374.659 216.188 376.517 218.214 377.698 220.407C381.579 227.497 386.644 233.573 391.37 239.987C395.421 245.557 399.134 251.633 402.847 257.372C407.404 264.292 411.792 271.212 416.351 278.133C419.726 283.366 423.271 288.598 426.816 293.661C430.023 298.217 433.398 302.606 436.775 306.995C439.644 310.878 442.681 314.76 445.55 318.641C448.927 323.368 452.302 328.094 455.679 332.651C457.366 335.014 459.222 337.378 461.079 339.741C462.091 341.091 463.611 342.104 464.624 342.948C464.454 342.948 464.286 342.948 463.948 342.778C464.454 343.454 464.792 343.96 465.13 344.298C466.987 345.309 467.155 346.323 466.144 347.842V347.842V347.842V347.842ZM474.751 305.645V304.464C474.751 304.801 474.919 305.307 474.751 305.645V305.645V305.645V305.645ZM480.489 231.21C480.321 231.21 479.308 230.196 479.14 230.028C478.97 230.534 479.14 231.04 478.802 231.716C478.634 231.21 477.452 231.378 477.452 230.872C477.282 233.235 478.464 235.598 478.296 237.962C478.802 237.624 480.827 237.454 481.333 236.948C481.503 237.118 481.839 237.286 482.009 237.286C478.634 239.817 479.478 242.35 480.995 245.219C481.333 245.893 482.347 247.245 481.333 248.594C480.995 248.932 481.503 249.946 481.671 250.79H482.177V251.126L480.659 251.633C480.321 251.126 478.296 250.114 478.296 249.27V257.878C479.984 258.383 479.984 260.747 480.659 261.928C480.995 261.423 481.165 261.085 481.333 260.579L481.503 260.747C481.333 261.76 481.165 262.772 480.827 263.786C480.489 265.305 480.152 266.655 479.984 268.174C479.984 268.342 480.321 268.68 480.321 268.848C478.464 273.069 479.478 277.796 478.802 282.184C478.296 285.391 478.802 288.766 478.464 292.141C478.126 295.012 477.452 298.049 476.777 300.919C476.609 301.424 476.271 301.594 475.427 301.932C475.763 299.907 475.595 298.555 475.257 296.7C475.089 296.7 472.894 295.518 472.726 295.518C472.726 297.882 474.075 301.089 474.583 303.788C474.075 303.62 472.05 302.438 471.882 302.438C471.544 304.464 471.544 307.165 471.376 309.358C471.206 311.046 469.687 312.565 469.519 314.423C469.519 315.434 470.7 316.11 470.53 317.798H471.882C471.882 314.423 473.402 311.383 473.402 307.839H473.907C474.075 308.176 474.583 308.514 474.413 308.684C474.075 310.54 473.402 312.565 473.57 314.423C473.57 315.434 474.413 316.448 474.075 317.63C473.737 318.641 473.57 319.655 473.402 321.173C473.232 320.329 473.064 319.993 473.064 319.485C472.894 319.485 471.376 319.317 471.206 319.317C471.038 320.329 472.388 321.342 472.22 322.186C472.05 322.356 471.882 322.356 471.544 322.524L465.974 314.423C461.585 308.008 457.196 301.594 452.808 295.012C451.626 293.323 450.614 291.635 449.771 289.948C444.538 281.003 438.8 272.393 432.386 264.124C427.489 257.878 423.609 251.126 419.05 244.544C414.831 238.299 410.611 232.221 406.392 225.977C404.872 223.952 403.017 222.094 401.665 219.901C397.277 212.981 393.396 205.891 389.007 198.971C385.294 193.231 381.241 187.663 377.361 182.092C376.011 180.235 374.659 178.21 373.31 176.184C373.14 175.846 372.972 175.508 372.972 175.003C372.634 171.29 372.296 167.577 372.128 164.032C372.128 160.655 372.466 157.28 372.466 153.735V150.698C372.466 149.854 372.634 149.178 372.634 148.335C372.802 148.165 372.972 147.829 373.14 147.659C368.245 147.659 363.183 147.491 358.286 147.659C355.081 147.829 353.392 146.477 351.198 144.116C344.784 136.856 340.058 128.587 334.487 120.823C329.255 113.395 323.855 106.137 318.452 98.8796C314.066 92.9714 309.677 87.2331 305.288 81.3249C300.394 74.5749 295.667 67.8229 290.603 61.071C284.527 52.9694 278.282 44.8679 272.036 36.7663C269.167 33.0515 265.96 29.5085 262.753 25.6257C264.946 25.9636 266.972 26.3015 268.999 26.4694L277.101 26.9753C283.177 27.4831 289.253 27.819 295.329 28.6628C300.394 29.3386 305.456 30.3522 310.689 31.196C321.829 33.0515 332.8 36.0905 343.435 39.6354C349.679 41.6608 355.755 44.362 361.831 46.8932C375.503 52.4636 388.501 59.2136 401.327 66.3034C405.38 68.4968 407.741 72.0417 410.78 75.2487C415.169 79.8073 419.558 84.364 423.777 89.0905C428.671 94.6608 433.23 100.399 437.954 106.137C442.175 111.202 446.564 116.264 450.782 121.329C452.134 122.848 453.146 124.704 454.327 126.391C457.029 130.442 460.066 134.325 462.429 138.714C464.118 141.921 465.13 145.633 466.312 149.178C467.999 154.411 469.687 159.475 471.376 164.708C472.556 168.589 473.57 172.639 474.413 176.69C475.089 179.391 474.919 182.26 475.763 184.962C476.777 188.507 475.763 192.387 476.777 195.932C476.945 196.27 477.114 196.776 477.282 197.114C477.958 197.79 478.464 198.464 477.452 199.477C477.282 199.645 477.282 200.321 477.452 200.827C477.788 200.491 477.958 200.153 478.296 199.645C478.296 199.983 478.464 200.153 478.464 200.321C478.464 200.997 478.296 201.671 478.464 202.346C478.464 202.684 478.802 203.19 478.97 203.528C479.308 203.19 479.646 203.022 480.321 202.516C481.839 208.255 482.009 213.993 482.009 219.901C482.009 225.471 483.021 231.04 480.659 236.442C481.165 234.585 479.984 232.897 480.489 231.21V231.21V231.21V231.21Z" fill="#DD3735"/>
<path fill-rule="evenodd" clip-rule="evenodd" d="M373.189 297.4C373.357 297.4 373.527 297.57 373.527 297.57L373.357 297.4C373.357 297.232 373.357 297.232 373.189 297.4V297.4V297.4V297.4ZM399.857 464.164C398.002 465.514 396.145 466.695 393.781 467.201C393.613 467.033 393.613 466.863 393.443 466.695C395.301 465.514 397.326 464.332 399.184 463.15C399.352 463.488 399.689 463.826 399.857 464.164V464.164V464.164V464.164ZM83.3809 235.455C85.2363 233.092 87.0938 230.729 89.1191 228.367C89.2871 228.535 90.6387 228.873 90.8066 229.041C88.9512 231.404 86.418 234.611 84.5625 237.143C84.2246 236.807 83.7188 235.625 83.3809 235.455V235.455V235.455V235.455ZM35.4453 318.162C34.0938 315.293 32.7441 312.254 31.3945 309.385C31.5625 309.217 32.7441 308.709 32.9121 308.709C34.7695 311.41 35.6133 314.617 36.9629 317.486C36.9629 317.486 35.6133 318.162 35.4453 318.162V318.162V318.162V318.162ZM78.4863 237.143C77.4727 238.662 76.4609 240.35 75.4473 241.869C75.2793 241.701 73.4219 242.545 73.2539 242.375C74.2656 240.857 76.7969 238.156 77.8105 236.637C77.9785 236.807 78.1484 236.975 78.4863 237.143V237.143V237.143V237.143ZM381.797 471.084C381.967 471.084 381.967 470.914 382.135 470.914C383.316 471.084 384.668 471.252 386.018 471.252C383.822 472.771 382.473 472.604 381.797 471.084V471.084V471.084V471.084ZM78.8223 244.232C78.9922 243.727 79.3301 243.219 79.666 242.713C80.0039 242.713 80.5117 242.545 80.5117 242.545C81.1855 241.363 81.1855 240.52 81.8613 239.506C81.6934 239.338 81.5234 239.338 81.3555 239.168C80.3418 239.844 79.3301 240.688 78.3164 241.363C78.6543 241.701 78.6543 241.869 78.6543 242.207C77.3047 242.039 76.7969 242.713 76.123 244.57C75.9531 245.076 75.1094 245.244 74.2656 245.92C74.0977 246.258 73.9277 247.102 73.5898 247.945L73.7598 248.115C73.4219 248.451 72.916 248.621 72.916 248.621C71.9023 249.633 70.7207 250.479 69.709 251.49C69.5391 251.996 69.3711 252.504 69.3711 253.01C70.5527 251.828 72.5781 249.633 74.0977 248.283L74.2656 248.451C74.9414 247.439 75.4473 246.426 76.123 245.414C76.291 245.582 76.291 245.752 76.4609 245.92C75.9531 247.27 75.4473 248.789 74.9414 250.141C74.6035 250.309 74.0977 250.646 74.0977 250.479C73.4219 250.984 72.916 251.658 72.2402 252.166L69.2031 254.191C67.5137 255.711 65.8262 257.061 63.9707 258.58C62.7891 260.436 61.6074 262.123 60.2559 264.318C62.2812 263.812 62.7891 264.656 62.6191 266.344C64.9824 266.682 65.1504 264.824 65.8262 263.475C65.9961 263.137 66.1641 262.461 66.502 262.293C68.0215 260.943 69.709 259.762 71.3965 258.41C71.7344 258.072 71.7344 257.398 71.7344 256.891C71.7344 256.723 70.8906 256.723 70.3848 256.555C71.9023 254.865 74.0977 251.996 75.6172 250.141C76.4609 249.633 77.3047 248.959 77.3047 248.451C77.1348 246.596 78.3164 246.09 79.666 245.414C78.9922 244.908 78.8223 244.4 78.8223 244.232V244.232V244.232V244.232Z" fill="#DD3735"/>
<path fill-rule="evenodd" clip-rule="evenodd" d="M82.1991 242.375C81.5233 243.557 80.8495 244.57 80.1737 245.752L79.16 245.244C78.4862 249.127 76.1229 252.504 73.7597 253.178C74.4354 253.516 75.1093 253.854 75.6171 253.684C76.1229 253.516 76.4608 252.672 76.7968 252.166L81.3554 245.582L82.8749 243.051L82.1991 242.375V242.375V242.375ZM25.9921 316.473C26.8358 316.473 27.6796 316.643 28.6932 316.643C28.6932 315.967 29.537 316.137 29.537 315.461H30.0429C30.0429 316.305 30.2128 316.98 30.2128 317.824H26.6679C26.4979 317.654 25.8241 316.643 25.9921 316.473V316.473V316.473V316.473ZM24.6425 308.709C24.1366 308.203 23.2909 307.697 23.2909 307.189C23.1229 306.516 23.6288 305.672 24.1366 304.828C24.4725 306.008 24.6425 307.021 24.9804 308.203C24.8104 308.371 24.6425 308.541 24.6425 308.709V308.709V308.709V308.709ZM28.8612 297.906C29.537 299.596 30.2128 301.451 30.8866 303.139C30.7186 303.139 29.705 303.646 29.537 303.814C28.8612 302.127 28.0175 300.27 27.3436 298.582C27.5116 298.414 28.5233 297.906 28.8612 297.906V297.906V297.906V297.906ZM404.584 459.27C405.428 458.932 406.441 458.762 407.791 458.424C406.271 459.605 405.09 460.449 404.078 461.463C403.908 461.293 403.74 461.125 403.572 461.125C403.908 460.449 404.246 459.943 404.584 459.268V459.27V459.27V459.27ZM197.144 102.619C198.156 101.943 199 101.438 200.014 100.762L200.351 101.1C199.338 102.451 198.494 103.801 197.312 105.488C197.144 104.307 197.144 103.631 196.974 102.787C196.807 102.787 196.974 102.787 197.144 102.619V102.619V102.619V102.619ZM246.598 188.025C248.117 187.352 249.637 186.676 251.494 185.832C251.324 186.844 251.324 187.52 251.324 188.195C250.818 188.025 250.142 187.857 249.637 187.857C248.625 188.025 246.767 189.377 245.924 189.545C245.754 189.545 246.598 188.195 246.598 188.025V188.025V188.025V188.025ZM373.189 331.158C373.527 332.846 376.734 333.689 373.527 335.377C374.033 335.715 374.539 335.885 375.047 336.223C375.047 336.391 374.877 336.729 374.709 336.896C374.371 337.066 373.695 337.404 373.357 337.234C373.189 337.234 372.851 336.559 372.851 336.223C372.851 334.703 373.021 333.184 373.189 331.158V331.158V331.158V331.158Z" fill="#DD3735"/>
</g>
<defs>
<clipPath id="clip0_406_1587">
<rect width="500" height="500" fill="white" transform="translate(6 6)"/>
</clipPath>
</defs>
</svg>
