<svg width="180" height="180" viewBox="0 0 180 180" fill="none" xmlns="http://www.w3.org/2000/svg">
<g clip-path="url(#clip0_406_1900)">
<path fill-rule="evenodd" clip-rule="evenodd" d="M168.084 72H111.518C108.68 72 106.376 69.696 106.376 66.8585V7.90691C106.376 3.54109 102.835 0 98.4728 0H78.2801C73.9142 0 70.3764 3.54109 70.3764 7.90691V66.5018C70.3764 69.5422 67.9186 72.0131 64.8782 72.0262L46.3415 72.1145C43.275 72.1309 40.7844 69.6436 40.791 66.5804L40.9055 7.92C40.9153 3.54764 37.3742 0 33.0019 0H12.8255C8.45969 0 4.92188 3.54109 4.92188 7.90691V172.98C4.92188 176.858 8.06369 180 11.9386 180H168.084C171.962 180 175.104 176.858 175.104 172.98V79.02C175.104 75.1418 171.962 72 168.084 72V72V72ZM141.558 133.979C141.558 139.061 137.438 143.182 132.355 143.182H116.398C111.315 143.182 107.195 139.061 107.195 133.979V118.021C107.195 112.939 111.315 108.818 116.398 108.818H132.355C137.438 108.818 141.558 112.939 141.558 118.021V133.979V133.979V133.979Z" fill="#FF6600"/>
</g>
<defs>
<clipPath id="clip0_406_1900">
<rect width="180" height="180" fill="white"/>
</clipPath>
</defs>
</svg>
