<svg width="181" height="181" viewBox="0 0 181 181" fill="none" xmlns="http://www.w3.org/2000/svg">
<path d="M117.769 103.493V108.065H126.028C127.721 108.065 130.626 106.828 130.727 103.367V101.599C130.727 98.6437 128.302 96.9008 126.028 96.9008H121.911V94.7791H130.07V90.182H122.24C120.219 90.182 117.516 91.849 117.516 94.9559V96.5472C117.516 99.654 120.194 101.245 122.24 101.245C127.923 101.271 120.876 101.245 126.129 101.245V103.468L117.769 103.493ZM73.5151 102.382C73.5151 102.382 77.9354 102.003 77.9354 96.2946C77.9354 90.5861 72.5805 90.0557 72.5805 90.0557H62.9316V108.065H67.7813V103.721L71.9743 108.065H79.1479L73.5151 102.382V102.382ZM71.646 98.6942H67.7813V94.577H71.6712C71.6712 94.577 72.7574 94.9812 72.7574 96.623C72.7574 98.2648 71.646 98.6942 71.646 98.6942V98.6942ZM89.9082 90.182H84.9827C81.4717 90.182 80.2845 93.3646 80.2845 94.8801V108.065H85.21V104.908H89.8324V108.065H94.6063V94.8801C94.6063 91.0408 91.1206 90.182 89.9082 90.182V90.182ZM89.8324 99.8056H85.1847V95.4358C85.1847 95.4358 85.1847 94.4507 86.7255 94.4507H88.4179C89.7819 94.4507 89.8071 95.4358 89.8071 95.4358V99.8056H89.8324V99.8056ZM96.8543 90.182H101.982V108.065H96.8543V90.182ZM109.181 103.443V90.182H104.078V108.065H116.076V103.443H109.181Z" fill="#CC0000"/>
<path d="M32.4946 108.065H52.4492C52.4492 108.065 48.6351 90.6619 61.2645 83.6147C64.0177 82.276 72.7826 77.2747 87.1296 87.8835C87.5843 87.5046 88.0137 87.2015 88.0137 87.2015C88.0137 87.2015 74.8791 74.0921 60.2542 75.5571C52.9038 76.2138 43.8611 82.9075 38.5568 91.7481C33.2524 100.589 32.4946 108.065 32.4946 108.065Z" fill="#CC0000"/>
<path d="M32.4946 108.065H52.4492C52.4492 108.065 48.6351 90.6619 61.2645 83.6147C64.0177 82.276 72.7826 77.2747 87.1296 87.8835C87.5843 87.5046 88.0137 87.2015 88.0137 87.2015C88.0137 87.2015 74.8791 74.0921 60.2542 75.5571C52.9038 76.2138 43.8611 82.9075 38.5568 91.7481C33.2524 100.589 32.4946 108.065 32.4946 108.065Z" fill="#CC0000"/>
<path d="M32.4946 108.065H52.4492C52.4492 108.065 48.6351 90.6619 61.2645 83.6146C64.0177 82.2759 72.7826 77.2747 87.1296 87.8834C87.5843 87.5045 88.0137 87.2014 88.0137 87.2014C88.0137 87.2014 74.8791 74.092 60.2542 75.5571C52.8786 76.2138 43.8359 82.9074 38.5315 91.748C33.2271 100.589 32.4946 108.065 32.4946 108.065ZM74.0708 76.9716L74.1718 75.2792C73.9445 75.1529 73.313 74.8498 71.7217 74.3951L71.6207 76.0622C72.4542 76.3401 73.2625 76.6432 74.0708 76.9716Z" fill="#CC0000"/>
<path d="M71.6713 82.3265L71.5702 83.9178C72.4038 83.943 73.2373 84.0441 74.0708 84.2209L74.1719 82.6548C73.3131 82.478 72.4795 82.377 71.6713 82.3265ZM62.3255 74.4457H62.578L62.0729 72.9049C61.2898 72.9049 60.4816 72.9554 59.648 73.0565L60.1279 74.5467C60.8604 74.471 61.5929 74.4457 62.3255 74.4457V74.4457ZM63.5379 83.741L64.1188 85.4838C64.8513 85.1302 65.5839 84.8271 66.3164 84.5998L65.7607 82.9327C64.9019 83.1853 64.1694 83.4631 63.5379 83.741ZM52.0703 77.0979L50.9337 75.355C50.3022 75.6834 49.6455 76.037 48.9635 76.4412L50.1254 78.2093C50.7821 77.8051 51.4136 77.4263 52.0703 77.0979ZM57.2484 88.4644L58.4608 90.283C58.8902 89.6516 59.3954 89.0706 59.9511 88.4897L58.8145 86.772C58.2335 87.3025 57.7031 87.8834 57.2484 88.4644ZM53.5859 96.5978L55.6318 98.2143C55.7329 97.2292 55.9097 96.2441 56.1623 95.259L54.3436 93.8193C54.0153 94.7539 53.7879 95.6884 53.5859 96.5978V96.5978ZM42.5225 84.5998L40.7291 83.0337C40.0724 83.6652 39.4409 84.2967 38.8599 84.9281L40.8049 86.5952C41.3353 85.9132 41.9163 85.2313 42.5225 84.5998ZM34.8943 95.8905L31.9895 94.8296C31.5096 95.9158 30.9792 97.1787 30.7266 97.8607L33.6313 98.9216C33.9597 98.0628 34.4901 96.8251 34.8943 95.8905ZM53.207 103.014C53.2575 104.352 53.3838 105.438 53.5101 106.196L56.5412 107.282C56.3138 106.297 56.0865 105.186 55.935 103.999L53.207 103.014Z" fill="#CC0000"/>
</svg>
