<svg width="181" height="181" viewBox="0 0 181 181" fill="none" xmlns="http://www.w3.org/2000/svg">
<path d="M136.395 113.558C131.059 116.339 103.413 127.706 97.5278 130.774C91.6423 133.843 88.3727 133.813 83.7231 131.591C79.0739 129.368 49.6544 117.485 44.3548 114.951C41.7063 113.686 40.3134 112.617 40.3134 111.608V101.5C40.3134 101.5 78.6141 93.1619 84.7973 90.9435C90.9802 88.7252 93.1255 88.6451 98.3872 90.5724C103.65 92.5006 135.113 98.1771 140.313 100.082L140.311 110.047C140.312 111.046 139.112 112.142 136.395 113.558" fill="#912626"/>
<path d="M136.393 103.51C131.057 106.29 103.413 117.657 97.5271 120.725C91.6419 123.794 88.3724 123.764 83.7232 121.542C79.0735 119.32 49.6552 107.435 44.356 104.903C39.0567 102.37 38.9458 100.627 44.1513 98.5885C49.3567 96.5494 78.6138 85.0709 84.7978 82.8526C90.9806 80.635 93.1255 80.5541 98.3872 82.4822C103.649 84.4096 131.129 95.3475 136.329 97.2517C141.53 99.1584 141.73 100.728 136.393 103.51" fill="#C6302B"/>
<path d="M136.395 97.2025C131.059 99.9845 103.413 111.351 97.5278 114.42C91.6423 117.488 88.3727 117.458 83.7231 115.236C79.0735 113.014 49.6544 101.129 44.3548 98.5962C41.7063 97.3306 40.3134 96.2634 40.3134 95.2537V85.1447C40.3134 85.1447 78.6141 76.8072 84.7973 74.5888C90.9802 72.3705 93.1255 72.29 98.3872 74.2177C103.65 76.1455 135.113 81.8208 140.313 83.7259L140.311 93.6919C140.312 94.6908 139.112 95.7869 136.395 97.2025Z" fill="#912626"/>
<path d="M136.393 87.1544C131.057 89.9357 103.413 101.302 97.5271 104.371C91.6419 107.439 88.3724 107.409 83.7232 105.186C79.0735 102.965 49.6552 91.0802 44.356 88.5482C39.0567 86.0157 38.9458 84.272 44.1513 82.2329C49.3567 80.195 78.6142 68.7157 84.7978 66.4978C90.9806 64.2798 93.1255 64.1993 98.3872 66.1271C103.649 68.0544 131.129 78.9915 136.329 80.8966C141.53 82.8028 141.73 84.3732 136.393 87.1544" fill="#C6302B"/>
<path d="M136.395 80.2412C131.059 83.0224 103.413 94.3896 97.5278 97.4592C91.6423 100.527 88.3727 100.497 83.7231 98.2744C79.0735 96.0529 49.6544 84.1677 44.3548 81.6357C41.7063 80.3689 40.3134 79.3013 40.3134 78.2927V68.1833C40.3134 68.1833 78.6141 59.8462 84.7973 57.6282C90.9802 55.4095 93.1255 55.3298 98.3872 57.2571C103.65 59.1849 135.113 64.8603 140.313 66.7654L140.311 76.731C140.312 77.729 139.112 78.8251 136.395 80.2412Z" fill="#912626"/>
<path d="M136.393 70.1931C131.057 72.9744 103.413 84.3416 97.527 87.4096C91.6418 90.4775 88.3723 90.4475 83.7231 88.226C79.0739 86.0033 49.6551 74.1189 44.3563 71.5865C39.0567 69.0545 38.9461 67.3103 44.1512 65.2717C49.3567 63.2334 78.6141 51.7556 84.7977 49.5369C90.9805 47.3185 93.1254 47.2388 98.3871 49.1666C103.649 51.0943 131.129 62.0314 136.329 63.9365C141.53 65.8412 141.73 67.4119 136.393 70.1931" fill="#C6302B"/>
<path d="M102.533 60.36L93.9356 61.2526L92.011 65.8838L88.9024 60.7158L78.9747 59.8236L86.3825 57.1522L84.1598 53.0514L91.0954 55.7639L97.6337 53.6233L95.8665 57.8635L102.533 60.36V60.36ZM91.4978 82.8279L75.452 76.1728L98.4443 72.6436L91.4978 82.8279V82.8279ZM69.2516 62.9342C76.0387 62.9342 81.5407 65.067 81.5407 67.6975C81.5407 70.3287 76.0387 72.4611 69.2516 72.4611C62.4645 72.4611 56.9625 70.3283 56.9625 67.6975C56.9625 65.067 62.4645 62.9342 69.2516 62.9342Z" fill="white"/>
<path d="M112.694 61.626L126.302 67.0034L112.706 72.3756L112.694 61.6256" fill="#621B1C"/>
<path d="M97.6395 67.5811L112.694 61.626L112.706 72.3756L111.23 72.953L97.6395 67.5811Z" fill="#9A2928"/>
</svg>
