<svg width="180" height="180" viewBox="0 0 180 180" fill="none" xmlns="http://www.w3.org/2000/svg">
<path d="M122.551 121.253C128.778 120.619 133.503 115.342 133.288 109.007C133.073 102.674 127.704 97.6068 121.262 97.6068H120.833C114.175 97.818 109.022 103.307 109.237 109.852C109.452 113.019 110.74 115.763 112.672 117.663C105.371 131.809 94.2049 142.154 77.4551 150.81C66.0737 156.722 54.2632 158.833 42.4527 157.356C32.7891 156.089 25.2732 151.867 20.5482 144.899C13.6769 134.554 13.0329 123.364 18.831 112.174C22.9113 104.151 29.3528 98.2399 33.4331 95.2841C32.5742 92.5396 31.2855 87.895 30.6415 84.5173C-0.49615 106.685 2.72526 136.665 12.1739 150.81C19.2601 161.367 33.648 167.912 49.5389 167.912C53.8334 167.912 58.128 167.489 62.4232 166.434C89.9103 161.156 110.74 145.11 122.551 121.253V121.253ZM160.346 95.0735C144.025 76.2831 119.974 65.9381 92.4871 65.9381H89.0514C87.1187 62.1379 83.0384 59.604 78.5289 59.604H78.0992C71.4428 59.8153 66.2893 65.3043 66.5035 71.8497C66.7184 78.1832 72.0868 83.2503 78.5289 83.2503H78.9581C83.6824 83.0391 87.7627 80.0833 89.4806 76.0718H93.346C109.667 76.0718 125.128 80.7164 139.086 89.7951C149.823 96.7623 157.554 105.841 161.849 116.819C165.499 125.686 165.284 134.343 161.419 141.732C155.406 152.922 145.314 159.045 132 159.045C123.41 159.045 115.25 156.511 110.955 154.611C108.593 156.722 104.298 160.1 101.291 162.212C110.526 166.434 119.974 168.756 128.993 168.756C149.608 168.756 164.855 157.566 170.653 146.377C176.881 134.131 176.451 113.019 160.346 95.0735V95.0735ZM51.2567 124.841C51.4716 131.175 56.84 136.242 63.2821 136.242H63.7119C70.369 136.031 75.5224 130.542 75.3075 123.997C75.0933 117.663 69.7243 112.596 63.2821 112.596H62.853C62.4232 112.596 61.7785 112.596 61.3501 112.807C52.5454 98.4505 48.8949 82.8278 50.1836 65.9375C51.0418 53.2699 55.337 42.2912 62.853 33.2125C69.0803 25.4009 81.1057 21.6006 89.2663 21.39C112.028 20.9675 121.691 48.8359 122.336 60.0259C125.128 60.6591 129.852 62.1373 133.073 63.193C130.496 28.9911 109.022 11.2563 88.4074 11.2563C69.0803 11.2563 51.2567 24.9796 44.1699 45.2476C34.2921 72.2716 40.7342 98.2399 52.7596 118.719C51.6865 120.197 51.0418 122.519 51.2567 124.842V124.841Z" fill="#764ABC"/>
</svg>
