<svg width="180" height="180" viewBox="0 0 180 180" fill="none" xmlns="http://www.w3.org/2000/svg">
<path d="M111.079 109.678L107.627 115.674C106.587 117.48 104.661 118.593 102.577 118.593H76.1273C74.0431 118.593 72.1176 117.48 71.0775 115.674L67.6245 109.678H111.079ZM120.745 92.8945L114.657 103.465H64.0466L57.9589 92.8945H120.745ZM114.881 76.4821L120.755 86.6819H57.9492L63.8232 76.4821H114.881ZM102.577 60.9668C104.661 60.9668 106.587 62.0799 107.627 63.886L111.303 70.2692H67.4012L71.0775 63.886C72.1176 62.0799 74.0431 60.9668 76.1273 60.9668H102.577Z" fill="#00435B"/>
<path d="M37.6332 58.185C34.7033 43.9777 34.0745 33.0808 35.9684 25.1681C37.0948 20.4622 39.1541 16.6231 42.2854 13.8532C45.5913 10.929 49.771 9.4941 54.4673 9.4941C62.2148 9.4941 70.3594 13.0271 79.0633 19.7388C82.6135 22.4764 86.2981 25.7761 90.1247 29.6398C90.4293 29.2477 90.7736 28.8779 91.1571 28.5361C101.976 18.8953 111.084 12.9053 118.874 10.5958C123.506 9.2225 127.855 9.09167 131.816 10.4245C135.996 11.8313 139.327 14.7395 141.677 18.8129C145.556 25.5355 146.579 34.369 145.133 45.2761C144.543 49.722 143.536 54.5648 142.112 59.8121C142.649 59.8769 143.188 59.996 143.721 60.1727C157.447 64.7214 167.167 69.613 173.051 75.2032C176.552 78.5292 178.839 82.2321 179.665 86.3309C180.537 90.6572 179.687 94.9967 177.339 99.067C173.468 105.78 166.35 111.074 156.209 115.268C152.137 116.952 147.53 118.477 142.383 119.848C142.618 120.378 142.8 120.942 142.922 121.532C145.852 135.74 146.481 146.637 144.587 154.549C143.46 159.255 141.401 163.094 138.27 165.864C134.964 168.788 130.784 170.223 126.088 170.223C118.34 170.223 110.196 166.69 101.492 159.979C97.904 157.212 94.1787 153.871 90.3083 149.954C89.9101 150.577 89.4211 151.156 88.8429 151.671C78.0243 161.312 68.9161 167.302 61.1257 169.612C56.4936 170.985 52.1446 171.116 48.1842 169.783C44.0037 168.376 40.6727 165.468 38.3226 161.395C34.4441 154.672 33.4213 145.838 34.8673 134.931C35.478 130.325 36.5377 125.292 38.044 119.825C37.4553 119.765 36.8641 119.641 36.2794 119.447C22.5531 114.898 12.8334 110.007 6.94893 104.416C3.44779 101.09 1.1615 97.3874 0.335023 93.2886C-0.537325 88.9622 0.313282 84.6228 2.66064 80.5524C6.5319 73.8396 13.65 68.5452 23.7907 64.3517C27.9839 62.6177 32.7446 61.0521 38.0785 59.6491C37.8884 59.1839 37.7384 58.6947 37.6332 58.185Z" fill="#002B3B"/>
<path d="M133.345 122.929C134.71 122.687 136.017 123.562 136.322 124.904L136.339 124.984L136.484 125.739C141.202 150.543 137.879 162.945 126.514 162.945C115.395 162.945 101.241 152.363 84.0508 131.197C83.671 130.73 83.4661 130.144 83.4712 129.542C83.4836 128.139 84.6098 127.006 86.0032 126.975L86.0839 126.975L86.9891 126.981C94.2227 127.02 101.255 126.768 108.085 126.225C116.149 125.583 124.568 124.484 133.345 122.929ZM55.2971 104.18L55.3407 104.253L55.7949 105.046C59.4349 111.374 63.2273 117.38 67.172 123.065C71.8177 129.759 77.0419 136.536 82.8448 143.395C83.7425 144.456 83.64 146.031 82.6272 146.968L82.5614 147.027L81.9775 147.53C62.778 163.98 50.299 167.265 44.5407 157.382C38.9041 147.708 40.9477 130.119 50.6714 104.614C50.8851 104.054 51.2866 103.585 51.8076 103.288C53.025 102.593 54.5685 102.994 55.2971 104.18ZM143.088 67.5793L143.166 67.6049L143.889 67.8545C167.588 76.0983 176.591 85.1579 170.9 95.0334C165.334 104.692 149.152 111.724 122.356 116.13C121.758 116.228 121.145 116.114 120.623 115.807C119.39 115.082 118.978 113.495 119.703 112.262C123.541 105.733 126.997 99.2371 130.073 92.7736C133.561 85.4432 136.834 77.5751 139.892 69.1693C140.356 67.8948 141.718 67.2026 143.009 67.5563L143.088 67.5793ZM59.3757 63.4286C60.6088 64.1535 61.0207 65.7408 60.2958 66.9739C56.4578 73.5025 53.001 79.9986 49.9257 86.4621C46.4378 93.7925 43.1646 101.661 40.1061 110.066C39.6329 111.367 38.2242 112.061 36.9109 111.656L36.8323 111.631L36.1096 111.381C12.411 103.137 3.40723 94.0778 9.09841 84.2023C14.6646 74.5438 30.8461 67.5116 57.6429 63.1057C58.2405 63.0075 58.8536 63.1217 59.3757 63.4286ZM135.458 22.8249C141.094 32.4985 139.051 50.0877 129.327 75.5925C129.113 76.153 128.712 76.6219 128.191 76.9192C126.974 77.6141 125.43 77.2128 124.701 76.0273L124.658 75.9537L124.204 75.161C120.564 68.8328 116.771 62.8266 112.827 57.1423C108.181 50.4481 102.957 43.6713 97.1538 36.8118C96.2561 35.7507 96.3585 34.1756 97.3713 33.2388L97.4372 33.1799L98.021 32.6774C117.221 16.2265 129.699 12.9423 135.458 22.8249ZM54.4555 16.938C65.5746 16.938 79.7291 27.5206 96.919 48.6858C97.2988 49.1534 97.5037 49.7388 97.4986 50.3413C97.4861 51.7446 96.3599 52.8775 94.9666 52.9079L94.8859 52.9084L93.9807 52.902C86.7471 52.8628 79.715 53.115 72.8843 53.6586C64.8211 54.3004 56.4013 55.3989 47.6249 56.9543C46.2601 57.1961 44.9523 56.3212 44.6475 54.9788L44.6308 54.8993L44.4854 54.1438C39.7675 29.3399 43.0909 16.938 54.4555 16.938Z" fill="#FF4154"/>
<path d="M78.2536 61.2905H100.455C103.702 61.2905 106.701 63.0271 108.317 65.8432L119.465 85.2677C121.069 88.062 121.069 91.4975 119.465 94.2918L108.317 113.716C106.701 116.532 103.702 118.269 100.455 118.269H78.2536C75.0067 118.269 72.0077 116.532 70.3916 113.716L59.2438 94.2918C57.6401 91.4975 57.6401 88.062 59.2438 85.2677L70.3916 65.8432C72.0077 63.0271 75.0067 61.2905 78.2536 61.2905ZM97.0716 67.1533C100.32 67.1533 103.321 68.8917 104.936 71.7101L112.71 85.2719C114.31 88.064 114.31 91.4954 112.71 94.2876L104.936 107.849C103.321 110.668 100.32 112.406 97.0716 112.406H81.6374C78.3887 112.406 75.3885 110.668 73.773 107.849L65.9994 94.2876C64.3989 91.4954 64.3989 88.064 65.9994 85.2719L73.773 71.7101C75.3885 68.8917 78.3887 67.1533 81.6374 67.1533H97.0716ZM93.4245 73.5656H85.2845C82.0392 73.5656 79.0415 75.3005 77.4248 78.1144L73.317 85.2638C71.7103 88.0601 71.7103 91.4994 73.317 94.2957L77.4248 101.445C79.0415 104.259 82.0392 105.994 85.2845 105.994H93.4245C96.6698 105.994 99.6675 104.259 101.284 101.445L105.392 94.2957C106.999 91.4994 106.999 88.0601 105.392 85.2638L101.284 78.1144C99.6675 75.3005 96.6698 73.5656 93.4245 73.5656ZM89.9126 79.7032C93.1555 79.7032 96.1513 81.4355 97.769 84.246L98.3514 85.2579C99.9626 88.0572 99.9626 91.5023 98.3514 94.3016L97.769 95.3134C96.1513 98.124 93.1555 99.8563 89.9126 99.8563H88.7964C85.5535 99.8563 82.5577 98.124 80.94 95.3134L80.3576 94.3016C78.7464 91.5023 78.7464 88.0572 80.3576 85.2579L80.94 84.246C82.5577 81.4355 85.5535 79.7032 88.7964 79.7032H89.9126ZM89.356 85.7491C87.9127 85.7491 86.5816 86.5173 85.8609 87.7644C85.1404 89.0114 85.1404 90.5481 85.8609 91.795C86.5816 93.0422 87.9126 93.8104 89.353 93.8104C90.7964 93.8104 92.1274 93.0422 92.8481 91.795C93.5686 90.5481 93.5686 89.0114 92.8481 87.7644C92.1274 86.5173 90.7964 85.7491 89.356 85.7491ZM56.6543 89.7797H63.9111Z" fill="#FFD94C"/>
</svg>
