<svg width="180" height="180" viewBox="0 0 180 180" fill="none" xmlns="http://www.w3.org/2000/svg">
<path d="M22.1014 32.0563L24.814 28.7383L39.3146 40.1887L63.7861 29.1848L78.916 52.2972L102.568 50.3545L116.103 29.1848L140.686 40.3996L155.187 28.9612L158.095 30.3393L158.592 150.656L154.882 150.767L141.288 140.58L116.158 150.767L102.748 129.872L77.6736 130.144L63.9535 150.624L38.9082 139.993L25.0932 150.792L21.7393 150.61L22.1014 32.0563Z" fill="#B2271B"/>
<path fill-rule="evenodd" clip-rule="evenodd" d="M1.63969 28.125H23.6616C24.5672 28.125 25.3013 28.8591 25.3013 29.7647V150.1C25.3013 151.005 24.5672 151.739 23.6616 151.739H1.63969C0.734062 151.739 0 151.005 0 150.1V29.7647C0 28.8591 0.734062 28.125 1.63969 28.125ZM40.4346 28.125H62.4565C63.3621 28.125 64.0962 28.8591 64.0962 29.7647V150.1C64.0962 151.005 63.3621 151.739 62.4565 151.739H40.4346C39.529 151.739 38.7949 151.005 38.7949 150.1V29.7647C38.7949 28.8591 39.529 28.125 40.4346 28.125ZM101.011 28.125H78.9891C78.0834 28.125 77.3494 28.8591 77.3494 29.7647V150.1C77.3494 151.005 78.0834 151.739 78.9891 151.739H101.011C101.917 151.739 102.651 151.005 102.651 150.1V29.7647C102.651 28.8591 101.917 28.125 101.011 28.125ZM117.544 28.125H139.565C140.471 28.125 141.205 28.8591 141.205 29.7647V150.1C141.205 151.005 140.471 151.739 139.565 151.739H117.544C116.638 151.739 115.904 151.005 115.904 150.1V29.7647C115.904 28.8591 116.638 28.125 117.544 28.125ZM178.36 28.125H156.338C155.433 28.125 154.699 28.8591 154.699 29.7647V150.1C154.699 151.005 155.433 151.739 156.338 151.739H178.36C179.266 151.739 180 151.005 180 150.1V29.7647C180 28.8591 179.266 28.125 178.36 28.125Z" fill="#D82A1F"/>
</svg>
