<svg width="180" height="180" viewBox="0 0 180 180" fill="none" xmlns="http://www.w3.org/2000/svg">
<g clip-path="url(#clip0_406_1957)">
<path d="M89.8381 179.676C139.454 179.676 179.676 139.454 179.676 89.8381C179.676 40.2219 139.454 0 89.8381 0C40.2219 0 0 40.2219 0 89.8381C0 139.454 40.2219 179.676 89.8381 179.676Z" fill="white"/>
<path d="M51.9242 57.6338C51.4935 57.7267 51.1449 57.953 50.8456 58.3602C50.537 58.8021 50.4276 59.5296 50.5861 60.0097C50.72 60.4299 51.4507 61.281 52.2519 61.8598C51.4548 62.8997 49.9221 64.9937 49.1814 66.0671C43.7978 73.866 40.6414 81.001 40.2406 86.1453C40.0239 88.9263 40.564 90.8707 41.8442 92.3823C42.791 93.4963 43.8993 94.1296 45.6848 94.5094C47.1496 94.8209 49.3916 94.8062 51.654 94.461C50.2317 96.5011 48.2005 99.6294 47.1537 101.41C45.4251 104.368 43.6548 108.148 42.9895 110.311C41.8178 114.081 41.6676 117.178 42.448 120.132C42.9248 121.947 43.6933 123.404 44.7376 124.522C45.801 125.661 47.1532 126.457 48.8065 126.905C51.5153 127.638 55.4914 127.43 60.5126 126.247C61.5706 126.001 63.1947 125.548 64.4059 125.188C63.326 128.966 63.4464 132.416 64.6585 134.891C65.0504 135.687 66.1457 137.029 66.8009 137.523C70.7171 140.446 78.9506 140.337 89.9989 136.872C90.8836 136.596 93.3815 135.732 94.6258 135.28C95.4759 136.416 96.2685 136.863 98.1059 137.084C99.3016 137.214 100.283 137.022 101.212 136.487C101.636 136.241 101.887 135.999 102.029 135.773C102.26 135.406 102.303 135.027 102.143 134.574C101.989 134.151 101.767 133.898 101.37 133.719C101.141 133.617 100.806 133.543 100.263 133.502C99.8387 133.474 99.6892 133.457 99.4634 133.297L99.5337 133.238C101.468 132.42 105.644 130.334 108.221 128.897C117.646 123.64 127.717 116.229 134.424 109.613C140.502 103.624 146.392 96.1504 147.608 92.9487C147.977 91.989 148.078 90.9915 147.922 90.2151C147.791 89.6085 147.718 89.4435 147.133 88.7459C146.514 88.0083 146.384 87.939 145.813 87.7129C143.913 86.9653 140.977 87.789 135.192 91.3224C127.792 95.8408 116.809 104.23 109.071 111.287C101.448 118.232 96.4413 124.301 94.5842 128.753C94.3609 129.29 94.3673 129.54 94.2509 129.603C94.1317 129.67 93.102 130.071 91.9701 130.516C85.7312 132.938 80.2951 134.327 76.2341 134.505C75.1143 134.556 73.3261 134.435 72.4426 134.245C71.7019 134.087 70.7917 133.727 70.447 133.4C70.0176 133.001 69.8494 132.331 69.82 131.487C69.7831 130.423 69.9973 129.095 70.4466 127.551C70.7535 126.507 71.8324 123.81 72.3705 122.762L73.6337 122.081C80.4396 119.507 88.1417 115.78 95.3553 111.572C105.099 105.887 116.313 98.0048 126.355 89.7629C132.338 84.8514 135.556 81.7543 138.605 77.9857C140.987 75.044 142.915 71.7304 143.354 69.8837C143.672 68.5717 143.63 67.3962 143.282 66.4052C142.916 65.3608 142.214 64.5053 141.183 63.9009C138.498 62.3279 133.634 62.948 127.06 65.9124C120.843 68.7158 113.07 73.5477 104.291 80.1707C99.0439 84.1181 91.6989 90.2277 87.8173 93.864C77.9114 103.155 71.1257 111.236 67.3623 118.192L67.1072 118.667C63.7778 119.92 58.6365 121.373 56.0615 121.811C53.9146 122.17 51.843 122.266 50.6257 122.026C49.8725 121.88 49.2991 121.64 48.8783 121.208C48.4413 120.758 48.1759 120.122 47.9816 119.273C47.6849 117.944 47.7733 115.759 48.1694 114.141C49.3944 109.154 53.4335 101.992 59.5986 93.7759L60.9364 91.9985L62.3172 91.4643C71.4525 87.9567 82.7941 81.6463 92.8528 74.4654C98.4281 70.4821 104.422 65.5381 108.496 61.5555C111.732 58.3924 114.319 55.4772 116.318 52.7514C118.079 50.3396 119.186 48.3025 119.685 46.5727C120.24 44.6442 120.066 43.062 119.268 41.7245C118.658 40.7025 117.732 40.0155 116.559 39.6951C115.485 39.4022 114.189 39.4228 112.736 39.8115C108.52 40.9532 102.236 44.7249 93.2549 51.5714C91.0213 53.283 83.6556 59.4634 81.4561 61.4718C72.2801 69.8861 64.151 78.484 57.2652 87.0453L55.9638 88.6664L55.2336 88.8831C53.1138 89.5082 50.68 89.9698 48.9566 90.0738C47.9483 90.1341 46.6134 89.9937 46.0324 89.7296C45.7254 89.5938 45.6766 89.5569 45.4975 89.3133C45.1826 88.879 45.1087 88.4629 45.0835 87.6315C44.9537 84.0001 47.4687 77.8578 51.6436 71.3454C53.2352 68.8656 55.0678 66.3229 57.019 63.8836L57.9628 62.7028C60.9557 61.7747 63.9256 59.8897 68.3976 56.1372C73.534 51.8163 78.556 46.3773 79.9508 44.5042C81.5801 42.3164 82.2036 40.1413 81.932 39.284C81.748 38.7361 81.3894 38.2806 80.9427 37.9725C80.4748 37.6498 79.9165 37.4926 79.3815 37.5487C78.5929 37.6289 76.7856 38.5948 74.3835 40.3413C72.6833 41.5721 67.9647 45.4653 65.8988 47.3402C62.1314 50.7513 59.6452 53.2504 56.5392 56.7364L55.5585 57.8335C54.714 58.0098 53.9257 57.94 53.2414 57.7372C52.6937 57.5786 52.2702 57.5591 51.9242 57.6338ZM89.446 62.2721C92.0597 60.0036 93.1615 59.09 96.7507 56.1966C101.086 52.7088 105.855 49.3994 109.352 47.4498C111.065 46.4921 112.669 45.735 113.919 45.4846C113.631 46.0891 113.187 46.8486 112.709 47.5716C110.381 51.0616 106.838 55.0318 101.523 60.1107C99.9192 61.6497 91.9128 68.3563 89.9155 69.85C83.1825 74.8664 76.9729 78.8647 70.5889 82.2783C69.7757 82.7116 68.8031 83.2133 67.8657 83.6866C74.4854 76.1986 81.9642 68.7769 89.446 62.2721ZM122.888 74.8956C129.634 70.8196 135.394 68.4349 138.126 68.306C138.063 68.5361 137.966 68.8195 137.858 69.0702C136.793 71.5899 133.798 75.2605 129.526 79.3506C127.767 81.0302 120.898 86.7604 117.697 89.2206C102.37 100.968 89.7891 108.881 77.556 114.427C79.6997 111.528 82.7114 107.961 85.56 104.972C90.9116 99.3531 97.474 93.4066 104.034 88.2355C111.329 82.4796 117.16 78.3591 122.888 74.8956ZM126.959 104.397C131.967 100.478 136.444 97.3389 139.749 95.4082C139.435 95.8312 139.112 96.2556 138.807 96.6419C133.533 103.326 127.229 109.32 119.357 115.111C114.738 118.508 109.953 121.608 105.301 124.209C107.98 121.127 111.372 117.754 115.991 113.567C117.194 112.472 125.365 105.638 126.959 104.397Z" fill="#1B1A22"/>
<path d="M89.9137 119.241C106.049 119.241 119.129 106.136 119.129 89.9698C119.129 73.8036 106.049 60.6982 89.9137 60.6982C73.7784 60.6982 60.6982 73.8036 60.6982 89.9698C60.6982 106.136 73.7784 119.241 89.9137 119.241Z" fill="url(#paint0_radial_406_1957)"/>
<path d="M145.813 87.7414C146.384 87.9675 146.514 88.0368 147.133 88.7744C147.718 89.472 147.791 89.637 147.922 90.2437C148.078 91.0201 147.977 92.0175 147.608 92.9773C146.391 96.1789 140.502 103.653 134.424 109.642C127.717 116.258 117.646 123.668 108.221 128.926C105.644 130.362 101.468 132.448 99.5336 133.266L99.4633 133.325L94.6257 135.309C94.1387 135.485 93.4599 135.725 92.7609 135.969L92.2937 136.13C91.3611 136.452 90.4604 136.756 89.9988 136.9C78.9505 140.365 70.717 140.475 66.8008 137.551L70.4469 133.429C70.7916 133.756 71.7017 134.115 72.4424 134.273C73.326 134.464 75.1142 134.585 76.2339 134.534C80.2949 134.355 85.7311 132.966 91.9699 130.545C93.1017 130.1 94.1316 129.698 94.2508 129.632L105.301 124.237C109.952 121.637 114.738 118.536 119.357 115.14C127.228 109.349 133.533 103.355 138.807 96.6704C139.112 96.2841 139.435 95.8598 139.749 95.4367L145.813 87.7414ZM141.183 63.9295C142.213 64.5338 142.916 65.3894 143.282 66.4338C143.63 67.4247 143.672 68.6001 143.354 69.9122C142.915 71.7589 140.986 75.0725 138.605 78.0143C135.555 81.7829 132.338 84.8799 126.355 89.7915C116.313 98.0334 105.099 105.916 95.3551 111.601C88.1415 115.809 80.4395 119.535 73.6335 122.11L72.3703 122.79L64.4059 125.217C63.1946 125.576 61.5704 126.029 60.5124 126.276C55.4912 127.458 51.5151 127.667 48.8063 126.934C47.1531 126.486 45.8009 125.69 44.7374 124.551C43.6932 123.432 42.9246 121.975 42.4479 120.16L47.9815 119.302C48.1757 120.15 48.4412 120.787 48.8781 121.236C49.2989 121.669 49.8724 121.908 50.6255 122.055C51.8429 122.295 53.9145 122.199 56.0614 121.839C58.6364 121.401 63.7777 119.948 67.107 118.696L77.5558 114.455C89.789 108.91 102.37 100.997 117.697 89.2491C120.898 86.7889 127.767 81.0587 129.526 79.3792C133.798 75.289 136.793 71.6184 137.858 69.0987C137.966 68.848 138.063 68.5645 138.125 68.3345L141.183 63.9295ZM116.558 39.7236C117.711 40.0214 118.658 40.731 119.268 41.7531C120.066 43.0905 120.24 44.6727 119.684 46.6013C119.186 48.3311 118.078 50.3681 116.318 52.78C114.319 55.5057 111.732 58.4209 108.496 61.584C104.422 65.5666 98.4279 70.5107 92.8526 74.4939C82.794 81.6749 71.4523 87.9852 62.317 91.4929L60.9363 92.0269L56.0719 93.4961L51.654 94.4896C49.3915 94.8348 47.1494 94.8494 45.6847 94.538C43.8992 94.1582 42.7908 93.5248 41.844 92.4108C40.5639 90.8992 40.0238 88.9548 40.2404 86.1738L45.0833 87.6601C45.1086 88.4914 45.1825 88.9075 45.4974 89.3418C45.6765 89.5854 45.7252 89.6223 46.0323 89.7582C46.6133 90.0222 47.9482 90.1626 48.9564 90.1022C49.6308 90.0615 50.7386 89.8704 51.8373 89.6528L52.2026 89.5794C53.6575 89.2835 55.009 88.9649 55.2083 88.9176L55.2335 88.9117L67.8656 83.7151L67.8938 83.7007C68.1329 83.5786 69.8336 82.7093 70.5887 82.3068C76.9727 78.8932 83.1823 74.895 89.9154 69.8785C91.9127 68.3849 99.919 61.6782 101.523 60.1392C106.838 55.0604 110.381 51.0902 112.709 47.6001C113.187 46.8771 113.474 46.1276 113.919 45.5131L116.558 39.7236Z" fill="#1B1A22"/>
</g>
<defs>
<radialGradient id="paint0_radial_406_1957" cx="0" cy="0" r="1" gradientUnits="userSpaceOnUse" gradientTransform="translate(-18.2765 111.22) rotate(54.6028) scale(37.3568 37.4523)">
<stop stop-color="white" stop-opacity="0.904382"/>
<stop offset="1" stop-color="#FF6D6D"/>
</radialGradient>
<clipPath id="clip0_406_1957">
<rect width="180" height="180" fill="white"/>
</clipPath>
</defs>
</svg>
