<svg width="180" height="180" viewBox="0 0 180 180" fill="none" xmlns="http://www.w3.org/2000/svg">
<path fill-rule="evenodd" clip-rule="evenodd" d="M138.231 117.755L37.9177 177.321L167.805 168.507L177.808 37.5366L138.231 117.755V117.755Z" fill="url(#paint0_linear_406_1670)"/>
<path fill-rule="evenodd" clip-rule="evenodd" d="M168.017 168.417L156.854 91.3643L126.445 131.518L168.017 168.417V168.417Z" fill="url(#paint1_linear_406_1670)"/>
<path fill-rule="evenodd" clip-rule="evenodd" d="M168.168 168.417L86.3807 161.997L38.3523 177.153L168.168 168.417V168.417Z" fill="url(#paint2_linear_406_1670)"/>
<path fill-rule="evenodd" clip-rule="evenodd" d="M38.4677 177.17L58.8993 110.235L13.9392 119.849L38.4677 177.17V177.17Z" fill="url(#paint3_linear_406_1670)"/>
<path fill-rule="evenodd" clip-rule="evenodd" d="M126.437 131.74L107.637 58.1011L53.8357 108.533L126.437 131.74V131.74Z" fill="url(#paint4_linear_406_1670)"/>
<path fill-rule="evenodd" clip-rule="evenodd" d="M173.543 59.1387L122.686 17.6016L108.524 63.3864L173.543 59.1387V59.1387Z" fill="url(#paint5_linear_406_1670)"/>
<path fill-rule="evenodd" clip-rule="evenodd" d="M149.759 2.79201L119.848 19.3217L100.977 2.57031L149.759 2.79201V2.79201Z" fill="url(#paint6_linear_406_1670)"/>
<path fill-rule="evenodd" clip-rule="evenodd" d="M2.10938 142.301L14.6397 119.449L4.5037 92.2246L2.10938 142.301V142.301Z" fill="url(#paint7_linear_406_1670)"/>
<path fill-rule="evenodd" clip-rule="evenodd" d="M3.82983 91.3645L14.0279 120.291L58.3406 110.35L108.932 63.3323L123.209 17.9829L100.728 2.10938L62.5076 16.4132C50.466 27.6134 27.0991 49.7742 26.2567 50.191C25.4231 50.6166 10.8266 78.2046 3.82983 91.3645V91.3645V91.3645Z" fill="white"/>
<path fill-rule="evenodd" clip-rule="evenodd" d="M39.6382 39.3988C65.7363 13.5223 99.381 -1.76586 112.293 11.261C125.196 24.2879 111.512 55.9462 85.4141 81.8138C59.316 107.681 26.0881 123.812 13.1853 110.785C0.273724 97.7671 13.5401 65.2664 39.6382 39.3988V39.3988V39.3988Z" fill="url(#paint8_linear_406_1670)"/>
<path fill-rule="evenodd" clip-rule="evenodd" d="M38.4675 177.144L58.7395 109.996L126.064 131.625C101.722 154.451 74.6484 173.747 38.4675 177.144V177.144V177.144Z" fill="url(#paint9_linear_406_1670)"/>
<path fill-rule="evenodd" clip-rule="evenodd" d="M109.021 63.2002L126.304 131.66C146.638 110.28 164.888 87.2942 173.826 58.8638L109.021 63.2002V63.2002V63.2002Z" fill="url(#paint10_linear_406_1670)"/>
<path fill-rule="evenodd" clip-rule="evenodd" d="M173.649 59.2095C180.566 38.3346 182.163 8.38779 149.546 2.82764L122.782 17.6104L173.649 59.2095V59.2095V59.2095Z" fill="url(#paint11_linear_406_1670)"/>
<path fill-rule="evenodd" clip-rule="evenodd" d="M2.10938 142C3.0671 176.452 27.9237 176.966 38.512 177.268L14.0544 120.149L2.10938 142V142V142Z" fill="#9E1209"/>
<path fill-rule="evenodd" clip-rule="evenodd" d="M109.117 63.3066C124.742 72.9105 156.233 92.1981 156.871 92.5528C157.864 93.1115 170.448 71.332 173.303 59.0234L109.117 63.3066V63.3066V63.3066Z" fill="url(#paint12_radial_406_1670)"/>
<path fill-rule="evenodd" clip-rule="evenodd" d="M58.7129 109.996L85.8131 162.281C101.837 153.591 114.385 143.002 125.878 131.66L58.7129 109.996V109.996V109.996Z" fill="url(#paint13_radial_406_1670)"/>
<path fill-rule="evenodd" clip-rule="evenodd" d="M13.9479 120.22L10.1082 165.943C17.3532 175.84 27.3207 176.7 37.7759 175.928C30.2116 157.102 15.1008 119.458 13.9479 120.22V120.22V120.22Z" fill="url(#paint14_linear_406_1670)"/>
<path fill-rule="evenodd" clip-rule="evenodd" d="M122.624 17.7255L176.461 25.2809C173.587 13.1053 164.764 5.24839 149.724 2.79199L122.624 17.7255V17.7255V17.7255Z" fill="url(#paint15_linear_406_1670)"/>
<defs>
<linearGradient id="paint0_linear_406_1670" x1="189.147" y1="174.765" x2="152.181" y2="109.3" gradientUnits="userSpaceOnUse">
<stop stop-color="#FB7655"/>
<stop stop-color="#FB7655"/>
<stop offset="0.41" stop-color="#E42B1E"/>
<stop offset="0.99" stop-color="#990000"/>
<stop offset="1" stop-color="#990000"/>
</linearGradient>
<linearGradient id="paint1_linear_406_1670" x1="177.457" y1="88.0646" x2="129.313" y2="85.327" gradientUnits="userSpaceOnUse">
<stop stop-color="#871101"/>
<stop stop-color="#871101"/>
<stop offset="0.99" stop-color="#911209"/>
<stop offset="1" stop-color="#911209"/>
</linearGradient>
<linearGradient id="paint2_linear_406_1670" x1="240.996" y1="195.2" x2="240.987" y2="163.145" gradientUnits="userSpaceOnUse">
<stop stop-color="#871101"/>
<stop stop-color="#871101"/>
<stop offset="0.99" stop-color="#911209"/>
<stop offset="1" stop-color="#911209"/>
</linearGradient>
<linearGradient id="paint3_linear_406_1670" x1="29.1322" y1="136.3" x2="42.2699" y2="153.681" gradientUnits="userSpaceOnUse">
<stop stop-color="white"/>
<stop stop-color="white"/>
<stop offset="0.23" stop-color="#E57252"/>
<stop offset="0.46" stop-color="#DE3B20"/>
<stop offset="0.99" stop-color="#A60003"/>
<stop offset="1" stop-color="#A60003"/>
</linearGradient>
<linearGradient id="paint4_linear_406_1670" x1="63.8241" y1="72.2166" x2="66.6308" y2="119.954" gradientUnits="userSpaceOnUse">
<stop stop-color="white"/>
<stop stop-color="white"/>
<stop offset="0.23" stop-color="#E4714E"/>
<stop offset="0.56" stop-color="#BE1A0D"/>
<stop offset="0.99" stop-color="#A80D00"/>
<stop offset="1" stop-color="#A80D00"/>
</linearGradient>
<linearGradient id="paint5_linear_406_1670" x1="111.836" y1="26.1672" x2="113.851" y2="61.4845" gradientUnits="userSpaceOnUse">
<stop stop-color="white"/>
<stop stop-color="white"/>
<stop offset="0.18" stop-color="#E46342"/>
<stop offset="0.4" stop-color="#C82410"/>
<stop offset="0.99" stop-color="#A80D00"/>
<stop offset="1" stop-color="#A80D00"/>
</linearGradient>
<linearGradient id="paint6_linear_406_1670" x1="148.901" y1="13.0567" x2="149.393" y2="-4.6445" gradientUnits="userSpaceOnUse">
<stop stop-color="white"/>
<stop stop-color="white"/>
<stop offset="0.54" stop-color="#C81F11"/>
<stop offset="0.99" stop-color="#BF0905"/>
<stop offset="1" stop-color="#BF0905"/>
</linearGradient>
<linearGradient id="paint7_linear_406_1670" x1="5.34357" y1="122.147" x2="8.30732" y2="122.263" gradientUnits="userSpaceOnUse">
<stop stop-color="white"/>
<stop stop-color="white"/>
<stop offset="0.31" stop-color="#DE4024"/>
<stop offset="0.99" stop-color="#BF190B"/>
<stop offset="1" stop-color="#BF190B"/>
</linearGradient>
<linearGradient id="paint8_linear_406_1670" x1="55.9912" y1="207.456" x2="191.589" y2="67.2273" gradientUnits="userSpaceOnUse">
<stop stop-color="#BD0012"/>
<stop stop-color="#BD0012"/>
<stop offset="0.07" stop-color="white"/>
<stop offset="0.17" stop-color="white"/>
<stop offset="0.27" stop-color="#C82F1C"/>
<stop offset="0.33" stop-color="#820C01"/>
<stop offset="0.46" stop-color="#A31601"/>
<stop offset="0.72" stop-color="#B31301"/>
<stop offset="0.99" stop-color="#E82609"/>
<stop offset="1" stop-color="#E82609"/>
</linearGradient>
<linearGradient id="paint9_linear_406_1670" x1="93.395" y1="144.541" x2="72.653" y2="129.715" gradientUnits="userSpaceOnUse">
<stop stop-color="#8C0C01"/>
<stop stop-color="#8C0C01"/>
<stop offset="0.54" stop-color="#990C00"/>
<stop offset="0.99" stop-color="#A80D0E"/>
<stop offset="1" stop-color="#A80D0E"/>
</linearGradient>
<linearGradient id="paint10_linear_406_1670" x1="171.945" y1="82.1527" x2="133.209" y2="60.347" gradientUnits="userSpaceOnUse">
<stop stop-color="#7E110B"/>
<stop stop-color="#7E110B"/>
<stop offset="0.99" stop-color="#9E0C00"/>
<stop offset="1" stop-color="#9E0C00"/>
</linearGradient>
<linearGradient id="paint11_linear_406_1670" x1="182.79" y1="34.6193" x2="164.174" y2="16.6742" gradientUnits="userSpaceOnUse">
<stop stop-color="#79130D"/>
<stop stop-color="#79130D"/>
<stop offset="0.99" stop-color="#9E120B"/>
<stop offset="1" stop-color="#9E120B"/>
</linearGradient>
<radialGradient id="paint12_radial_406_1670" cx="0" cy="0" r="1" gradientUnits="userSpaceOnUse" gradientTransform="translate(129.657 72.5099) scale(44.6565 23.3347)">
<stop stop-color="#A80D00"/>
<stop stop-color="#A80D00"/>
<stop offset="0.99" stop-color="#7E0E08"/>
<stop offset="1" stop-color="#7E0E08"/>
</radialGradient>
<radialGradient id="paint13_radial_406_1670" cx="0" cy="0" r="1" gradientUnits="userSpaceOnUse" gradientTransform="translate(67.8134 131.36) scale(59.3648 46.2127)">
<stop stop-color="#A30C00"/>
<stop stop-color="#A30C00"/>
<stop offset="0.99" stop-color="#800E08"/>
<stop offset="1" stop-color="#800E08"/>
</radialGradient>
<linearGradient id="paint14_linear_406_1670" x1="28.7968" y1="140.301" x2="12.195" y2="136.93" gradientUnits="userSpaceOnUse">
<stop stop-color="#8B2114"/>
<stop stop-color="#8B2114"/>
<stop offset="0.43" stop-color="#9E100A"/>
<stop offset="0.99" stop-color="#B3100C"/>
<stop offset="1" stop-color="#B3100C"/>
</linearGradient>
<linearGradient id="paint15_linear_406_1670" x1="130.223" y1="12.0065" x2="131.255" y2="26.9735" gradientUnits="userSpaceOnUse">
<stop stop-color="#B31000"/>
<stop stop-color="#B31000"/>
<stop offset="0.44" stop-color="#910F08"/>
<stop offset="0.99" stop-color="#791C12"/>
<stop offset="1" stop-color="#791C12"/>
</linearGradient>
</defs>
</svg>
