<svg width="180" height="180" viewBox="0 0 180 180" fill="none" xmlns="http://www.w3.org/2000/svg">
<g clip-path="url(#clip0_406_1547)">
<path d="M178.767 87.7918L171.21 83.1141C171.147 82.378 171.074 81.6437 170.995 80.9128L177.489 74.8558C178.15 74.2402 178.445 73.3287 178.266 72.4465C178.093 71.5608 177.472 70.8316 176.628 70.5169L168.326 67.4127C168.118 66.6939 167.9 65.9802 167.676 65.2699L172.854 58.0779C173.382 57.347 173.491 56.396 173.147 55.5619C172.803 54.7312 172.051 54.1362 171.162 53.99L162.409 52.5661C162.068 51.9022 161.714 51.2487 161.356 50.6004L165.035 42.5261C165.411 41.7041 165.334 40.7479 164.832 40.0015C164.331 39.2517 163.483 38.8132 162.579 38.8476L153.695 39.1571C153.235 38.5827 152.768 38.0135 152.291 37.4546L154.333 28.8008C154.539 27.922 154.279 27.0019 153.64 26.3639C153.005 25.7276 152.083 25.4644 151.204 25.6708L142.552 27.7104C141.992 27.2358 141.422 26.7663 140.846 26.3071L141.158 17.4229C141.192 16.5234 140.753 15.6687 140.004 15.17C139.252 14.6678 138.301 14.5921 137.481 14.9653L129.408 18.6456C128.756 18.2879 128.103 17.9336 127.443 17.5914L126.015 8.83611C125.871 7.94871 125.276 7.19546 124.443 6.85151C123.613 6.50584 122.66 6.61762 121.929 7.14387L114.732 12.3221C114.023 12.0968 113.311 11.8801 112.592 11.6737L109.488 3.37072C109.174 2.5246 108.444 1.90377 107.559 1.72836C106.675 1.55466 105.765 1.84874 105.151 2.50568L99.0941 9.00464C98.3632 8.92382 97.6271 8.84987 96.8928 8.78967L92.2151 1.23135C91.7421 0.466054 90.9046 0 90.0034 0C89.1023 0 88.2648 0.466054 87.7936 1.23135L83.1158 8.78967C82.3798 8.84987 81.6437 8.92382 80.9128 9.00464L74.8541 2.50568C74.2402 1.84874 73.3287 1.55466 72.4465 1.72836C71.5608 1.90549 70.8316 2.5246 70.5169 3.37072L67.4127 11.6737C66.6939 11.8801 65.9819 12.0985 65.2716 12.3221L58.0762 7.14387C57.3453 6.6159 56.3925 6.50412 55.5602 6.85151C54.7295 7.19546 54.1328 7.94871 53.9883 8.83611L52.5609 17.5914C51.9005 17.9336 51.247 18.2862 50.5952 18.6456L42.5227 14.9653C41.7024 14.5904 40.7462 14.6678 39.9998 15.17C39.25 15.6687 38.8115 16.5234 38.8459 17.4229L39.1554 26.3071C38.581 26.7663 38.0118 27.2358 37.4494 27.7104L28.7973 25.6708C27.9185 25.4662 26.9967 25.7276 26.3604 26.3639C25.7207 27.0019 25.461 27.922 25.6674 28.8008L27.7053 37.4546C27.2323 38.0152 26.7646 38.5827 26.3054 39.1571L17.4211 38.8476C16.5251 38.8218 15.6687 39.2517 15.1683 40.0015C14.6661 40.7479 14.5904 41.7041 14.9636 42.5261L18.6439 50.6004C18.2862 51.2487 17.9319 51.9022 17.5897 52.5661L8.83611 53.99C7.94699 54.1345 7.19718 54.7295 6.85151 55.5619C6.50756 56.396 6.61934 57.347 7.14387 58.0779L12.3221 65.2699C12.0968 65.9802 11.8784 66.6939 11.672 67.4127L3.369 70.5169C2.52632 70.8316 1.90549 71.5608 1.73007 72.4465C1.55466 73.3304 1.84874 74.2402 2.5074 74.8558L9.00292 80.9128C8.9221 81.6437 8.84987 82.3798 8.78795 83.1141L1.23135 87.7918C0.466054 88.2648 0 89.1006 0 90.0034C0 90.9063 0.466054 91.7421 1.23135 92.2133L8.78795 96.8911C8.84987 97.6271 8.9221 98.3615 9.00292 99.0924L2.5074 105.151C1.84874 105.765 1.55466 106.676 1.73007 107.559C1.90549 108.444 2.52632 109.172 3.369 109.488L11.672 112.592C11.8784 113.311 12.0968 114.025 12.3221 114.735L7.14387 121.929C6.61762 122.662 6.50584 123.613 6.85151 124.443C7.19718 125.277 7.94871 125.872 8.83783 126.015L17.5897 127.439C17.9319 128.103 18.2827 128.756 18.6439 129.408L14.9636 137.479C14.5887 138.299 14.6661 139.254 15.1683 140.004C15.6704 140.755 16.5251 141.194 17.4211 141.158L26.302 140.846C26.7646 141.424 27.2306 141.99 27.7053 142.552L25.6674 151.208C25.461 152.085 25.7207 153.002 26.3604 153.64C26.995 154.281 27.9185 154.537 28.7973 154.331L37.4494 152.293C38.0118 152.771 38.581 153.235 39.1554 153.693L38.8459 162.579C38.8115 163.478 39.25 164.331 39.9998 164.833C40.7462 165.334 41.7024 165.41 42.5227 165.035L50.5952 161.356C51.2453 161.717 51.8988 162.068 52.5609 162.41L53.9883 171.16C54.1328 172.051 54.7278 172.805 55.5602 173.147C56.3908 173.492 57.3453 173.381 58.0762 172.856L65.2682 167.675C65.9784 167.9 66.6921 168.12 67.411 168.326L70.5152 176.626C70.8299 177.469 71.5591 178.093 72.4447 178.265C73.3287 178.444 74.2384 178.148 74.8524 177.487L80.9111 170.992C81.642 171.076 82.378 171.147 83.1141 171.212L87.7918 178.769C88.2631 179.531 89.1006 180 90.0017 180C90.9029 180 91.7404 179.532 92.2133 178.769L96.8911 171.212C97.6271 171.147 98.3615 171.076 99.0924 170.992L105.149 177.487C105.763 178.148 106.675 178.444 107.557 178.265C108.443 178.091 109.172 177.469 109.487 176.626L112.591 168.326C113.31 168.12 114.023 167.9 114.734 167.675L121.927 172.856C122.658 173.381 123.611 173.492 124.442 173.147C125.274 172.805 125.869 172.05 126.013 171.16L127.441 162.41C128.101 162.068 128.755 161.712 129.406 161.356L137.479 165.035C138.299 165.41 139.254 165.334 140.002 164.833C140.752 164.331 141.189 163.48 141.156 162.579L140.846 153.693C141.421 153.234 141.99 152.771 142.551 152.293L151.203 154.331C152.081 154.537 153.003 154.281 153.638 153.64C154.278 153.002 154.537 152.085 154.331 151.208L152.293 142.552C152.768 141.99 153.235 141.424 153.693 140.846L162.577 141.158C163.473 141.194 164.33 140.755 164.83 140.004C165.332 139.254 165.41 138.299 165.033 137.479L161.354 129.408C161.714 128.756 162.066 128.103 162.407 127.439L171.16 126.015C172.051 125.872 172.801 125.277 173.145 124.443C173.489 123.613 173.381 122.662 172.853 121.929L167.675 114.735C167.898 114.025 168.116 113.311 168.325 112.592L176.626 109.488C177.47 109.172 178.093 108.444 178.265 107.559C178.444 106.675 178.148 105.765 177.487 105.151L170.994 99.0924C171.073 98.3615 171.145 97.6254 171.209 96.8911L178.765 92.2133C179.531 91.7421 179.997 90.9046 179.997 90.0034C179.997 89.1023 179.532 88.2648 178.767 87.7918ZM128.191 150.479C125.305 149.856 123.47 147.012 124.089 144.117C124.706 141.226 127.549 139.386 130.433 140.009C133.319 140.626 135.157 143.476 134.538 146.365C133.919 149.254 131.075 151.096 128.191 150.479ZM125.623 133.113C122.99 132.548 120.4 134.224 119.836 136.862L117.153 149.381C108.874 153.139 99.6805 155.227 89.9983 155.227C80.0942 155.227 70.7009 153.036 62.2741 149.118L59.593 136.599C59.0289 133.964 56.439 132.285 53.8077 132.851L42.7549 135.224C40.7032 133.113 38.7943 130.863 37.0401 128.488H90.8203C91.4291 128.488 91.835 128.378 91.835 127.824V108.8C91.835 108.247 91.4291 108.137 90.8203 108.137H75.0914V96.0776H92.1033C93.6562 96.0776 100.406 96.5213 102.565 105.149C103.24 107.803 104.725 116.434 105.739 119.198C106.75 122.297 110.868 128.488 115.255 128.488H142.054C142.358 128.488 142.683 128.454 143.025 128.392C141.166 130.918 139.127 133.309 136.93 135.543L125.623 133.113ZM51.2401 150.217C48.3544 150.84 45.5133 149 44.8925 146.109C44.2751 143.213 46.1101 140.37 48.9959 139.747C51.8816 139.13 54.7244 140.97 55.3435 143.861C55.9609 146.75 54.1242 149.598 51.2401 150.217ZM30.8387 67.4884C32.0356 70.1901 30.818 73.3562 28.1197 74.5514C25.4214 75.7501 22.264 74.5308 21.067 71.8273C19.8701 69.1239 21.0877 65.963 23.7859 64.7643C26.486 63.5674 29.6417 64.7849 30.8387 67.4884ZM24.5684 82.3522L36.0822 77.236C38.5415 76.1439 39.6524 73.2616 38.5604 70.7972L36.1888 65.435H45.5151V107.473H26.6992C25.0672 101.736 24.1918 95.6804 24.1918 89.4222C24.1918 87.0334 24.3208 84.6722 24.5684 82.3522ZM75.0949 78.2695V65.8787H97.3038C98.4509 65.8787 105.404 67.2046 105.404 72.4035C105.404 76.72 100.071 78.2678 95.6855 78.2678H75.0949V78.2695ZM155.806 89.4222C155.806 91.0663 155.746 92.6931 155.626 94.308H148.874C148.198 94.308 147.927 94.7517 147.927 95.4138V98.5145C147.927 105.813 143.811 107.4 140.205 107.805C136.77 108.192 132.963 106.367 132.493 104.265C130.468 92.8703 127.092 90.4368 121.76 86.232C128.376 82.0307 135.261 75.8327 135.261 67.5365C135.261 58.5783 129.119 52.9358 124.933 50.1687C119.06 46.2976 112.558 45.5219 110.804 45.5219H40.9766C50.4456 34.954 63.2784 27.4679 77.7932 24.7439L86.0239 33.3787C87.8847 35.3272 90.9665 35.3995 92.9133 33.537L102.123 24.7284C121.42 28.3209 137.758 40.3334 147.173 56.8139L140.869 71.0534C139.78 73.5179 140.891 76.4002 143.349 77.4922L155.487 82.8837C155.696 85.0385 155.806 87.2157 155.806 89.4222ZM86.0274 17.3988C88.1599 15.3557 91.5426 15.4365 93.584 17.5725C95.6219 19.7136 95.5445 23.0998 93.4068 25.1411C91.2743 27.1842 87.8916 27.1051 85.8502 24.9657C83.814 22.828 83.8914 19.4418 86.0274 17.3988ZM148.592 67.7481C149.787 65.0463 152.945 63.827 155.643 65.0257C158.341 66.2227 159.559 69.387 158.362 72.0887C157.167 74.7922 154.009 76.0115 151.309 74.8128C148.614 73.6159 147.397 70.4533 148.592 67.7481Z" fill="black"/>
</g>
<defs>
<clipPath id="clip0_406_1547">
<rect width="180" height="180" fill="white"/>
</clipPath>
</defs>
</svg>
