<svg width="180" height="181" viewBox="0 0 180 181" fill="none" xmlns="http://www.w3.org/2000/svg">
<path fill-rule="evenodd" clip-rule="evenodd" d="M48.1241 72.5236C49.285 74.1238 59.0742 77.1421 73.6766 80.286C88.2789 83.0847 103.465 94.1353 115.275 90.7279C123.263 88.4186 131.929 67.8423 131.929 64.7863V64.4726C131.929 62.339 130.329 60.6259 127.612 59.2014C116.473 53.5099 114.365 51.414 110.236 52.5498C88.7997 58.4672 50.9542 55.4426 48.1241 72.5236Z" fill="#380D09"/>
<path fill-rule="evenodd" clip-rule="evenodd" d="M48.1241 114.304C49.285 115.929 59.0742 118.922 73.6766 122.072C89.992 125.047 104.18 134.742 115.996 131.328C123.985 129.019 131.929 109.629 131.929 106.566V106.265C131.929 104.138 130.329 102.419 127.612 101C119.115 96.4822 107.889 91.506 103.766 92.6418C82.2924 98.5467 53.5898 99.8457 48.1241 114.304Z" fill="#380D09"/>
<path fill-rule="evenodd" clip-rule="evenodd" d="M48.0049 81.5034V81.8046C47.9984 81.7043 47.9984 81.6037 48.0049 81.5034V81.5034Z" fill="#555555"/>
<path fill-rule="evenodd" clip-rule="evenodd" d="M115.965 31.0761C96.2232 36.7803 64.9039 39.9994 48.0299 39.9994V72.2224C48.0353 72.3332 48.0772 72.4391 48.1492 72.5236C59.6641 72.5236 95.2129 68.7585 116.661 62.8599C120.402 61.9078 124.07 60.6894 127.637 59.214C130.26 58.0343 131.954 56.7918 131.954 55.4991V23C131.929 26.0623 123.953 28.7732 115.965 31.0761Z" fill="#DE3423"/>
<path fill-rule="evenodd" clip-rule="evenodd" d="M115.965 72.8625C104.149 76.2699 88.2036 78.8051 73.6765 80.286C63.9249 81.2838 54.8134 81.8046 48.0299 81.8046V114.003C48.0353 114.113 48.0772 114.219 48.1492 114.304C59.6641 114.304 95.2129 110.539 116.661 104.646C120.401 103.691 124.069 102.473 127.637 101C130.26 99.8144 131.954 98.5781 131.954 97.2855V64.7864C131.929 67.8424 123.953 70.5533 115.965 72.8625Z" fill="#DE3423"/>
<path fill-rule="evenodd" clip-rule="evenodd" d="M115.965 114.674C104.149 118.081 88.2036 120.61 73.6766 122.097C63.9124 123.095 54.7883 123.616 48.0049 123.616V156.09C59.4006 156.09 95.1314 152.356 116.636 146.433C124.562 144.249 131.929 141.764 131.929 139.065V106.566C131.929 109.654 123.953 112.34 115.965 114.674Z" fill="#DE3423"/>
</svg>
