<svg width="180" height="180" viewBox="0 0 180 180" fill="none" xmlns="http://www.w3.org/2000/svg">
<path fill-rule="evenodd" clip-rule="evenodd" d="M39.2726 18.0875L89.9998 13.0078L140.727 18.0875L180 68.0236L89.9998 167.293L0 68.0236L39.2726 18.0875Z" fill="#FDB300"/>
<path d="M36.454 68.0237L89.9994 167.294L0 68.0237H36.454ZM143.546 68.0237L90.0006 167.294L180 68.0237" fill="#EA6C00"/>
<path fill-rule="evenodd" clip-rule="evenodd" d="M36.4541 68.0237H143.545L89.9994 167.294" fill="#FDAD00"/>
<path d="M89.9994 13.0078L39.2723 18.0867L36.4541 68.023L89.9994 13.0078ZM90.0003 13.0078L140.727 18.0867L143.546 68.023" fill="#FDD231"/>
<path d="M180 68.0228L140.728 18.0864L143.546 68.0228H180ZM0 68.0228L39.2722 18.0864L36.454 68.0228" fill="#FDAD00"/>
<path fill-rule="evenodd" clip-rule="evenodd" d="M89.9994 13.0078L36.4541 68.023H143.545" fill="#FEEEB7"/>
</svg>
