<svg width="180" height="180" viewBox="0 0 180 180" fill="none" xmlns="http://www.w3.org/2000/svg">
<path d="M23.1606 165.864L17.5846 17.288C17.4005 12.3811 21.1629 8.22262 26.0636 7.91633L152.438 0.0179311C157.426 -0.293844 161.723 3.49731 162.035 8.48572C162.047 8.67366 162.052 8.86192 162.052 9.05024V170.95C162.052 175.948 158.001 180 153.002 180C152.867 180 152.732 179.997 152.596 179.991L31.7981 174.565C27.0935 174.354 23.3373 170.57 23.1606 165.864Z" fill="#FF4785"/>
<path d="M124.261 22.1249L125.125 1.36361L142.48 0L143.227 21.4104C143.253 22.1555 142.67 22.7806 141.925 22.8067C141.606 22.8178 141.293 22.7155 141.043 22.518L134.35 17.2457L126.426 23.2565C125.832 23.7071 124.985 23.5909 124.535 22.9968C124.345 22.7468 124.248 22.4385 124.261 22.1249ZM102.066 67.8445C102.066 71.3654 125.783 69.6779 128.966 67.2047C128.966 43.2279 116.101 30.6284 92.5423 30.6284C68.9835 30.6284 55.784 43.4239 55.784 62.6171C55.784 96.0453 100.896 96.6851 100.896 114.919C100.896 120.037 98.3902 123.076 92.8764 123.076C85.6919 123.076 82.8515 119.407 83.1856 106.931C83.1856 104.225 55.784 103.381 54.9486 106.931C52.8212 137.164 71.6569 145.884 93.2106 145.884C114.096 145.884 130.47 134.752 130.47 114.599C130.47 78.7714 84.6894 79.7311 84.6894 61.9773C84.6894 54.7799 90.036 53.8202 93.2106 53.8202C96.5523 53.8202 102.567 54.4092 102.066 67.8445Z" fill="white"/>
</svg>
