<svg width="181" height="182" viewBox="0 0 181 182" fill="none" xmlns="http://www.w3.org/2000/svg">
<path d="M126.598 54.1219C117.307 40.8317 98.9559 36.8924 85.6891 45.3419L62.3904 60.1861C60.823 61.171 59.3608 62.316 58.0304 63.603C56.6984 64.89 55.5049 66.3121 54.4684 67.8461C53.4318 69.3801 52.5571 71.0176 51.8577 72.7319C51.16 74.4469 50.642 76.2297 50.312 78.0516C50.0366 79.5789 49.8864 81.128 49.8664 82.6803C49.8447 84.2343 49.9532 85.7867 50.1885 87.3207C50.4239 88.8564 50.7861 90.3703 51.2702 91.8459C51.7542 93.3215 52.3602 94.7536 53.0813 96.1291C52.5852 96.8829 52.1273 97.6612 51.7092 98.4609C51.2902 99.2605 50.913 100.082 50.5775 100.92C50.2419 101.758 49.9498 102.612 49.7011 103.48C49.4524 104.348 49.2488 105.228 49.0885 106.116C48.4227 109.85 48.5107 113.68 49.3472 117.38C49.7645 119.224 50.3638 121.024 51.1383 122.75C51.9128 124.475 52.8559 126.121 53.9576 127.66C63.2484 140.95 81.5979 144.89 94.8647 136.44L118.163 121.658C119.731 120.671 121.19 119.525 122.52 118.236C123.85 116.948 125.043 115.526 126.08 113.993C127.117 112.461 127.992 110.823 128.691 109.109C129.39 107.396 129.91 105.613 130.242 103.792C130.517 102.265 130.666 100.718 130.686 99.1654C130.706 97.613 130.597 96.0606 130.36 94.5266C130.125 92.9926 129.763 91.4803 129.277 90.0048C128.791 88.5309 128.185 87.0987 127.464 85.7233C127.96 84.9705 128.419 84.1909 128.838 83.3914C129.255 82.5918 129.634 81.7706 129.97 80.9327C130.305 80.0947 130.599 79.2401 130.849 78.3721C131.098 77.5058 131.305 76.6261 131.467 75.7381C131.797 73.8753 131.941 71.9841 131.898 70.0929C131.854 68.2017 131.622 66.3205 131.205 64.4743C130.788 62.6299 130.188 60.8305 129.414 59.1045C128.64 57.3783 127.697 55.7332 126.598 54.1937" fill="#FF3E00"/>
<path d="M83.4123 128.946C81.5888 129.419 79.7037 129.612 77.8222 129.516C75.941 129.42 74.0848 129.039 72.3188 128.383C70.5527 127.728 68.8968 126.808 67.408 125.654C65.9205 124.499 64.6175 123.125 63.5438 121.578C62.8812 120.651 62.3136 119.663 61.8496 118.625C61.3842 117.587 61.0235 116.506 60.773 115.397C60.5243 114.287 60.384 113.155 60.359 112.018C60.334 110.882 60.4224 109.745 60.6227 108.625C60.6545 108.443 60.6912 108.261 60.7312 108.081C60.7696 107.899 60.813 107.718 60.8598 107.54C60.9048 107.359 60.9549 107.181 61.0083 107.002C61.0601 106.825 61.1168 106.648 61.1752 106.473L61.6142 105.133L62.8111 106.026C63.4971 106.527 64.2048 106.999 64.9309 107.44C65.657 107.882 66.4015 108.293 67.1627 108.67C67.9221 109.049 68.7 109.396 69.4895 109.708C70.2791 110.022 71.0819 110.301 71.8965 110.546L72.7895 110.805L72.7094 111.698C72.6664 112.306 72.7296 112.916 72.8964 113.502C72.9781 113.796 73.0866 114.08 73.2185 114.353C73.3504 114.627 73.5056 114.889 73.6826 115.136C74.0067 115.602 74.4002 116.016 74.8493 116.363C75.2967 116.71 75.7958 116.987 76.3282 117.184C76.8607 117.381 77.4182 117.495 77.9857 117.523C78.5516 117.553 79.1191 117.495 79.6683 117.351C79.7952 117.318 79.9187 117.28 80.0422 117.236C80.1657 117.193 80.2876 117.146 80.4061 117.093C80.5263 117.041 80.6431 116.984 80.76 116.922C80.8751 116.862 80.987 116.797 81.0971 116.727L104.361 101.881C104.646 101.702 104.912 101.494 105.154 101.26C105.396 101.025 105.611 100.766 105.8 100.487C105.988 100.209 106.145 99.9098 106.272 99.5977C106.397 99.2856 106.491 98.9617 106.551 98.6312C106.609 98.2924 106.634 97.9502 106.626 97.6063C106.618 97.2642 106.574 96.9236 106.497 96.5881C106.422 96.2543 106.312 95.9288 106.17 95.615C106.03 95.3028 105.856 95.0057 105.656 94.727C105.332 94.2613 104.94 93.849 104.491 93.5018C104.042 93.1546 103.543 92.8775 103.012 92.6805C102.48 92.4835 101.921 92.3687 101.355 92.34C100.787 92.3116 100.219 92.3701 99.6703 92.5119C99.5451 92.5453 99.4199 92.5837 99.2964 92.6271C99.1729 92.6705 99.0527 92.7172 98.9325 92.769C98.8123 92.8224 98.6955 92.8792 98.5803 92.9409C98.4652 93.001 98.3516 93.0678 98.2415 93.1379L89.3079 98.8098C88.944 99.0402 88.5701 99.2572 88.1896 99.4608C87.8073 99.6628 87.4201 99.8514 87.0245 100.025C86.6289 100.199 86.2266 100.357 85.8193 100.499C85.412 100.643 84.9997 100.769 84.5824 100.881C82.7613 101.352 80.8801 101.542 79.0023 101.446C77.1244 101.349 75.2733 100.966 73.5106 100.314C71.7479 99.6595 70.0954 98.7397 68.6099 97.588C67.1243 96.4362 65.8223 95.0658 64.749 93.5218C64.0897 92.5954 63.5238 91.6056 63.0614 90.5673C62.5974 89.5291 62.2385 88.4474 61.9898 87.3391C61.7411 86.2291 61.6042 85.0973 61.5809 83.9606C61.5558 82.8256 61.6443 81.6888 61.8463 80.5705C62.2409 78.3685 63.0902 76.2731 64.34 74.4178C65.5907 72.5625 67.215 70.9888 69.1089 69.7974L92.4443 54.9532C92.8066 54.7229 93.1771 54.5059 93.556 54.3022C93.9349 54.1003 94.3222 53.9116 94.7145 53.738C95.1076 53.5644 95.5074 53.4062 95.9129 53.264C96.3169 53.1204 96.7275 52.9919 97.1431 52.8801C98.9659 52.4077 100.85 52.2141 102.73 52.3092C104.611 52.406 106.466 52.7866 108.232 53.4426C109.998 54.0969 111.652 55.0183 113.141 56.1717C114.628 57.327 115.93 58.7021 117.003 60.2496C117.664 61.1743 118.233 62.1625 118.699 63.2007C119.165 64.239 119.525 65.319 119.777 66.429C120.028 67.539 120.168 68.6707 120.193 69.8074C120.22 70.9442 120.133 72.0809 119.933 73.2009C119.898 73.3845 119.861 73.5682 119.819 73.7501C119.779 73.932 119.736 74.114 119.689 74.2943C119.644 74.4762 119.594 74.6565 119.542 74.8351C119.49 75.0154 119.437 75.194 119.379 75.3709L118.933 76.7113L117.744 75.8182C117.057 75.3125 116.347 74.8384 115.62 74.3927C114.892 73.9487 114.144 73.5348 113.381 73.1525C111.854 72.3907 110.265 71.7586 108.632 71.263L107.738 71.0043L107.819 70.1112C107.844 69.8058 107.843 69.4986 107.814 69.1949C107.788 68.8911 107.733 68.5889 107.652 68.2935C107.571 67.9997 107.465 67.7109 107.334 67.4355C107.203 67.1584 107.048 66.8947 106.871 66.6443C106.546 66.1868 106.152 65.7816 105.704 65.4425C105.257 65.1019 104.761 64.8317 104.232 64.6413C103.17 64.2558 102.015 64.204 100.922 64.4927C100.795 64.5261 100.67 64.5645 100.548 64.6062C100.425 64.6496 100.303 64.698 100.183 64.7498C100.064 64.8015 99.9457 64.8599 99.8306 64.92C99.7154 64.9818 99.6019 65.0469 99.4917 65.117L76.1847 79.9362C75.9009 80.1148 75.6355 80.3234 75.3951 80.5571C75.1548 80.7908 74.9378 81.0495 74.7492 81.3266C74.5621 81.6053 74.4039 81.9023 74.2768 82.213C74.1499 82.5251 74.0565 82.8473 73.9964 83.1778C73.9379 83.5166 73.9129 83.8605 73.9212 84.2043C73.9413 84.8926 74.0961 85.5703 74.3769 86.199C74.5185 86.512 74.6902 86.8105 74.8894 87.0904C75.2115 87.5511 75.6021 87.9617 76.0478 88.3055C76.4926 88.651 76.9873 88.9268 77.515 89.1235C78.5762 89.518 79.7321 89.5814 80.8301 89.3054C80.9552 89.2703 81.0804 89.232 81.204 89.1886C81.3258 89.1452 81.4477 89.0967 81.5678 89.045C81.6875 88.993 81.805 88.9362 81.92 88.8747C82.0352 88.8147 82.1487 88.7496 82.2589 88.6794L91.1924 83.0175C91.558 82.7838 91.9302 82.5635 92.3125 82.3599C92.6931 82.1545 93.082 81.9659 93.4793 81.7907C93.8752 81.617 94.2778 81.4588 94.6861 81.3166C95.095 81.173 95.509 81.0462 95.928 80.936C97.7507 80.462 99.6336 80.2683 101.515 80.3618C103.396 80.457 105.25 80.8375 107.016 81.4919C108.781 82.1462 110.437 83.0659 111.924 84.221C113.413 85.3744 114.715 86.7482 115.788 88.2955C116.449 89.2219 117.017 90.2101 117.482 91.2484C117.948 92.286 118.309 93.3674 118.561 94.4766C118.811 95.5849 118.951 96.7167 118.978 97.8534C119.005 98.9918 118.916 100.129 118.718 101.247C118.521 102.345 118.21 103.42 117.791 104.453C117.372 105.488 116.846 106.475 116.222 107.4C115.599 108.324 114.882 109.182 114.081 109.958C113.279 110.735 112.4 111.426 111.455 112.02L88.1462 126.864C87.7806 127.096 87.4067 127.315 87.0261 127.518C86.6439 127.722 86.255 127.911 85.8577 128.084C85.4621 128.26 85.0598 128.418 84.6509 128.562C84.2436 128.705 83.8296 128.834 83.4123 128.946" fill="white"/>
</svg>
