<svg width="180" height="180" viewBox="0 0 180 180" fill="none" xmlns="http://www.w3.org/2000/svg">
<g clip-path="url(#clip0_406_1638)">
<path d="M0.0612348 2.52065C-0.313499 1.0036 1.09352 -0.350728 2.59516 0.0816043L46.3502 12.6788C46.7419 12.6774 47.1292 12.789 47.4602 12.9986L133.754 37.8431C134.112 37.8504 134.464 37.9518 134.771 38.1355L178.53 50.7342C180.033 51.1671 180.503 53.0655 179.376 54.1501L47.329 181.169C46.2019 182.253 44.3239 181.71 43.9489 180.192L22.0448 91.5178C22.0155 91.4267 21.9925 91.3337 21.9761 91.2395L0.0612348 2.52065ZM37.542 137.317L47.0482 175.801L75.6752 148.263L37.542 137.317ZM67.0293 106.883L39.3133 133.598L76.2358 144.198L67.0293 106.883ZM71.1436 106.597L80.3208 143.795L107.961 117.207L71.1436 106.597ZM26.7975 93.8187L36.0148 131.136L63.6982 104.452L26.7975 93.8187ZM99.7144 75.342L71.5535 102.487L109.082 113.301L99.7144 75.342ZM103.66 74.3766L113.027 112.334L141.266 85.1716L103.66 74.3766ZM56.1424 62.7462L27.9211 89.9148L65.5179 100.748L56.1424 62.7462ZM60.0734 61.7214L69.2799 99.036L96.996 72.3203L60.0734 61.7214ZM15.7388 49.0493L25.1086 86.9836L53.3095 59.8345L15.7388 49.0493ZM132.592 43.7826L104.876 70.4983L141.799 81.0982L132.592 43.7826ZM136.553 42.8759L145.891 80.7223L174.021 53.6635L136.553 42.8759ZM88.8396 31.2703L61.2478 57.832L97.9966 68.381L88.8396 31.2703ZM92.7773 30.2723L101.997 67.6322L129.721 40.9085L92.7773 30.2723ZM45.2373 18.6188L17.5213 45.3345L54.4439 55.9344L45.2373 18.6188ZM49.2019 17.7265L58.3854 54.9478L86.0344 28.331L49.2019 17.7265ZM4.84745 4.95678L14.2151 42.8801L42.3555 15.7556L4.84745 4.95678Z" fill="black"/>
</g>
<defs>
<clipPath id="clip0_406_1638">
<rect width="180" height="180" fill="white"/>
</clipPath>
</defs>
</svg>
