<svg width="180" height="180" viewBox="0 0 180 180" fill="none" xmlns="http://www.w3.org/2000/svg">
<g clip-path="url(#clip0_406_599)">
<path d="M179.745 89.7772C179.745 139.357 139.551 179.552 89.9677 179.552C40.3838 179.552 0.189941 139.357 0.189941 89.7772C0.189941 40.1944 40.3843 0 89.9677 0C139.551 0 179.745 40.1944 179.745 89.7772Z" fill="#DD4814"/>
<path d="M28.9218 77.7885C22.2988 77.7885 16.9331 83.1547 16.9331 89.7772C16.9331 96.3966 22.2988 101.762 28.9218 101.762C35.5412 101.762 40.9069 96.3966 40.9069 89.7772C40.9069 83.1547 35.5412 77.7885 28.9218 77.7885ZM114.503 132.266C108.77 135.577 106.804 142.904 110.116 148.634C113.423 154.367 120.75 156.332 126.483 153.021C132.215 149.713 134.181 142.386 130.87 136.653C127.562 130.923 120.231 128.958 114.503 132.266ZM54.9574 89.7772C54.9574 77.9321 60.841 67.4673 69.8436 61.1303L61.0806 46.4532C50.5936 53.4632 42.7908 64.175 39.5482 76.7206C43.3319 79.8081 45.7537 84.5081 45.7537 89.7767C45.7537 95.0421 43.3319 99.7422 39.5482 102.83C42.7866 115.379 50.5894 126.091 61.0806 133.101L69.8436 118.42C60.841 112.087 54.9574 101.623 54.9574 89.7772ZM89.9677 54.7633C108.258 54.7633 123.264 68.7869 124.839 86.6713L141.919 86.4195C141.078 73.2162 135.31 61.3631 126.448 52.6471C121.89 54.369 116.626 54.1056 112.076 51.4826C107.517 48.8523 104.66 44.4151 103.878 39.5984C99.4486 38.3759 94.7865 37.7066 89.9666 37.7066C81.6808 37.7066 73.8469 39.6528 66.8913 43.0955L75.2198 58.0202C79.7003 55.9351 84.6986 54.7633 89.9677 54.7633ZM89.9677 124.788C84.6986 124.788 79.7003 123.615 75.2204 121.531L66.8918 136.455C73.8474 139.902 81.6814 141.848 89.9677 141.848C94.7876 141.848 99.4496 141.179 103.879 139.952C104.66 135.136 107.519 130.703 112.076 128.068C116.629 125.44 121.891 125.182 126.448 126.904C135.311 118.188 141.079 106.335 141.919 93.1313L124.835 92.8795C123.264 110.769 108.259 124.788 89.9677 124.788ZM114.498 47.2814C120.231 50.5921 127.559 48.6311 130.866 42.8981C134.177 37.165 132.216 29.8378 126.483 26.526C120.75 23.2184 113.423 25.1836 110.111 30.9167C106.804 36.6466 108.769 43.9738 114.498 47.2814Z" fill="white"/>
</g>
<defs>
<clipPath id="clip0_406_599">
<rect width="180" height="180" fill="white"/>
</clipPath>
</defs>
</svg>
