<svg width="180" height="180" viewBox="0 0 180 180" fill="none" xmlns="http://www.w3.org/2000/svg">
<g clip-path="url(#clip0_406_1548)">
<path d="M41.1711 59.3447H145.603V69.5057L179.473 120.31H0.527344L41.1711 59.3447Z" fill="white"/>
<path d="M145.885 59.0625H41.02L0 120.593H180L145.885 69.4199V59.0625ZM145.321 59.627V69.5911L178.945 120.028H1.05462L41.3218 59.627H145.321Z" fill="black"/>
<path d="M41.1711 59.3447H54.719L14.0752 120.31H0.527344L20.8492 89.8275L0.527344 59.3447H14.0752L27.6232 79.6666L41.1711 59.3447Z" fill="black" stroke="black"/>
<path d="M17.4622 120.31H31.0101L58.1059 79.6666V120.31H71.6538V59.3447H58.1059L17.4622 120.31Z" fill="black" stroke="black"/>
<path d="M74.4763 120.31H88.0242V79.6666L101.572 99.9884L115.12 79.6666V120.31H128.668V59.3447H111.733L101.572 79.6666L88.0242 59.3447H74.4763V120.31Z" fill="black" stroke="black"/>
<path d="M132.055 120.31H179.473L170.441 106.762H145.603V59.3447H132.055V120.31Z" fill="black" stroke="black"/>
</g>
<defs>
<clipPath id="clip0_406_1548">
<rect width="180" height="180" fill="white"/>
</clipPath>
</defs>
</svg>
